<svg xmlns="http://www.w3.org/2000/svg" xmlns:xlink="http://www.w3.org/1999/xlink" version="1.1" x="0px" y="0px" viewBox="0 0 1077 606" style="enable-background:new 0 0 1077 606;" xml:space="preserve" width="1077"  height="606" >
<style type="text/css">
	.st0{clip-path:url(#SVGID_2_);}
	.st1{fill:#D3EFFF;}
	.st2{fill:#E84C4F;}
	.st3{fill:#FFFFFF;}
	.st4{fill:#FFC648;}
	.st5{fill:#FFAA00;}
	.st6{fill:#FFF177;}
	.st7{fill:#B77500;}
	.st8{fill:#FFC866;}
	.st9{fill:#EFAA3A;}
	.st10{fill:#EA8B00;}
	.st11{fill:none;stroke:#E84C4F;stroke-width:1.1415;stroke-miterlimit:10;}
	.st12{fill:#5E2D1E;}
	.st13{fill:#FFA171;}
	.st14{fill:#F37E4E;}
	.st15{fill:#8E5C3A;}
	.st16{fill:#C82C2F;}
	.st17{fill:#FF8080;}
	.st18{fill:#1949B7;}
	.st19{fill:#2D63D9;}
	.st20{fill:#74A0D6;}
	.st21{fill:none;stroke:#E84C4F;stroke-width:1.1415;stroke-linecap:round;stroke-linejoin:round;stroke-miterlimit:10;}
	.st22{fill:none;stroke:#FFFFFF;stroke-width:1.1415;stroke-linecap:round;stroke-linejoin:round;stroke-miterlimit:10;}
	.st23{fill:#8A4140;}
	.st24{fill:#6D3131;}
	.st25{fill:#D7835A;}
	.st26{fill:#FFC19C;}
	.st27{fill:#512020;}
	.st28{fill:#99653F;}
	.st29{fill:#FBFFDD;}
	.st31{fill:#D7835A;}

	@keyframes mov_one {

		10% {

			transform: translateX(0px);
		}

	    80%, 100% {

	    	transform: translateX(-1400px);
	    }
	}

	.sub_one path:nth-of-type(1) {

	    animation: mov_one 6s linear infinite;
	}

	@keyframes mov_two {

		30% {

			transform: translateX(-600px);
		}

	    100% {

	    	transform: translateX(-1400px);
	    }
	}

	.sub_one path:nth-of-type(2) {

        animation: mov_two 6s linear infinite;
	}

	.sub_three path:nth-of-type(6) {

	    transform-origin: 598px 48.6px;
	    animation: rotate_one .3s linear infinite;
	}

	.sub_three path:nth-of-type(2) {

	    transform-origin: 574px 51px;
	    animation: rotate_two .4s linear infinite;
	}

    @keyframes slide_two {

    	20% {

    		transform: translateX(-700px);
    	}

    	40% {

    		transform: translateX(0px);
    	}

    	60% {

    		transform: translateX(150px);
    	}

    	67%, 100% {

    		transform: translateX(600px);
    	}
    }

	.sub_three {

		transform: translateX(-700px);
		animation: slide_two 6s linear infinite;
	}

	@keyframes fly_two {

		20% {

			transform: translateY(-40px);
		}

		40% {

			transform: translateY(50px);
		}

		55%, 60% {

			transform: translateY(80px);
		}

		80%, 100% {

			transform: translateY(-20px);
		}
	}

	.brd_two {

        transform: translateY(-40px);
		animation: fly_two 6s ease infinite;
	}

	.sub_four path:nth-of-type(6) {

	    transform-origin: 365.6px 73.7px;
	    animation: rotate_one .3s linear infinite;
	}

	.sub_four path:nth-of-type(2) {

	    transform-origin: 342px 76px;
	    animation: rotate_two .4s linear infinite;
	}

    @keyframes slide_one {   

    	45% {

    		transform: translate(400px);
    	}

    	60%, 100% {

    		transform: translate(1000px);
    	}
    }

	.sub_four {

		transform: translate(-850px);
		animation: slide_one 6s linear infinite;
	}
	
	@keyframes fly_one {

		15% {

			transform: translateY(110px);
		}

		30% {

			transform: translateY(0px) ;
		}

		45% {

			transform: translateY(110px);
		}

		60%, 100% {

			transform: translateY(0px) ;
		}
	}

	.brd_three {

		animation: fly_one 6s ease infinite;
	}

    @keyframes rotate_two {

    	25% {

    		transform: rotate(15deg);
    	}

    	75% {

    		transform: rotate(-30deg);
    	}
    }

	.sub_two path:nth-of-type(2) {

	    transform-origin: 675.8px 117.6px;
	    animation: rotate_two .4s linear infinite;
	}
	
    @keyframes rotate_one {

    	50% {

    		transform: rotate(15deg);
    	}
    }

	.sub_two path:nth-of-type(6) {

	    transform-origin: 699.8px 115.5px;
	    animation: rotate_one .3s linear infinite;
	}

	@keyframes slide_three {

		25% {

			transform: translateX(-850px);
		}

		40% {

			transform: translateX(-450px);
		}

		55% {

			transform: translateX(-300px);
		}

		67%, 100% {

			transform: translateX(500px);
		}
	}

	.sub_two {

		transform: translateX(-850px);
		animation: slide_three 6s linear infinite;
	}

	@keyframes fly_three {

		25% {

			transform: translateY(120px);
		}

		40% {

			transform: translateX(0px);
		}

		55% {

			transform: translateX(100px);
		}

		67%, 100% {

			transform: translateY(100px);
		}
	}

	.brd_one {

		transform: translateY(120px);
		animation: fly_three 6s ease infinite;
	}

    @keyframes shake {

    	50% {

    		transform: translate(-7px, 1px) scale(1, .65) rotateY(5deg) rotate(3deg);
    	}
    }

	.sub_five path:nth-of-type(1) {

		transform-origin: 872px 200px;
		transform: translate(-7px, 1px) scale(1, 1) rotateY(0deg) rotate(3deg);
		animation: shake .4s ease infinite;
	}

	.sub_five path:nth-of-type(4) {

		transform-origin: 872px 200px;
		transform: translate(-7px, 1px) scale(1, 1) rotateY(0deg) rotate(3deg);
		animation: shake .4s .07s ease infinite;
	}

	@keyframes rotate_three {

		15% {

			transform: rotate(-55deg);
		}

		30%, 100% {

			transform: rotate(0deg);
		}
	}

	.sub_six {

		transform-origin: 779.7px 357.4px;
		animation: rotate_three 5s ease infinite;
	}

	@keyframes rotate_four {

		15%, 20% {

			transform: rotate(-85deg);
		}

		27%, 100% {

			transform: rotate(0deg);
		}
	}

	.sub_seven {

		transform-origin: 753.2px 452.4px;
		animation: rotate_four 5s ease infinite;
	}

	@keyframes fric {

		15% {

			transform: translateY(0px);
		}

		20% {

            transform: translateY(10px);
		}

		26%, 100% {

			transform: translateY(0px);
		}
	}

	.sub_eight {

		animation: fric 5s ease infinite;
	}

	@keyframes rotate_five {

		15% {

			transform: rotate(0deg);
		}

		20% {

			transform: rotate(-10deg);
		}

		25%, 100% {

			transform: rotate(0deg);
		}
	}

	.sub_nine {

		transform-origin: 800px 362px;
		animation: rotate_five 5s ease infinite;
	}

	@keyframes rotate_six {

		15% {

			transform: rotate(0deg);
		}

		20% {

			transform: rotate(5deg);
		}

		25%, 100% {

			transform: rotate(0deg);
		}
	}

	.sub_ten {

		transform-origin: 828px 567.4px;
		animation: rotate_six 5s ease infinite;
	}

	@keyframes slide_four {

		20% {

			transform: translateX(-80px);
		}

		40% {

			transform: translateX(60px);
		}

		100% {

			transform: translateX(0px);
		}
	}

	.sub_eleventh {

		animation: slide_four 5s ease infinite;
	}

    @keyframes pulsating_effect {

        33% {

           opacity: 0.4;
        }

        66%, 100% {

           opacity: 0;
           transform: scale(1.1);
        }
    }

    .bg {

        opacity: 0;
        transform-origin: 220px 411px;
        animation: pulsating_effect 1.8s linear infinite;
    }

    @keyframes flip {

    	50% {

    		transform: rotate(45deg);
    	}
    }

    .ft_two {

    	transform-origin: 645.3px 495.7px;
    	animation: flip .45s linear infinite;
    }

    .ft_one {

    	transform-origin: 637.9px 503.6px;
    	animation: flip .45s linear infinite;
    }

    @keyframes flip_two {

    	25% {

    		transform: rotate(-15deg);
    	}

    	75% {

    		transform: rotate(25deg);
    	}
    }

    .ft_three {

    	transform-origin: 562px 542.1px;
    	animation: flip_two .4s linear infinite;
    }

    @keyframes flip_three {

    	50% {

    		transform: translate(10px, 5px) rotate(-95deg);
    	}
    }

    .ft_four {

    	transform-origin: 557.1px 559.2px;
        transform: translate(10px, 5px) rotate(-45deg);
    	animation: flip_three .6s linear infinite;
    }

    @keyframes flip_four {

    	50% {

    		transform: translateY(-8px) rotate(-65deg);
    	}
    }

    .ft_five {

    	transform-origin: 576px 560px;
        transform: translateY(-8px) rotate(-35deg);
    	animation: flip_four .6s .3s linear infinite;
    }

    @keyframes flip_five {

    	50% {

    		transform: translateX(-10px) rotate(90deg);
    	}
    }

    .ft_six {

    	transform-origin: 660.4px 552.5px;
    	transform: translateX(0px) rotate(20deg);
    	animation: flip_five .6s linear infinite;
    }

    @keyframes flip_six {

    	50% {

    		transform: translateX(-5px) rotate(-20deg);
    	}
    }

    .ft_seven {

    	transform-origin: 651.6px 561px;
    	transform: rotate(40deg);
    	animation: flip_six .6s linear infinite;
    }

    @keyframes flip_seven {

    	50% {

    		transform: rotate(10deg);
    	}
    }

    .sub_twelve {

    	transform-origin: 622.5px 555.5px;
    	animation: flip_seven .4s linear infinite;
    }

    .sub_thirteen {

    	transform-origin: 622.5px 555.5px;
    	transform: rotate(5deg);
    }

    @keyframes fade {

    	4% {

    		opacity: 1;
    	}

    	8%, 100% {

    		opacity: 0;
    	}
    }

    .ft_eight {

        opacity: 0;
    	animation: fade 2s linear infinite;
    }

    @keyframes flip_eight {

    	20%, 25% {

    		transform: translateX(-60px);
    	}

    	35%, 100% {

    		transform: translateX(-100px);
    	}
    }

    .sub_fourteen {

    	transform: translateX(-100px);
    	animation: flip_eight 5s linear infinite; 
    }
</style>
<g>
    <rect class="st1" width="1076.8" height="605.7"/>
</g>
<g>
    <g>
        <defs>
            <rect id="SVGID_1_" width="1076.8" height="605.7"/>
        </defs>
        <clipPath id="SVGID_2_">
            <use xlink:href="#SVGID_1_" style="overflow:visible;"/>
        </clipPath>
    </g>
    <g class="st0">
<g class="sub_one">
    <path class="st3" d="M1134.7,44.7c0,0-37.1-3-34,26.9c2.4,23,38,16.6,38,16.6s2.6,16.6,16.6,26.9c15.1,11.1,45.1,14.2,59.4,8.7  c13.6-5.3,19.8-13.4,19.8-13.4s17.5,8.8,43.5,2.4c22.2-5.5,22-22.1,21.4-30.9c-0.8-11.1-13.5-20.9-24.5-20.5  c-10.3,0.3-14.2,2.4-14.2,2.4s-1.6-19.8-15.8-26.9c-14.2-7.1-28.5-0.8-28.5-0.8S1205.3,9.5,1183,7.5  C1156.2,5.2,1138.7,21,1134.7,44.7z"/>
    <path class="st3" d="M1220.6,104.4c40.2-8.9,76.7,15.8,84.3,26.4c7.6,10.6,12.9,24.2,12.9,24.2s3.1-3,12.7-0.1  c9.5,2.9,9.2,9.9,9.2,9.9s17.4-3.8,24.7,12.3c7.3,16.1-6.1,31-13,34.5c-6.9,3.5-17.1-0.1-17.1-0.1s-13.1,36.1-64.7,39.6  c-51.6,3.5-68.9-20.9-68.9-20.9s-14.9,14.1-44.7,14.8c-29.8,0.8-43.3-11.7-50.2-22.2c-6.9-10.5-7.5-41.2,16.3-55.5  c26.8-16.2,54.9-8.8,54.9-8.8S1166.3,116.3,1220.6,104.4z"/>
</g>
<g class="brd_one">
<g class="sub_two">
	<path class="st4" d="M700.9,105.1c4.5-0.6,8.9,0,10.9,5.6c2.1,5.6,0.8,13.2-11.1,16.9c-12,3.7-19.2-2.9-21.3-4.8    c-2.1-1.8-5.6-6.6-5.6-6.6S687.9,106.8,700.9,105.1z"/>
	<path class="st4" d="M676.3,114.8c0,0-4.5-4.9-7.4-5.4c-2.9-0.4-2.5,3.3-2.5,3.3s-2.1,0.6-2.3,2.7c-0.2,2.1,0.8,3.5,3.9,3.7    c3.1,0.2,10.8-0.6,10.8-0.6L676.3,114.8z"/>
	<path class="st4" d="M711.6,115.6c0,0,2.7-1.7,3.8-2.8c1.1-1.1,1.1-1.6-0.7-2.3c-1.8-0.7-5.1-1.3-5.1-1.3L711.6,115.6z"/>
	<path class="st5" d="M715.9,111.4l-4.6,0.8c0,0-1.1,5.5-4.4,8.3c-3,2.5-5.2,3.6-9.9,4.4c-4.7,0.8-8.9,0.4-11.8-0.7    c-3-1-4-1.6-5.9-2.7c-1-0.6-3.5-2.9-3.5-2.9s3,4.1,5.8,6c2.9,1.8,6,3.5,9.8,3.9c3.8,0.4,8.1-0.1,12.4-2c4.3-1.8,6.2-4.1,7.1-5.7    s1.6-3.2,1.7-4.1c0.1-0.8,0-2,0-2s2-1.5,2.8-2.1C716.2,112.2,716,112.1,715.9,111.4z"/>
	<path class="st5" d="M699.8,115.5c0,0-1.4,1.8-12.5,3.9c-9.1,1.6-10.3-1.1-11.4-5.6c-1.1-4.5,8.5-2.9,13.1-1.7    C693.7,113,699,111.4,699.8,115.5z"/>
	<path class="st6 " d="M699.8,115.5c0.8-1.3-1.8-8.2-5.8-13.2c-3.9-4.9-7.8-7.4-11.1-7c-3.3,0.4-5.8,1.5-5.8,4.9c0,3.5,1,5.6,1,5.6    s-4.1,0.6-3.9,5.2c0.2,4.5,4.1,5.8,8.1,6.6c3.9,0.8,9.9,0.6,12.2,0C696.8,116.9,699.2,116.5,699.8,115.5z"/>
	<path class="st7" d="M704.3,111.3c1,0,1.8-0.8,1.8-1.8c0-1-0.8-1.8-1.8-1.8c-1,0-1.8,0.8-1.8,1.8    C702.4,110.5,703.3,111.3,704.3,111.3z"/>
</g>
</g>
<g class="brd_two">
<g class="sub_three">
	<path class="st4" d="M599,38.5c4.5-0.6,8.9,0,10.9,5.6c2.1,5.6,0.8,13.2-11.1,16.9c-12,3.7-19.2-2.9-21.3-4.8    c-2.1-1.8-5.6-6.6-5.6-6.6S586,40.2,599,38.5z"/>
	<path class="st4" d="M574.4,48.2c0,0-4.5-4.9-7.4-5.4c-2.9-0.4-2.5,3.3-2.5,3.3s-2.1,0.6-2.3,2.7s0.8,3.5,3.9,3.7    c3.1,0.2,10.8-0.6,10.8-0.6L574.4,48.2z"/>
	<path class="st4" d="M609.7,49c0,0,2.7-1.7,3.8-2.8c1.1-1.1,1.1-1.6-0.7-2.3c-1.8-0.7-5.1-1.3-5.1-1.3L609.7,49z"/>
	<path class="st5" d="M614,44.8l-4.6,0.8c0,0-1.1,5.5-4.4,8.3c-3,2.5-5.2,3.6-9.9,4.4c-4.7,0.8-8.9,0.4-11.8-0.7    c-3-1-4-1.6-5.9-2.7c-1-0.6-3.5-2.9-3.5-2.9s3,4.1,5.8,6c2.9,1.8,6,3.5,9.8,3.9c3.8,0.4,8.1-0.1,12.4-2c4.3-1.8,6.2-4.1,7.1-5.7    c1-1.6,1.6-3.2,1.7-4.1s0-2,0-2s2-1.5,2.8-2.1C614.3,45.6,614.1,45.5,614,44.8z"/>
	<path class="st5" d="M597.9,48.8c0,0-1.4,1.8-12.5,3.9c-9.1,1.6-10.3-1.1-11.4-5.6c-1.1-4.5,8.5-2.9,13.1-1.7    C591.8,46.4,597.1,44.8,597.9,48.8z"/>
	<path class="st6" d="M597.9,48.8c0.8-1.3-1.8-8.2-5.8-13.2c-3.9-4.9-7.8-7.4-11.1-7c-3.3,0.4-5.8,1.5-5.8,4.9c0,3.5,1,5.6,1,5.6    s-4.1,0.6-3.9,5.2c0.2,4.5,4.1,5.8,8.1,6.6c3.9,0.8,9.9,0.6,12.2,0C594.9,50.3,597.3,49.9,597.9,48.8z"/>
	<path class="st7" d="M602.4,44.7c1,0,1.8-0.8,1.8-1.8c0-1-0.8-1.8-1.8-1.8c-1,0-1.8,0.8-1.8,1.8C600.5,43.9,601.3,44.7,602.4,44.7    z"/>
</g>
</g>
<g class="brd_three">
<g class="sub_four">
	<path class="st4" d="M366.6,63.2c4.5-0.6,8.9,0,10.9,5.6c2.1,5.6,0.8,13.2-11.1,16.9c-12,3.7-19.2-2.9-21.3-4.8    c-2.1-1.8-5.6-6.6-5.6-6.6S353.6,64.8,366.6,63.2z"/>
	<path class="st4" d="M342,72.8c0,0-4.5-4.9-7.4-5.4c-2.9-0.4-2.5,3.3-2.5,3.3s-2.1,0.6-2.3,2.7s0.8,3.5,3.9,3.7    c3.1,0.2,10.8-0.6,10.8-0.6L342,72.8z"/>
	<path class="st4" d="M377.3,73.7c0,0,2.7-1.7,3.8-2.8c1.1-1.1,1.1-1.6-0.7-2.3c-1.8-0.7-5.1-1.3-5.1-1.3L377.3,73.7z"/>
	<path class="st5" d="M381.6,69.4l-4.6,0.8c0,0-1.1,5.5-4.4,8.3c-3,2.5-5.2,3.6-9.9,4.4c-4.7,0.8-8.9,0.4-11.8-0.7    c-3-1-4-1.6-5.9-2.7c-1-0.6-3.5-2.9-3.5-2.9s3,4.1,5.8,6c2.9,1.8,6,3.5,9.8,3.9c3.8,0.4,8.1-0.1,12.4-2c4.3-1.8,6.2-4.1,7.1-5.7    c1-1.6,1.6-3.2,1.7-4.1c0.1-0.8,0-2,0-2s2-1.5,2.8-2.1C381.9,70.3,381.7,70.2,381.6,69.4z"/>
	<path class="st5" d="M365.6,73.5c0,0-1.4,1.8-12.5,3.9c-9.1,1.6-10.3-1.1-11.4-5.6c-1.1-4.5,8.5-2.9,13.1-1.7    C359.4,71.1,364.7,69.4,365.6,73.5z"/>
	<path class="st6" d="M365.6,73.5c0.8-1.3-1.8-8.2-5.8-13.2c-3.9-4.9-7.8-7.4-11.1-7c-3.3,0.4-5.8,1.5-5.8,4.9c0,3.5,1,5.6,1,5.6    s-4.1,0.6-3.9,5.2c0.2,4.5,4.1,5.8,8.1,6.6c3.9,0.8,9.9,0.6,12.2,0C362.5,74.9,364.9,74.5,365.6,73.5z"/>
	<path class="st7" d="M370,69.4c1,0,1.8-0.8,1.8-1.8s-0.8-1.8-1.8-1.8c-1,0-1.8,0.8-1.8,1.8S369,69.4,370,69.4z"/>
</g>
</g>
<g>

	<path d="M78.5,177.4l6.1,8.8l7-5.1v32.6h11.9v-48.7h-8.8L78.5,177.4z M131,214.5c6.4,0,11.4-2.3,14.9-6.8    c3.6-4.6,5.3-10.7,5.3-18.3s-1.8-13.7-5.3-18.2c-3.6-4.6-8.6-6.9-14.9-6.9c-6.4,0-11.3,2.3-14.9,6.9c-3.6,4.5-5.3,10.7-5.3,18.2    s1.8,13.7,5.3,18.3C119.7,212.2,124.7,214.5,131,214.5z M139.2,189.4c0,8.2-2.8,13.6-8.1,13.6c-5.3,0-8.2-5.4-8.2-13.6    c0-8.1,2.9-13.6,8.2-13.6C136.4,175.8,139.2,181.3,139.2,189.4z M187.1,213.7v-23.4l12.2,17.1h4.6l12.2-17.1v23.4h12.2v-48.7h-9.2    l-17.4,25l-17.5-25H175v48.7H187.1z M242.5,174.2c3.8,0,6.7-2.8,6.7-6.7c0-3.8-2.9-6.6-6.7-6.6c-3.8,0-6.7,2.8-6.7,6.6    C235.8,171.3,238.6,174.2,242.5,174.2z M248.3,177.4h-11.7v36.3h11.7V177.4z M267,213.7v-18.9c0-4.7,2.9-7.8,7.1-7.8    c4,0,6.4,2.8,6.4,7.5v19.2h11.7v-22.3c0-4.8-1.4-8.6-4.1-11.1c-2.7-2.6-6.1-3.9-9.9-3.9c-5.3,0-9.6,2.6-11.4,6.1v-5.1h-11.3v36.3    H267z M298.6,197.9c0,10.7,6.6,16.8,17.4,16.8s17.5-6.1,17.5-16.8v-20.5h-11.7V198c0,3.6-2.2,6.1-5.9,6.1c-3.5,0-5.8-2.4-5.8-6.1    v-20.6h-11.7V197.9z M365.7,202.4c-2.1,1.1-4,1.6-5.7,1.6c-3.1,0-4.6-1.9-4.6-5.8V187h11.4v-9.6h-11.4v-12.9h-11.5v12.9h-5.7v9.6    h5.5v12.6c0,10,4.5,15,13.5,15c4.3,0,8.2-1,11.6-3L365.7,202.4z M408.5,194.7c0-5.6-1.8-10.1-5.3-13.3c-3.5-3.2-8-4.9-13.4-4.9    c-5.7,0-10.4,1.8-14,5.5c-3.6,3.6-5.4,8.2-5.4,13.6c0,5.3,1.7,9.8,5.2,13.5c3.5,3.6,8.4,5.5,14.9,5.5c6.1,0,11.4-1.6,16.1-5    l-4.5-7.8c-3.4,2.2-7,3.4-11,3.4c-4.6,0-7.6-1.9-8.9-5.7h25.9C408.4,197.7,408.5,196.2,408.5,194.7z M389.9,185.8    c3.9,0,6.6,2.1,7.6,5.6h-15.4C383.3,187.6,385.9,185.8,389.9,185.8z M427.4,214.7c4.8,0,8.6-1.1,11.4-3.4c2.8-2.3,4.2-5.2,4.2-8.8    c0-4.2-1.8-7-6.2-9.2c-2.2-1.1-5.1-2.2-8.6-3.2c-2.2-0.6-3.3-1.4-3.3-2.6c0-1.1,1.4-2,3.3-2c2.8,0,5.7,1.1,8.8,3.1l5-7.6    c-3.9-3.2-8.4-4.7-13.6-4.7c-4.5,0-8.2,1.1-10.9,3.2c-2.7,2.1-4.1,4.9-4.1,8.3c0,4.5,2.2,7.8,6.8,9.9c0.9,0.4,2.6,1,5,1.8    c2.5,0.9,3.8,1.3,4,1.3c1.3,0.5,2,1.2,2,2c0,1.5-1.3,2.3-3.9,2.3c-3.8,0-7.4-1.5-10.9-4.5l-5.2,7.8    C415.7,212.6,421,214.7,427.4,214.7z M103.4,301.7c7.6,0,13.6-2.2,17.9-6.5c4.3-4.3,6.5-10.3,6.5-17.8c0-7.6-2.2-13.5-6.5-17.8    c-4.3-4.3-10.2-6.5-17.8-6.5H83.8v48.7H103.4z M96.1,264.9h7.9c3.6,0,6.3,1.2,8.2,3.6c1.9,2.4,2.9,5.4,2.9,8.9c0,3.5-1,6.5-2.9,9    c-1.9,2.4-4.7,3.6-8.2,3.6h-7.9V264.9z M170.5,282.7c0-5.6-1.8-10.1-5.3-13.3c-3.5-3.2-8-4.9-13.4-4.9c-5.7,0-10.4,1.8-14,5.5    s-5.4,8.2-5.4,13.6c0,5.3,1.7,9.8,5.2,13.5c3.5,3.6,8.4,5.5,14.9,5.5c6.1,0,11.4-1.6,16.1-5l-4.5-7.8c-3.4,2.2-7,3.4-11,3.4    c-4.6,0-7.6-1.9-8.9-5.7h25.9C170.3,285.7,170.5,284.2,170.5,282.7z M151.8,273.8c3.9,0,6.6,2.1,7.6,5.6H144    C145.3,275.6,147.8,273.8,151.8,273.8z M187.6,251.5H176v50.2h11.6V251.5z M201,262.2c3.8,0,6.6-2.8,6.6-6.7    c0-3.8-2.9-6.6-6.6-6.6c-3.8,0-6.7,2.8-6.7,6.6C194.3,259.3,197.1,262.2,201,262.2z M206.9,265.4h-11.7v36.3h11.7V265.4z     M230.9,286.1l-7.6-20.7h-12.8l15.5,36.3h9.3l15.6-36.3h-12.7L230.9,286.1z M289.2,282.7c0-5.6-1.8-10.1-5.3-13.3    c-3.5-3.2-8-4.9-13.4-4.9c-5.7,0-10.4,1.8-14,5.5s-5.4,8.2-5.4,13.6c0,5.3,1.7,9.8,5.2,13.5c3.5,3.6,8.4,5.5,14.9,5.5    c6.1,0,11.4-1.6,16.1-5l-4.5-7.8c-3.4,2.2-7,3.4-11,3.4c-4.6,0-7.6-1.9-8.9-5.7h25.9C289.1,285.7,289.2,284.2,289.2,282.7z     M270.6,273.8c3.9,0,6.6,2.1,7.6,5.6h-15.4C264,275.6,266.6,273.8,270.6,273.8z M306.4,301.7v-15.7c0-7,2.7-10.5,8-10.5    c1.5,0,3.1,0.3,4.8,0.9l0.9-11.1c-1.4-0.7-3-1-4.5-1c-4.1,0-7.4,1.8-9.7,5.5v-4.5h-11.1v36.3H306.4z M343.6,286.3l-8-20.9h-13.4    l15.8,35.7l-0.2,0.5c-1.8,3.5-4.1,5.3-7,5.3c-1.5,0-3.1-0.4-4.7-1.3l-2.2,9.5c2.2,1.4,4.8,2,7.8,2c8.4,0,13.6-5.3,17.6-15.4    l14.1-36.4h-12.6L343.6,286.3z M379.9,286.9l0.9-35.4h-12l0.7,35.4H379.9z M374.8,302.6c3.4,0,6.1-2.7,6.1-6.3    c0-3.5-2.8-6.3-6.1-6.3c-3.6,0-6.5,2.8-6.5,6.3C368.4,299.9,371.2,302.6,374.8,302.6z"/>
</g>
<g>
	<path class="st2 bg" d="M118.5,369.6h205.4c21.8,0,39.5,17.7,39.5,39.5v0c0,21.8-17.7,39.5-39.5,39.5H118.5    c-21.8,0-39.5-17.7-39.5-39.5v0C79,387.2,96.7,369.6,118.5,369.6z"/>
	<path class="st2" d="M118.5,369.6h205.4c21.8,0,39.5,17.7,39.5,39.5v0c0,21.8-17.7,39.5-39.5,39.5H118.5    c-21.8,0-39.5-17.7-39.5-39.5v0C79,387.2,96.7,369.6,118.5,369.6z"/>
	<path class="st3" d="M115.4,407.2c0,4.4,1.5,8.1,4.5,11.1c3,3,6.8,4.5,11.2,4.5c4.4,0,8.2-1.5,11.3-4.6c3.1-3.1,4.7-6.9,4.7-11.2    c0-4.4-1.6-8.1-4.7-11.2c-3.1-3.1-6.9-4.7-11.2-4.7c-4.4,0-8.1,1.6-11.2,4.7C116.9,398.9,115.4,402.7,115.4,407.2z M142.8,407    c0,3.4-1.1,6.2-3.4,8.4c-2.2,2.2-4.9,3.4-8.2,3.4s-6-1.1-8.2-3.4c-2.2-2.3-3.3-5.1-3.3-8.4c0-3.4,1.1-6.2,3.4-8.4    c2.2-2.3,5-3.4,8.2-3.4c3.2,0,6,1.1,8.2,3.4C141.7,400.9,142.8,403.7,142.8,407z M156.1,422.3v-11.8c0-4.8,2.6-7.2,6.1-7.2    c0.7,0,1.5,0.1,2.3,0.4l0.4-3.9c-0.9-0.2-1.7-0.3-2.6-0.3c-3,0-5.1,1.3-6.4,3.9v-3.3h-3.8v22.3H156.1z M184.8,403.3    c-2-2.5-4.6-3.8-7.8-3.8c-3.2,0-5.9,1.1-8,3.4c-2.1,2.2-3.2,5-3.2,8.2c0,3.3,1,6.1,3.2,8.4c2.1,2.2,4.8,3.4,8.1,3.4    c3.2,0,5.8-1.2,7.7-3.7v3.1h4v-31.5h-4V403.3z M185.1,411.2c0,2.3-0.7,4.2-2.1,5.7c-1.4,1.5-3.2,2.3-5.5,2.3    c-2.3,0-4.1-0.8-5.5-2.3c-1.4-1.5-2.1-3.4-2.1-5.7c0-2.2,0.7-4.1,2.1-5.7c1.4-1.5,3.2-2.3,5.5-2.3c2.3,0,4.1,0.8,5.5,2.3    C184.4,407,185.1,409,185.1,411.2z M215.7,410.8c0-3.5-1-6.2-3-8.2c-2-2-4.6-3-7.7-3c-3.3,0-6,1.1-8.1,3.3    c-2.1,2.2-3.1,4.9-3.1,8.3c0,5.8,3.5,11.7,11.9,11.7c3.7,0,7.4-1.4,9.6-3.1l-1.7-3c-2,1.5-5.1,2.5-7.8,2.5c-4.7,0-7.2-2.6-7.8-6.4    h17.7C215.6,411.7,215.7,411.1,215.7,410.8z M197.8,409.4c0.7-3.7,3.4-6.3,7.1-6.3c3.7,0,6.4,2.5,6.7,6.3H197.8z M224.4,422.3    v-11.8c0-4.8,2.6-7.2,6.1-7.2c0.7,0,1.5,0.1,2.3,0.4l0.4-3.9c-0.9-0.2-1.7-0.3-2.6-0.3c-3,0-5.1,1.3-6.4,3.9v-3.3h-3.8v22.3H224.4    z M249.6,422.3V410c0-2,0.6-3.6,1.7-4.9c1.2-1.3,2.7-1.9,4.4-1.9c3.4,0,5.7,2.5,5.7,6.8v12.4h3.9v-13.5c0-3-0.8-5.3-2.5-6.9    c-1.7-1.6-3.8-2.4-6.3-2.4c-3.3,0-5.7,1.2-7.1,3.7v-3.2h-3.9v22.3H249.6z M281.6,422.9c3.4,0,6.2-1.1,8.4-3.4    c2.2-2.3,3.3-5.1,3.3-8.4c0-3.2-1.1-6-3.3-8.3c-2.2-2.3-5-3.4-8.4-3.4c-3.4,0-6.2,1.1-8.4,3.4c-2.2,2.2-3.3,5-3.3,8.3    c0,3.3,1.1,6.1,3.3,8.4C275.4,421.8,278.2,422.9,281.6,422.9z M289.3,411.2c0,2.2-0.7,4.1-2.2,5.7c-1.5,1.6-3.3,2.4-5.4,2.4    c-2.1,0-3.9-0.8-5.4-2.4c-1.5-1.6-2.2-3.5-2.2-5.7s0.7-4.1,2.2-5.6c1.5-1.6,3.3-2.4,5.4-2.4c2.1,0,3.9,0.8,5.4,2.4    C288.6,407.1,289.3,409,289.3,411.2z M305.9,422.3l6-16.7l6.2,16.7h3.3l7.4-22.2h-4.2l-5.1,16.7l-6.3-16.7h-2.8l-6.1,16.7    l-5.3-16.7H295l7.6,22.2H305.9z"/>
</g>
<g class="sub_eleventh">
<g class="sub_eight">
<g class="sub_five">
	<path class="st11" d="M803.5,155.8c0,0,0.5,8.8,9.8,16.6c9.4,7.6,19.4,10.6,32.8,14.2c13.4,3.6,26.1,6.4,26.6,11.8    c0.5,5.3-10,7-10,7"/>
	<path class="st13" d="M832.5,193.5c0,0,7.2-9.1,9.3-13.5c2.1-4.3,1.3-7.1,1.3-7.1l33.2,2.3c0,0-3.5,9.6-9.5,18.2    c-6,8.6-8.9,13.6-8.9,13.6S841.4,207.2,832.5,193.5z"/>
    <path class="st14" d="M847.9,191.9c12.7,5.3,20.7-1.6,20.7-1.6s0.9-1.3,3-4.9c2.2-3.6,5.4-11.3,5.4-11.3l-34,0.1    c0,0,0.3,2.9-1.3,5.9c-1.6,3-1.6,2.9-1.6,2.9S841.9,189.4,847.9,191.9z"/>
    <path class="st11" d="M785.6,174.5c0,0,16.3-7.6,29-5.5c12.7,2.2,20.4,14.6,25.4,21.8c5,7.2,11.2,11.2,13.4,13    c2.2,1.7,7.4,1.7,7.4,1.7"/>
</g>
<g>
	<path class="st12" d="M869.6,132.6c0,0,3.9,2.8,6.8,8.5c2.9,5.7,2.9,6.8,3.3,8.6c0.3,1.8,0.3,3.5,0.6,8.2    c0.3,4.6,0.6,7.2-1.2,10.6c-1.8,3.4-2.9,6.7-2.9,6.7s-0.1,2.1,2.1,3.3c2.2,1.2,6.2,0.7,7.5-0.7c1.3-1.5,0.5-4.7,0.5-4.7    s7.5-2.6,11-8.4c3.4-5.8,3.7-9.9,2.1-13.4c-1.6-3.5-3.3-4.2-3.3-4.2s4.2-5.3-1-10.2c-5.1-5-8-2.8-8-2.8L869.6,132.6z"/>
	<path class="st16" d="M859.8,105.9c0,0,0.5-3.4,3-3.4c2.6,0,2.9,1.3,3.1,2.1c0.2,0.7,0.2,1.9,0.2,1.9L859.8,105.9z"/>
	<path class="st16" d="M862.4,105.3c6.5-0.2,13.4,5.4,18.1,13.1c4.7,7.7,6.5,15.7,6.5,15.7l-10.7,0.6c0,0-26.4-3.9-31.4-3.9    c-5,0-5,0-5,0s0.2-2.5,2.1-7.7C844.6,115.7,853.8,105.6,862.4,105.3z"/>
	<path class="st4" d="M860.6,107.9c3.7-0.3,6.8,1.1,9.6,3.9c2.3,2.2,4.5,5.6,6.2,8.8c3.2,5.9,3.7,10.2,2.9,11    c-1.3,1.4-14.2,0-14.2,0l-22.5-0.9c0,0-0.6-8.3,6.5-15.7C856.2,107.7,860.6,107.9,860.6,107.9z"/>
	<path class="st3" d="M859.1,128.9c4,0,7.2-3.2,7.2-7.2c0-4-3.2-7.2-7.2-7.2s-7.2,3.2-7.2,7.2C851.9,125.7,855.2,128.9,859.1,128.9    z"/>
    <path class="st12" d="M826.1,131.4c0,0-1.1,1.9,1,3.3c2.1,1.3,3.9,1.2,3.9,1.2s14-3.4,19.3-4.2c5.3-0.9,9.5,0.2,9.5,0.2    s-6,2.9-9.2,4.5c-3.3,1.6-5.7,2.8-5.7,2.8s1.8,0.7,6-1.5c4.2-2.2,11.3-6.4,11.3-6.4l3,0.5c0,0-4.9,3.9-9.4,5.9    c-4.5,1.9-14.2,3.8-14.2,3.8s-1.2,13.5,0.5,19.7c1.7,6.2,1.1,8.2,0.9,11.8c-0.1,3.3-1,4.7-3.7,5.7c-2.7,1-4.2,1-4.2,0.2    c0-0.7,1.8-3.3,1.2-6.8c-0.6-3.5-1.8-5.8-5.5-8.2c-3.7-2.3-5.8-4.2-6.5-7.9s0.3-6,1.7-7.2c1.3-1.2,2.7-2.2,2.2-2.6    c-0.5-0.3-4.2-1.6-5.4-4.5c-1.2-2.9-1.7-5.7-0.2-8.4C824.1,130.6,826.5,130.5,826.1,131.4z"/>
    <path class="st13" d="M842.4,140.7c0,0-1.9,2.6-2.5,5.6c-0.6,3-0.9,3.9-0.9,3.9s-1.5-3.8-4.9-2.7c-2.6,0.9-3,5.1-1.8,8.5    c1.2,3.4,3.3,3.9,4.2,4.1c1.3,0.2,2.4-0.6,2.4-0.6s1.5,7.6,4.2,14.7c2.7,7,7,13.1,16.8,13c10.3-0.1,12.8-5.3,15.1-8.8    c2.2-3.6,3.8-6.9,4.5-8.5c0.7-1.7,1.7-4.5,1.7-4.5s11.1,2.9,11.3-9.5c0.1-4.2-1.4-6.3-3-7.4c-2.3-1.6-5-1.1-6.2-0.5    c-1.8,0.9-3.1,3.5-3.1,3.5s-0.3-5.8-5.5-13.5c-5.3-7.6-5.9-7.8-5.9-7.8l-14.2,1.1L842.4,140.7z"/>
    <path class="st12" d="M865.1,131.7c0,0-3.3,4.2-10.2,6.4c-6.9,2.1-11.5,3.1-16.5,3.4s-0.5-1.5,2.1-1.5c2.6,0,8-1,11.9-2.9    c4.4-2.1,7.4-5.4,7.4-5.4L865.1,131.7z"/>
    <path class="st12" d="M858,132.3c0,0-2.6,1.9-7.6,4.2c-3.7,1.7-8.7,3-8.7,3l2.2-3.1l4.5-3.3L858,132.3z"/>
    <path class="st16" d="M830.9,135.8c0,0-14.2-13.6,1.2-17.8c15.4-4.2,44.2,16.6,44.2,16.6s-17.2-1.8-30.5-0.6    C832.4,135.2,830.9,135.8,830.9,135.8z"/>
    <path class="st14" d="M837.1,157.2c1.2-0.4,1.8-2,1.3-3.5c-0.5-1.6-1.9-2.5-3.1-2.1c-1.2,0.4-1.8,2-1.3,3.5    C834.4,156.6,835.8,157.6,837.1,157.2z"/>
    <path class="st14" d="M888,157.9c0.3-2.3-1-4.4-2.9-4.7s-3.8,1.4-4.1,3.7s1,4.4,2.9,4.7C885.9,161.8,887.7,160.2,888,157.9z"/>
    <path class="st12" d="M849.7,159.4c1.1,0,2.1-1.4,2.1-3.1c0-1.7-0.9-3.1-2.1-3.1c-1.1,0-2.1,1.4-2.1,3.1    C847.7,158,848.6,159.4,849.7,159.4z"/>
    <path class="st12" d="M866.5,157.7c1.1,0,2.1-1.4,2.1-3.1c0-1.7-0.9-3.1-2.1-3.1c-1.1,0-2.1,1.4-2.1,3.1    C864.5,156.3,865.4,157.7,866.5,157.7z"/>
    <path class="st17" d="M846.3,171.2c2.5,0,4.5-2,4.5-4.5s-2-4.5-4.5-4.5s-4.5,2-4.5,4.5S843.8,171.2,846.3,171.2z"/>
    <path class="st17" d="M872,169.2c2.5,0,4.5-2,4.5-4.5c0-2.5-2-4.5-4.5-4.5c-2.5,0-4.5,2-4.5,4.5    C867.6,167.2,869.6,169.2,872,169.2z"/>
    <path class="st14" d="M858.4,157.4c0.6,0,2.9,8.2,3.3,9.6c0.5,1.4,0.2,2.7-3.1,2.7c-3.3,0.1-4.3-0.7-4.2-1.7    c0.1-0.9,2.2-6.1,2.7-7.5C857.6,159.3,857.9,157.4,858.4,157.4z"/>
    <path class="st15" d="M856.9,175.6c-0.1,0.7,2.4,1.4,5,1.1c2.6-0.3,5.1-2.3,6-3.5c0.9-1.2-0.3-0.6-1.4,0.2    c-1.1,0.7-3.4,1.7-5.2,1.9C859.5,175.5,857,174.9,856.9,175.6z"/>
    <path class="st14" d="M861.4,181.4c1.6-0.2,2.8-0.9,2.7-1.7c-0.1-0.7-1.4-1.1-3-0.9c-1.6,0.2-2.8,0.9-2.7,1.7    C858.5,181.1,859.8,181.6,861.4,181.4z"/>
</g>
</g>
<g class="sub_nine">

	<path class="st18" d="M826.7,461.6c6.3-0.1,13.3-1.3,17.1-6.7c3.7-5.1,5.3-10,5.1-16.4c-0.7-16.8-5.5-33.2-10.3-49.4  c-5.4-18.2-10.8-36.4-16.2-54.6c-13.3,24.7-26.6,49.4-39.8,74.1c-0.3,0.5-0.6,1.1-0.6,1.7c-0.1,0.8,0.3,1.7,0.7,2.4  c4.5,9,9.1,18,13.6,27c1.6,3.1,3,6.2,4.3,9.4c0.5,1.3,1.1,2.5,1.9,3.7c4.7,7.6,15.1,8.5,23.2,8.6C826,461.6,826.3,461.6,826.7,461.6  z"/>
</g>
<g class="sub_ten">
	<path class="st13" d="M828.6,546.2c0,0-1.2,4.6-1,7.2c0.2,2.6,1.8,7.4,1.8,7.4l5,8.4l-6.2,6.2l-11.8-0.6l-4.8-3l-3-8.8    c0,0,1.4-4.6,1.6-8.6c0.2-4,0.4-19.1,0.4-19.1L828.6,546.2z"/>
	<path class="st14" d="M828,539.3l-0.5,14.2c0,0,0.5,4.7-7.5,4.5c-7.9-0.2-9.9-3.5-9.9-3.5l0.4-19.1L828,539.3z"/>
	<path class="st18" d="M848.1,445.5c-0.1-0.9-0.2-1.9-0.4-2.8c-2-9.6-11-17.3-20.8-17.8s-19.6,6-22.8,15.3c-1.6,4.5-1.8,9.4-1.7,14.2  c0,5,0.1,10.1,0.1,15.1c0.1,5.7,0.1,11.4,0.3,17.2c0.3,10.3,0.7,20.6,1.6,30.9c0.9,10.2,2.3,20.3,3.5,30.5c0.2,1.3,0.3,2.6,0.5,3.9  c5.7-0.2,11.4-0.5,17.1-0.7c2-0.1,4.3-0.3,5.7-1.7c1.1-1.1,1.4-2.8,1.6-4.3c4.7-28.6,9.5-57.3,14.2-85.9  C847.8,454.7,848.5,450.1,848.1,445.5z"/>
	<path class="st3" d="M828.9,558.6c0,0-0.5,3.7-6.6,4.1c-6.2,0.5-13-3.5-13-3.5l-1.6,5.5c0,0,2.7,6,10.5,7.6c7.7,1.6,16.4-5,16.4-5    L828.9,558.6z"/>
    <path class="st2" d="M830.4,557.2c-1.6,1.2-2.6,1.8-1.4,5.2c1.2,3.4,2.4,3.2,0.4,4.4c-2,1.2-6,3.8-11.6,0.6    c-5.6-3.2-8.6-5.8-9.4-6.2c-0.8-0.4-2.6,4.4-2.8,9.4c-0.2,5-0.2,9.8,0.6,10.4c0.8,0.6,51,0.2,53.6,0.2c2.6,0,4.2-2.8,3.8-5    c-0.4-2.2-5.8-3.5-11.9-6.8c-4.7-2.5-13.4-8-16.4-9.8C832.2,557.8,830.4,557.2,830.4,557.2z"/>
    <path class="st3" d="M812.7,577.5h50.9l-0.3,3.6l-57.8-0.1l-0.1-3.5H812.7z"/>
    <path class="st3" d="M839.4,562.3c0,0-2.2,4-3.1,5.7c-1,1.7-3.5,0.2-2.4-1.6c1.1-1.8,3-5.7,3-5.7L839.4,562.3z"/>
    <path class="st3" d="M844.9,565.5c0,0-1.6,3.1-2.6,4.7c-1,1.7-3.5,0.2-2.4-1.6c1.1-1.8,2.6-4.7,2.6-4.7L844.9,565.5z"/>
</g>
<g class="sub_eight">
<g class="sub_six">
	<path class="st13 sub_seven" d="M646,427.4c0,0-14.2-5.4-16.8-5.8c-2.6-0.3-7.6,0.2-7.6,0.2l-9.2,3.2l-4.8-7.4l3-11.5l3.9-4.1l9.2-1.1    c0,0,4.2,2.3,8.1,3.3c3.9,1,18.5,4.3,18.5,4.3L646,427.4z"/>
	<path class="st14 sub_seven" d="M646.8,426.9l-17.7-5.3c0,0-2.2-3.5,0.2-9.4c2.3-5.8,4.2-7.4,4.2-7.4l21.3,4.3L646.8,426.9z"/>
	<path class="st3 sub_seven" d="M622,421.3c0,0-3-2.1-0.7-7.7c2.3-5.7,9-10,9-10l-4.2-3.9c0,0-6.6-0.3-11.5,5.9c-4.9,6.2-2.9,16.9-2.9,16.9    L622,421.3z"/>
	<path class="st2 sub_seven" d="M622.7,423.2c-0.3-2-0.5-3.1-4.1-3.6c-3.6-0.5-3.9,0.7-4.1-1.7c-0.2-2.3-0.7-7.1,4.7-10.7    c5.4-3.6,9.1-5.1,9.8-5.6c0.7-0.5-2.7-4.3-7.1-6.7c-4.4-2.5-7.8-4.4-8.7-4c-0.9,0.5-23.9,46.1-25.1,48.4c-1.2,2.3,0.5,4.2,2.7,4.9    c2.2,0.6,5.8-3.5,11.4-7.5c4.3-3.1,13.2-8.4,16.2-10.3C621.3,424.6,622.7,423.2,622.7,423.2z"/>
	<path class="st3 sub_seven" d="M612.4,398.3l-22.9,45.5l-3.1-1.9l26.1-51.5l3.1,1.5L612.4,398.3z"/>
	<path class="st3 sub_seven" d="M614,429c0,0-2.6-3.7-3.7-5.4c-1-1.7,1.4-3.3,2.5-1.4c1.1,1.9,3.8,5.3,3.8,5.3L614,429z"/>
	<path class="st3 sub_seven" d="M608.8,432.5c0,0-2.1-2.9-3.2-4.5c-1-1.7,1.4-3.3,2.5-1.4c1.1,1.9,3,4.3,3,4.3L608.8,432.5z"/>
	<path class="st19" d="M743.3,348.1c-1.8,14-3.9,31-4.7,37.9c-0.8,6.8-1.5,13.7-2.1,20.5c-0.5,5.4-1.6,10.7-3.1,15.9  c-1.7,5.6-2.7,11.5-3.7,17.3c-0.6,3.4-1.2,6.8-1.8,10.3c-1.3,7,1.3,14.4,7.1,19.2c1.7,1.4,3.6,2.4,5.6,3.2c1.5,0.6,2.7,1.1,3.3,1.3  c8.4,3.3,22.1,3.3,33.2-15c7.4-12.1,27.9-57.1,40.8-86c3.8-8.6,3.1-20.3-1.1-28.6c-5.5-11.1-18.5-17-30.3-18.1  c-5.3-0.5-10.4-1-15.4-1C757.4,324.9,745.8,334.7,743.3,348.1L743.3,348.1"/>
	<path class="st19 sub_seven" d="M728.5,420.5c-9.4-2.3-18.9-4.3-28.5-5.9c-18.8-3.3-61.1-11.7-61.1-11.7s-3.9,1.3-6.5,12.3  c-2.6,11.1-7.1,10.4,1.9,14.3c22.4,9.6,45.1,18.5,67.6,27.7c9.7,3.9,19.4,7.9,29.1,11.8c13.7,5.5,25.6,8.9,38-1.5  c5.2-4.4,14.6-17.5,14.2-25.7c-0.2-3.7-7.2-5.3-10.2-6.8c-4.7-2.3-9.6-4.2-14.5-5.9C748.7,425.6,738.6,423,728.5,420.5z"/>
</g>
<g>
	<path class="st2" d="M861.7,201.4c0,0,3,0.4,3.4,3.1c0.5,2.7-3.6,24.5-5.7,37.2c-2.1,12.7-10.3,31.5-13.8,50.2    c-3.4,18.7-5.1,29.7-4.2,39.9c0.9,10.2,0.9,17.8,0.9,17.8s-15.3,9.4-53.5,7.6c-38.2-1.7-44.2-7.6-47.5-11    c-3.4-3.4,0-16.2,3.4-32.2c3.4-16.2,11.9-46.7,34-77.3c22.1-30.6,25.5-34,31.5-38.2c5.9-4.2,22.7-5.7,22.7-5.7s2.6,5.1,9.2,8    C848,203.4,859.4,206.3,861.7,201.4z"/>
	<path class="st4" d="M747.9,315.8c0,0-13.8,3.7-25.3-1.8c-11.5-5.5-13.6-17.1-10.9-33.3c2.7-16.3,12.2-35.2,26.8-52.1    c14.6-16.9,39.3-32.5,39.3-32.5s4.7-2.1,14.6-1.4c9.9,0.6,19.6,8.2,19.6,8.2L747.9,315.8z"/>
	<path class="st2" d="M833.6,191.3c0,0-5.1-7.2-17.9-10c-12.8-2.9-32.9-2.3-41.7,5.4c-8.7,7.8-8,14-6.4,18.5    c1.7,4.5,8.7,8,17.3,7.4c8.5-0.7,14.9-3.8,23.9-8.7c9-5,17.5-8.3,21.3-8.7C833.3,194.6,835,193.2,833.6,191.3z"/>
	<path class="st2" d="M861.7,201.4c0,0,3,0.4,3.4,3.1c0.5,2.7-3.6,24.5-5.7,37.2c-2.1,12.7-10.3,31.5-13.8,50.2    c-3.4,18.7-5.1,29.7-4.2,39.9c0.9,10.2,0.9,17.8,0.9,17.8s-15.3,9.4-53.5,7.6c-38.2-1.7-44.2-7.6-47.5-11    c-3.4-3.4,0-16.2,3.4-32.2c3.4-16.2,11.9-46.7,34-77.3c22.1-30.6,25.5-34,31.5-38.2c5.9-4.2,22.7-5.7,22.7-5.7s2.6,5.1,9.2,8    C848,203.4,859.4,206.3,861.7,201.4z"/>
	<path class="st16" d="M840.3,230.3c0,0,9.6-2.4,15.6-8.4c6-6,9.2-17.4,9.2-17.4s-2.4,15.4-4,29.4c-1.6,14-8,29.6-8,29.6    L840.3,230.3z"/>
	<path class="st4" d="M787.6,213.3c0,0,16.6-9.5,32.8-9.8c6.3-0.1,14.4,1.5,20.3,9.5c5.9,8,7,16.1,5,27.1    c-1.9,10.8-7.9,14.6-20.3,21.8c-12.4,7.2-33.4,20.7-44.2,27.2c-10.8,6.5-36.2,17.1-36.2,17.1s-4.7-3.4-1.3-9.8    c3.4-6.4,10.3-11.6,14.7-13.5c4.4-1.8,12.2-4.2,24.8-11.6c12.7-7.5,32.9-20.2,40.1-26.1c4.7-3.9,9.6-24.9-1.8-31.9    c-6.2-3.8-34.7,3.9-34.7,3.9S780.8,216.1,787.6,213.3z"/>
	<path class="st16" d="M794.2,226.7c0,0-3,11.4,3.7,34c6.1,20.8,11.4,35.3,19,49c10,17.9,25,37,25,37l-0.7-37L794.2,226.7z"/>
	<path class="st16" d="M767.7,333c0,0,6.2,0,16-7.4c9.8-7.4,12.5-11.7,14.4-18.3c1.5-5.1,0.4-9-1.9-6.6    c-3.9,3.9-13.6,14.8-20.7,20.3C768.5,326.3,762.2,332.6,767.7,333z"/>
</g>
<g>
	<path class="st8" d="M1014.1,281.2l-108.2-0.6l0.7-92.6l107.9,5L1014.1,281.2z"/>
	<path class="st9" d="M889.3,280.5l16.6,0.1l0.7-92.6l-16.9,4.3L889.3,280.5z"/>
	<path class="st10" d="M889.3,276.5l124.7,0.8l0,4l-124.6-0.8L889.3,276.5z"/>
	<path class="st10" d="M988.9,234.7c1.1-14.3-9.7-26.8-24-27.8c-14.3-1.1-26.8,9.7-27.8,24c-1.1,14.3,9.7,26.8,24,27.8    C975.4,259.7,987.9,249,988.9,234.7z"/>
	<path class="st3" d="M966.7,217.1l-0.5-0.1c-7.3-1.3-15,2.8-16.2,9.2c-0.1,0.4,0.2,0.7,0.5,0.8l27.3,4.7c0.4,0.1,0.7-0.2,0.8-0.6    C979.8,224.8,973.9,218.4,966.7,217.1z M958.3,221.9c-0.6,0-1.1-0.4-1.2-0.9c0-0.5,0.5-1,1.1-1s1.1,0.4,1.2,0.9    C959.4,221.4,958.9,221.8,958.3,221.9z M964.2,220.4c-0.6-0.1-1.1-0.5-1.1-1c0.1-0.5,0.6-0.9,1.2-0.9c0.6,0.1,1.1,0.5,1.1,1    C965.4,220.1,964.8,220.4,964.2,220.4z M967.5,224.7c-0.6-0.1-1.1-0.5-1.1-1c0.1-0.5,0.6-0.9,1.2-0.9c0.6,0.1,1.1,0.5,1.1,1    C968.7,224.3,968.1,224.7,967.5,224.7z M974,223.6c-0.3,0.5-0.9,0.6-1.5,0.2c-0.5-0.3-0.7-1-0.5-1.4c0.3-0.5,0.9-0.6,1.5-0.2    C974,222.6,974.3,223.2,974,223.6z"/>
	<path class="st3" d="M973.6,238.1c-1.1-0.1-2.2-0.5-3.1-1.3c-1.1-1.1-2.7-1.5-4.2-1c-2.7,1-5.6,0.6-7.5-1.3    c-1.4-1.3-2.2-1.1-4.7-0.3c-2.5,0.9-4.9-1.1-5.9-2.3c-0.5-0.6-0.3-1.4,0.2-1.9c0.6-0.5,1.4-0.3,1.9,0.2c0.4,0.5,1.9,1.9,3,1.5    c2.3-0.8,4.7-1.6,7.3,0.9c1.8,1.7,4.1,1,4.8,0.7c2.5-0.9,5.2-0.2,7,1.7c0.8,0.9,2.7,0.6,4-0.2c0.6-0.4,1.4-0.2,1.8,0.5    c0.4,0.6,0.2,1.4-0.5,1.8C976.7,237.7,975.1,238.1,973.6,238.1z"/>
	<path class="st3" d="M972.2,247.2l-21.8-3.8c-1.7-0.3-2.9-2.1-2.5-4.1l0.1-0.8c0.2-0.9,0.2-1.7,1-1.5l26.7,4.6    c0.8,0.1,0.6,0.9,0.4,1.8l-0.1,0.8C975.6,246.2,974,247.6,972.2,247.2z"/>
</g>
<g>
	<path class="st13" d="M876,316.2c0,0,42.8-22.2,46.9-24.3c4.1-2.1,7.2-2.3,12.2-2.5c5-0.2,17.9-0.6,21.2-0.8    c3.3-0.2,25.6-8.4,25.6-8.4s-25.8,0.2-28.7,0.2c-2.1,0-3.4,0.2,0.3-2.9c3.7-3.1,7.6-6.6,5.5-9.5c-2.1-2.9-9.5,2.9-12.8,4.5    c-3.3,1.7-7,0.8-10.5,2.3c-3.5,1.4-10.4,5.5-10.4,5.5l-16.6-0.1l-42.2,14.4L876,316.2z"/>
	<path class="st14" d="M883.6,288.9l8.2-2.9c0,0,2.5,5.5,3.3,11.5c0.9,6,0.9,8.2,0.9,8.2l-17.1,8.6L883.6,288.9z"/>
	<path class="st2" d="M803.1,214.1c13.9-6.1,26.9-0.5,35.6,12.6c8.7,13,14.3,22.5,19.1,33.8c4.8,11.2,9.1,23.9,13,36.8    c3.9,13,3.9,20.4-0.9,23.9c-6.2,4.5-8.4,5.4-13,6.5c-5.7,1.3-10.6,1.5-21.2-12.6c-10.8-14.3-26-42-32.1-53.3    c-6.1-11.2-9.5-24.7-10-29.9C793.2,226.7,793.2,218.4,803.1,214.1z"/>
	<path class="st2" d="M885.8,283.9c0,0,3.1,7.2,2.7,16.4c-0.4,9.2-2.1,16.7-2.1,16.7s-15.4,6.2-23.9,9.5    c-8.4,3.3-15.9,3.3-21.8-6.6c-6-9.9-1.8-20.6,5-23.9C852.5,292.8,885.8,283.9,885.8,283.9z"/>
	<path class="st14" d="M913,280l2.3,9c0,0-1.9,2-2.2,4.2c-0.3,2.2,0.1,3.7,0.1,3.7l4.9-2.2l1-6.5l-4.7-7.8L913,280z"/>
	<path class="st12" d="M917.6,290.3L913,280l9.1,0.1l3.3,6.9l-3.9,1L917.6,290.3z"/>
	<path class="st12" d="M925.7,297.9c4-1.6,6.3-5.4,5.1-8.5c-1.2-3.1-5.5-4.3-9.6-2.7s-6.3,5.4-5.1,8.5    C917.4,298.3,921.6,299.5,925.7,297.9z"/>
	<path class="st29" d="M925.2,296.1c3-1.2,4.7-3.8,3.9-5.9s-3.9-2.8-6.9-1.6c-3,1.2-4.7,3.8-3.9,5.9S922.2,297.3,925.2,296.1z"/>
	<path class="st14" d="M950.3,284.9c3.4,0.3,31.5-4.7,31.5-4.7l-30.8,0.1c0,0-0.6-0.6,0.8-1.5c1.4-1,4.3-3.3,5.4-4.7    c1.1-1.4,2.1-2.9,2.2-3.7c0.1-0.8-0.5-2.3-0.5-2.3s-0.2,3.1-3.6,5.9c-3.4,2.8-5.8,4.9-7.5,6.7    C946.2,282.3,946.1,284.5,950.3,284.9z"/>
</g>
</g>
<g>
	<path class="st21" d="M718.6,570c0,0,17.6,12.1,25.2,12.1c34.2,0,102.6,0,136.8,0c7.7,0,24.9-11.1,24.9-11.1"/>
	<path class="st22" d="M718.6,572.7c0,0,17.6,12.1,25.2,12.1c34.2,0,102.6,0,136.8,0c7.7,0,24.9-11.1,24.9-11.1"/>
	<path class="st3" d="M869.1,606.1c5,0,9.1-4.1,9.1-9.1c0-5-4.1-9.1-9.1-9.1c-5,0-9.1,4.1-9.1,9.1C860,602.1,864,606.1,869.1,606.1    z"/>
	<path class="st3" d="M750.7,606.1c5,0,9.1-4.1,9.1-9.1c0-5-4.1-9.1-9.1-9.1c-5,0-9.1,4.1-9.1,9.1    C741.7,602.1,745.7,606.1,750.7,606.1z"/>
	<path class="st13" d="M869.1,601.6c2.5,0,4.6-2,4.6-4.6c0-2.5-2-4.6-4.6-4.6c-2.5,0-4.6,2-4.6,4.6    C864.5,599.6,866.5,601.6,869.1,601.6z"/>
	<path class="st13" d="M750.7,601.6c2.5,0,4.6-2,4.6-4.6c0-2.5-2-4.6-4.6-4.6c-2.5,0-4.6,2-4.6,4.6    C746.2,599.6,748.2,601.6,750.7,601.6z"/>
</g>
</g>
</g>
</g>
<g class="sub_fourteen">
<g class="sub_thirteen">
<g class="sub_twelve">
	<path class="st31" d="M642.1,497.9c2-2.2,4.9-3.7,7.9-4.1c5.1-0.7,9,1,12.4,2.3s7.4,1.7,11.6,1.3c4.2-0.4,11.4-1.1,11.4-1.1   l0.6,4.2l-0.7,6.3c0,0-5.5,0.7-8.6,3.3c-3,2.5-3.6,5-3.3,6.1c0.4,1.1,2.3,2.1,4.7,1.7c2.5-0.4,4.4-1.3,4.4-1.3s1.3,1.9-0.7,4.2   c-2.1,2.3-5.5,3-10.1,4.6c-4.6,1.5-7.2,3.4-8.7,6.5c-1.5,3-4.6,8.7-4.6,8.7l-16.6-2.7c0,0-5.4-2.8-8.3-10.4c-2.7-7-1.4-9.8-1.4-9.8   s1.5-5.5,1.5-5.5c1.8-4.9,4.9-9.8,8.2-13.8C641.8,498.2,642,498.1,642.1,497.9z"/>
	<path class="st31 ft_one" d="M635.5,508.3c0,0-2.7,1-7.6,3c-5,2.1-13.7,5.1-20,2.1c-6.3-3-9.5-5.3-11.6-6.8c-1.1-0.9-3.8-2.5-3.6-3.6   c0.3-2.1,8.6-2.7,12.2-4.6c3.6-1.9,8.4-5.9,16-5.7c7.6,0.2,12,2.1,15.6,3.6s6,1.9,6,1.9"/>
	<path class="st23 ft_two" d="M615.9,476.2c-1.1,0.9-1.8,3.7,0.6,7.8c2.5,4.1,5.4,6.6,9.6,8c4.3,1.4,15.6,8,15.6,8l7.6-4.7   c0,0-2.1-7.4-7.8-10.9c-5.8-3.5-14.6-5.4-18.1-6.2C620,477.4,616.9,475.4,615.9,476.2z"/>
	<path class="st3" d="M676.4,510.3c0,0,1.6,1.9,1.8,1.1c0.2-0.8,0.1-3.1,0.1-3.1s0.9,1.5,1.5,2.2s1.3,0.8,1.6-1.1s0.7-2.6,0.7-2.6   s0.6,1.7,1.3,2.6c0.7,1,1.3,1,1.6-0.4s0.5-3,0.5-3l-2.7-1l-5.4,1.5L676.4,510.3z"/>
	<path class="st3" d="M678,518.7c0,0,0.2-1.1,0.3-1.7c0.2-0.9,0.7-0.5,1.4,0.3c0.7,0.9,0.7,1,0.7,1s0.2-0.3,0.4-1.5   c0.2-1.3,0.7-2.2,1.3-1c0.5,0.9,0.6,2,0.6,2l-1.8,2.1L678,518.7z"/>
	<path class="st24 ft_two" d="M625.7,487.4c3.7,0.9,8.8,2.3,13,3.1c4.2,0.8,6.2,1.2,7.6,2s2.5,1.8,2.5,1.8l-6.6,5.1c0,0-9.7-3.9-11.6-5.1   c-1.9-1.2-2.9-1.5-4.6-2.2c-1.7-0.7-4.8-1.5-6.6-3.7s-3.5-5-3.5-5S620.4,486.2,625.7,487.4z"/>
	<path class="st23 ft_four" d="M558.2,567.9c0,0-6.5,0.6-9.2,0.6s-2.7,0-2.7,0s-4.6,3.5-9,5.7c-4.3,2.2-7.9,4.6-12.2,6   c-4.4,1.4-9.6,0.6-8.2-3.8c0,0,6.8-3.8,14.4-12c7.6-8.2,7.9-9.2,9.8-9.5c1.9-0.3,7.4,0.8,11.4-2.7c1.3-1.1,2.3-2.2,3.1-3.2   c1.9-2.4,5.1-3.2,8-2.1l0.6,0.2c8,3.1,8.4,14.3,0.6,17.8L558.2,567.9"/>
	<path class="st26 ft_one" d="M599,504.3c0,0,6.1,0.4,12.4-1.9c6.3-2.3,11.1-3,16.4-1.9c5.3,1.1,9.7,3,10.1,3.8c0.4,0.7-2.3,1.7-4.7,1.9   c-2.5,0.2-7.8,2.5-10.8,3.4c-3,1-7.4,2.3-12,0.7c-4.6-1.5-7.6-3.6-8.6-4C600.7,506,596.5,504.3,599,504.3z"/>
	<path class="st23 ft_six" d="M656.1,559.1c2,0.5,4,0.6,6,0.3c4.5-0.7,13.1-2.3,20.3-5.3c10.3-4.3,11.7-5.7,12.8-8.2s-1.7-3.9-3.6-4.2   c-2.1-0.3-10.5,3.3-10.5,3.3s-9.6,1.1-14.7-0.2c-3-0.8-5.7-1.8-7.5-2.5c-1.5-0.6-3.1-0.6-4.6,0h0c-7.8,3.3-6.9,14.6,1.3,16.6   L656.1,559.1z"/>
	<path class="st24 ft_six" d="M666.2,550.2c3.1,2.9,7.4,3.9,9.6,3.9c2.2,0,6.5-0.1,6.5-0.1s-5.7,2.5-11.3,3.4c-5.7,0.9-10.1,2.4-10.1,2.4   l-5.2-15.1l5.4-1.7C661.1,543.2,662.6,547,666.2,550.2z"/>
	<path class="st24 ft_four" d="M540.1,569.5c1.8-3.3,3.5-6.7,6.3-7.6c2.7-0.9,7.1-5.9,8.4-8.7c1.3-2.7,2.1-5.7,2.1-5.7l0,0   c2.1-0.2,4,0.9,4.9,2.8l1.7,3.4c3.2,6.4-1.3,14-8.4,14.3c-2.6,0.1-4.6,0.2-5.2,0.2c-1.7,0-3.6,0.1-3.6,0.1s-2.7,1.9-3.7,2.6   c-1,0.7-3.4,2.1-3.4,2.1L540.1,569.5z"/>
    <path class="st23 ft_five" d="M560.9,545.5L560.9,545.5c-2.5,1-4.4,3.2-4.9,5.9c0,0.2-0.1,0.4-0.1,0.6c-0.8,4.9-0.8,12-0.8,14.4   s-1.9,3.5-4.9,4.1s-3.5,0.6-7.1,5.7c-3.5,5.2-10.9,14.4-12.8,16.6c-1.9,2.2-3.8,3.5-2.2,5.2c1.7,1.7,3.8,2.2,6.8,0.8s3-1.4,3-1.4   s7.1-4.3,11.4-7.9c4.3-3.5,4.1-4.9,6.5-4.6c2.5,0.3,8.4,3,15.2,1.9c5.1-0.8,10.7-3.5,13.1-4.7c0.8-0.4,1.5-1.1,1.8-2l2.7-6.9   C595.5,555.8,578.3,538.6,560.9,545.5z"/>
	<path class="st23" d="M658.1,540.8l-16.9-2.8c0,0-5.7-6.4-8.3-12.2c-1.9-4.7-0.9-7.9-0.9-7.9s-3.5,3.1-4.3,3.1s-14.7-0.6-29.9,4.1  c-15.2,4.6-28,10-30.8,10.6l-0.8,0.4c-5.7,2.4-5.8,10.5-0.1,13.2l0,0c12.1,5.5,20,18.2,18.8,32.2l0,0c0,0,11.7,3.8,28.8,0.6  c17.1-3.3,22.6-6.3,25-8.2c2.5-1.9,6.5-2.7,6.5-2.7l-0.7-3.5c-2.2-10.8,3.1-21.6,12.9-26.6L658.1,540.8z"/>
	<path class="st23 ft_seven" d="M645,570.9c2.5,0.3,10.6,4.9,23.1,6s16.6,0.8,19.6-0.8c3-1.7,1.9-3.8,0.6-5.2c-1.4-1.4-9.5-2.5-9.5-2.5  s-6.8-2.2-11.1-4.9s-8.4-9.8-9-14.2c-0.6-4.3-0.6-8.8-0.6-8.8h0c-16.4-1.9-25.8,18-14,29.5L645,570.9z"/>
	<path class="st23 ft_three" d="M567.1,535.6c-2.7,0.6-11.1-3.3-13.4-9.8c-2.2-6.5-1.9-8.4,0.8-12.8c2.7-4.3,0.8-2.2,2.7-4.3  c1.9-2.2-2.5-3.3-6.8-3s-6.8,1.7-8.2,4.1c-1.4,2.5-1.4,4.9-1.4,4.9s-7.9,2.2-7.4,9c0.6,6.8,4.1,9,4.1,9s-2.7,3,2.5,8.7  s12.5,5.2,14.7,4.9l1.9,0.2c3.4,0.4,6.6,1.3,9.6,2.7l0,0c5.9-1.9,6.9-9.8,1.7-13.1L567.1,535.6z"/>
	<path class="st4" d="M633.2,514.6c0,0-4.5-1.8-8.7-0.7s-6,4.6-5,10c1.1,5.5,4.7,9.4,9.1,12.6c5.3,3.8,14.7,7.4,19.8,8.4   c5.1,1.1,8.3,2.2,11.5-0.4c3.1-2.6,4.5-4.5,4.4-7s-1.7-3.9-1.7-3.9l-3.1,5.9c0,0-5.5,1.4-17-3.4c-11.5-4.8-15-10.7-16-13.1   c-1-2.5-0.3-4.2,1.3-4.4c1.5-0.1,3,0.4,3,0.4l1.8-1.1L633.2,514.6z"/>
	<path class="st3" d="M622.5,542.3c0.4-1.3-0.6-4,1.7-4.8c2.9-1,3.5-0.3,4.8,1.9s0.6,3.2,1.9,4.1c1.4,0.8,2.3,1.4,4.2,2.3   c1.9,1,2.7,1.8,3.9,1.5c1.3-0.3,3.4-1.1,4.8-1.1c1.4,0,2.9,0.1,3.5,2.1c0.4,1.1,0.5,2.7-0.7,3.7c-1.3,1.1-3,1-3.4,1.3   s0,2.2-0.4,3.3c-0.3,1-1.2,2.1-3,1.9c-2.1-0.2-2.9-0.7-3.3-2.2c-0.3-1.2,0.2-3.1-0.2-3.8s-6.8-4.2-8.2-4.4   c-1.4-0.1-3.3,1.3-4.6,1.5c-1.4,0.3-3.3,0-3.8-1.5c-0.6-1.5-0.5-3.3,0.4-3.9C621.3,543.3,622.5,542.3,622.5,542.3z"/>
	<path class="st23" d="M683,497.2c0,0.7,0.3,1.8,1.9,3.1c1.5,1.4,0.9,1.8,1.7,0.7c0.9-1.1,1.8-2.8,1.6-3.8c-0.2-0.9-1-1.5-1.9-1.4   C685.5,496.1,683,496.1,683,497.2z"/>
	<path class="st23" d="M645.4,506.9c2.2,4.3,6,7.2,10.3,7.9c4.3,0.8,9.3,0.4,11.8-4.6c2.5-5,3.9-12.4,3.9-12.4H668   c0,0-7.9-2.7-11.8-3.7c-3.9-1-5.8-0.6-8.7,0.6c-2.5,1-4.9,3.1-4.9,3.1S643,502.4,645.4,506.9z"/>
	<path class="st24" d="M585.7,581.3c0,0,2.9-2.2,5.3-9c1.3-3.6,1.9-8.2,1.9-8.2s0.2,9,7.9,11.9c7.8,2.9,23.1,1,29.3-0.9   c6.5-2,10.2-3,13.4-3.9c1.3-0.3-3.9,3-10.8,6.1c-6.9,3.1-15.2,4.2-15.2,4.2S601.3,585.3,585.7,581.3z"/>
	<path class="st31 ft_five" d="M527.9,597.3c0.6,1.2,2,1.9,3.3,2.1c1.3,0.2,3.9-0.5,5-2.5s-0.6-5.4-1.9-6.3c-1.3-0.9-3.5,2-4.5,3   S527.2,595.9,527.9,597.3z"/>
	<path class="st31 ft_seven" d="M690.4,574.1c0.3-1.3-0.6-2.3-1.3-2.9c-1-0.8-3.5-1.8-5.7-1c-2.1,0.8-2.7,3.2-2.2,4.7s3.6,1.7,5.1,1.6   c0.4,0,0.9-0.1,1.3-0.2c0.2-0.1-0.5-1.9-0.3-1.8c0.2,0.2,0.9,1.5,1.4,1.4c0.3-0.1,0.8-0.3,1-0.6s-0.4-1.7-0.5-1.8   c-0.1-0.3,0.9,1.3,1,1.1C690.2,574.6,690.4,574.3,690.4,574.1z"/>
	<path class="st31 ft_six" d="M695.2,544.5c-0.2-1.3-1.4-1.9-2.3-2.2c-1.2-0.4-3.9-0.3-5.6,1.2c-1.7,1.5-1.3,4-0.3,5.2   c1,1.3,3.9,0.2,5.3-0.4c0.3-0.2,0.7-0.4,1.1-0.7c0.2-0.2-1.2-1.6-1-1.5c0.3,0.1,1.4,1.1,1.8,0.7c0.2-0.2,0.6-0.6,0.7-0.9   c0.1-0.4-1-1.4-1.1-1.5c-0.2-0.3,1.3,0.9,1.3,0.7C695.2,545,695.2,544.8,695.2,544.5z"/>
	<path class="st31 ft_four" d="M516.3,578.1c0.3,1.3,1.5,2.3,2.7,2.8s4,0.4,5.4-1.3c1.5-1.7,0.6-5.4-0.5-6.5s-3.8,1.1-5.1,1.9   C517.7,575.7,515.9,576.6,516.3,578.1z"/>
	<path class="st27" d="M655.4,503.3c0,0,1.5-1.6,3.7-2.2c2.5-0.7,4.1-0.5,3.4,0.1c-0.7,0.6-2.9,1.6-4.1,3.3   c-0.9,1.2-1.4,0.6-0.9-0.5c0.6-1,0.6-1,0.6-1s-1.1,0.2-1.9,1C655.2,504.7,654.6,504,655.4,503.3z"/>
	<path class="st4" d="M638.6,544.4c0.6-1.2,0.1-2.7-1-3.2s-2.5,0-3.1,1.2s-0.1,2.7,1,3.2C636.7,546.1,638.1,545.6,638.6,544.4z"/>
	<path class="st28 ft_eight" d="M693.2,500.9l2.9-3.3c1.2-1.4,2.6-2.5,4.3-3.4l8.3-4.3l-6.5,7.7c-1.5,1.8-3.4,3.2-5.6,4.1l-2.2,0.9  C693.3,503,692.4,501.8,693.2,500.9zM696.7,509.7l3.9-2c1.6-0.8,3.4-1.3,5.2-1.5l9.3-0.8l-8.9,4.6c-2.1,1.1-4.4,1.6-6.8,1.6l-2.4,0  C696.1,511.7,695.7,510.2,696.7,509.7zM699.6,516.9l4.4-0.4c1.8-0.2,3.6,0,5.4,0.5l9,2.7l-10,1.1c-2.3,0.2-4.7-0.1-6.9-0.9l-2.2-0.9  C698.3,518.6,698.5,517,699.6,516.9z"/>
</g>
</g>
</g>
</svg>