<svg xmlns="http://www.w3.org/2000/svg" xmlns:xlink="http://www.w3.org/1999/xlink" width="1920" height="1080" viewBox="0 0 1920 1080" style="width:100%;height:100%"><defs><animateMotion repeatCount="indefinite" dur="1.2916667s" begin="0" xlink:href="#_R_G_L_12_G_N_1_T_0" fill="freeze" keyTimes="0;0.4516129;0.9677419;1" path="M680 1024 C676.67,1024 660,1024 660,1024 C660,1024 676.67,1024 680,1024 C680,1024 680,1024 680,1024" keyPoints="0;0.5;1;1" keySplines="0.333 0 0.667 1;0.333 0 0.667 1;0 0 0 0" calcMode="spline"/><animateTransform repeatCount="indefinite" dur="1.2916667s" begin="0" xlink:href="#_R_G_L_12_G_N_1_T_0" fill="freeze" attributeName="transform" from="0.51 0.51" to="0.51 0.51" type="scale" additive="sum" keyTimes="0;1" values="0.51 0.51;0.51 0.51" keySplines="0 0 1 1" calcMode="spline"/><animateTransform repeatCount="indefinite" dur="1.2916667s" begin="0" xlink:href="#_R_G_L_12_G_N_1_T_0" fill="freeze" attributeName="transform" from="706.001 -424.833" to="706.001 -424.833" type="translate" additive="sum" keyTimes="0;1" values="706.001 -424.833;706.001 -424.833" keySplines="0 0 1 1" calcMode="spline"/><animateTransform repeatCount="indefinite" dur="1.2916667s" begin="0" xlink:href="#_R_G_L_11_G" fill="freeze" attributeName="transform" from="0" to="0" type="rotate" additive="sum" keyTimes="0;0.4516129;0.9677419;1" values="0;3.237;0;0" keySplines="0.333 0 0.667 1;0.333 0 0.667 1;0 0 0 0" calcMode="spline"/><animateTransform repeatCount="indefinite" dur="1.2916667s" begin="0" xlink:href="#_R_G_L_11_G" fill="freeze" attributeName="transform" from="-448 -472" to="-448 -472" type="translate" additive="sum" keyTimes="0;1" values="-448 -472;-448 -472" keySplines="0 0 1 1" calcMode="spline"/><animateMotion repeatCount="indefinite" dur="1.2916667s" begin="0" xlink:href="#_R_G_L_10_G_N_2_T_0" fill="freeze" keyTimes="0;0.4516129;0.9677419;1" path="M240 969.5 C247,969.5 282,969.5 282,969.5 C282,969.5 247,969.5 240,969.5 C240,969.5 240,969.5 240,969.5" keyPoints="0;0.5;1;1" keySplines="0.333 0 0.667 1;0.333 0 0.667 1;0 0 0 0" calcMode="spline"/><animateTransform repeatCount="indefinite" dur="1.2916667s" begin="0" xlink:href="#_R_G_L_10_G_N_2_T_0" fill="freeze" attributeName="transform" from="706.001 -424.833" to="706.001 -424.833" type="translate" additive="sum" keyTimes="0;1" values="706.001 -424.833;706.001 -424.833" keySplines="0 0 1 1" calcMode="spline"/><animateTransform repeatCount="indefinite" dur="1.2916667s" begin="0" xlink:href="#_R_G_L_9_G" fill="freeze" attributeName="transform" from="0" to="0" type="rotate" additive="sum" keyTimes="0;0.4516129;0.9677419;1" values="0;-9.999;0;0" keySplines="0.333 0 0.667 1;0.333 0 0.667 1;0 0 0 0" calcMode="spline"/><animateTransform repeatCount="indefinite" dur="1.2916667s" begin="0" xlink:href="#_R_G_L_9_G" fill="freeze" attributeName="transform" from="-400 -468" to="-400 -468" type="translate" additive="sum" keyTimes="0;1" values="-400 -468;-400 -468" keySplines="0 0 1 1" calcMode="spline"/><animateMotion repeatCount="indefinite" dur="1.2916667s" begin="0" xlink:href="#_R_G_L_8_G" fill="freeze" keyTimes="0;0.3870968;0.9677419;1" path="M471 475.95 C469,477.62 459,485.95 459,485.95 C459,485.95 469,477.62 471,475.95 C471,475.95 471,475.95 471,475.95" keyPoints="0;0.5;1;1" keySplines="0.333 0 0.667 1;0.333 0 0.667 1;0 0 0 0" calcMode="spline"/><animateTransform repeatCount="indefinite" dur="1.2916667s" begin="0" xlink:href="#_R_G_L_8_G" fill="freeze" attributeName="transform" from=".094" to=".094" type="rotate" additive="sum" keyTimes="0;1" values="0.094;0.094" keySplines="0 0 1 1" calcMode="spline"/><animateTransform repeatCount="indefinite" dur="1.2916667s" begin="0" xlink:href="#_R_G_L_8_G" fill="freeze" attributeName="transform" from="-471 -476" to="-471 -476" type="translate" additive="sum" keyTimes="0;1" values="-471 -476;-471 -476" keySplines="0 0 1 1" calcMode="spline"/><animateMotion repeatCount="indefinite" dur="1.2916667s" begin="0" xlink:href="#_R_G_L_7_G_N_9_T_0" fill="freeze" keyTimes="0;0.3870968;0.9677419;1" path="M471 475.95 C469,477.62 459,485.95 459,485.95 C459,485.95 469,477.62 471,475.95 C471,475.95 471,475.95 471,475.95" keyPoints="0;0.5;1;1" keySplines="0.333 0 0.667 1;0.333 0 0.667 1;0 0 0 0" calcMode="spline"/><animateTransform repeatCount="indefinite" dur="1.2916667s" begin="0" xlink:href="#_R_G_L_7_G_N_9_T_0" fill="freeze" attributeName="transform" from=".094" to=".094" type="rotate" additive="sum" keyTimes="0;1" values="0.094;0.094" keySplines="0 0 1 1" calcMode="spline"/><animateTransform repeatCount="indefinite" dur="1.2916667s" begin="0" xlink:href="#_R_G_L_7_G_N_9_T_0" fill="freeze" attributeName="transform" from="-471 -476" to="-471 -476" type="translate" additive="sum" keyTimes="0;1" values="-471 -476;-471 -476" keySplines="0 0 1 1" calcMode="spline"/><animateMotion repeatCount="indefinite" dur="1.2916667s" begin="0" xlink:href="#_R_G_L_6_G" fill="freeze" keyTimes="0;0.3870968;0.9677419;1" path="M824 772 C824,823.33 824,1080 824,1080 C824,1080 824,823.33 824,772 C824,772 824,772 824,772" keyPoints="0;0.5;1;1" keySplines="0.333 0 0.667 1;0.333 0 0.667 1;0 0 0 0" calcMode="spline"/><animateTransform repeatCount="indefinite" dur="1.2916667s" begin="0" xlink:href="#_R_G_L_6_G" fill="freeze" attributeName="transform" from="1 1" to="1 1" type="scale" additive="sum" keyTimes="0;0.1935484;0.3870968;0.7096774;0.9677419;1" values="1 1;0.8300000000000001 1;1.025 0.5700000000000001;0.8300000000000001 1;1 1;1 1" keySplines="0.333 0 0.667 1;0.333 0 0.667 1;0.333 0 0.667 1;0.333 0 0.667 1;0 0 0 0" calcMode="spline"/><animateTransform repeatCount="indefinite" dur="1.2916667s" begin="0" xlink:href="#_R_G_L_6_G" fill="freeze" attributeName="transform" from="-824 -816" to="-824 -816" type="translate" additive="sum" keyTimes="0;1" values="-824 -816;-824 -816" keySplines="0 0 1 1" calcMode="spline"/><animateTransform repeatCount="indefinite" dur="1.2916667s" begin="0" xlink:href="#_R_G_L_4_G" fill="freeze" attributeName="transform" from="0" to="0" type="rotate" additive="sum" keyTimes="0;0.3870968;0.9677419;1" values="0;7.114;0;0" keySplines="0.333 0 0.667 1;0.333 0 0.667 1;0 0 0 0" calcMode="spline"/><animateTransform repeatCount="indefinite" dur="1.2916667s" begin="0" xlink:href="#_R_G_L_4_G" fill="freeze" attributeName="transform" from="-531.797 -416.704" to="-531.797 -416.704" type="translate" additive="sum" keyTimes="0;1" values="-531.797 -416.704;-531.797 -416.704" keySplines="0 0 1 1" calcMode="spline"/><animateMotion repeatCount="indefinite" dur="1.2916667s" begin="0" xlink:href="#_R_G_L_4_G_N_8_N_9_T_0" fill="freeze" keyTimes="0;0.3870968;0.9677419;1" path="M471 475.95 C469,477.62 459,485.95 459,485.95 C459,485.95 469,477.62 471,475.95 C471,475.95 471,475.95 471,475.95" keyPoints="0;0.5;1;1" keySplines="0.333 0 0.667 1;0.333 0 0.667 1;0 0 0 0" calcMode="spline"/><animateTransform repeatCount="indefinite" dur="1.2916667s" begin="0" xlink:href="#_R_G_L_4_G_N_8_N_9_T_0" fill="freeze" attributeName="transform" from=".094" to=".094" type="rotate" additive="sum" keyTimes="0;1" values="0.094;0.094" keySplines="0 0 1 1" calcMode="spline"/><animateTransform repeatCount="indefinite" dur="1.2916667s" begin="0" xlink:href="#_R_G_L_4_G_N_8_N_9_T_0" fill="freeze" attributeName="transform" from="-471 -476" to="-471 -476" type="translate" additive="sum" keyTimes="0;1" values="-471 -476;-471 -476" keySplines="0 0 1 1" calcMode="spline"/><animateTransform repeatCount="indefinite" dur="1.2916667s" begin="0" xlink:href="#_R_G_L_3_G" fill="freeze" attributeName="transform" from="-23.306" to="-23.306" type="rotate" additive="sum" keyTimes="0;0.1935484;0.3870968;0.7096774;0.9677419;1" values="-23.306;-12.576;-7.16;-12.576;-23.306;-23.306" keySplines="0.333 0 0.667 1;0.333 0 0.667 1;0.333 0 0.667 1;0.333 0 0.667 1;0 0 0 0" calcMode="spline"/><animateTransform repeatCount="indefinite" dur="1.2916667s" begin="0" xlink:href="#_R_G_L_3_G" fill="freeze" attributeName="transform" from="-722.007 -544.391" to="-722.007 -544.391" type="translate" additive="sum" keyTimes="0;1" values="-722.007 -544.391;-722.007 -544.391" keySplines="0 0 1 1" calcMode="spline"/><animateTransform repeatCount="indefinite" dur="1.2916667s" begin="0" xlink:href="#_R_G_L_3_G_N_5_T_0" fill="freeze" attributeName="transform" from="0" to="0" type="rotate" additive="sum" keyTimes="0;0.3870968;0.9677419;1" values="0;7.114;0;0" keySplines="0.333 0 0.667 1;0.333 0 0.667 1;0 0 0 0" calcMode="spline"/><animateTransform repeatCount="indefinite" dur="1.2916667s" begin="0" xlink:href="#_R_G_L_3_G_N_5_T_0" fill="freeze" attributeName="transform" from="-531.797 -416.704" to="-531.797 -416.704" type="translate" additive="sum" keyTimes="0;1" values="-531.797 -416.704;-531.797 -416.704" keySplines="0 0 1 1" calcMode="spline"/><animateMotion repeatCount="indefinite" dur="1.2916667s" begin="0" xlink:href="#_R_G_L_3_G_N_5_N_8_N_9_T_0" fill="freeze" keyTimes="0;0.3870968;0.9677419;1" path="M471 475.95 C469,477.62 459,485.95 459,485.95 C459,485.95 469,477.62 471,475.95 C471,475.95 471,475.95 471,475.95" keyPoints="0;0.5;1;1" keySplines="0.333 0 0.667 1;0.333 0 0.667 1;0 0 0 0" calcMode="spline"/><animateTransform repeatCount="indefinite" dur="1.2916667s" begin="0" xlink:href="#_R_G_L_3_G_N_5_N_8_N_9_T_0" fill="freeze" attributeName="transform" from=".094" to=".094" type="rotate" additive="sum" keyTimes="0;1" values="0.094;0.094" keySplines="0 0 1 1" calcMode="spline"/><animateTransform repeatCount="indefinite" dur="1.2916667s" begin="0" xlink:href="#_R_G_L_3_G_N_5_N_8_N_9_T_0" fill="freeze" attributeName="transform" from="-471 -476" to="-471 -476" type="translate" additive="sum" keyTimes="0;1" values="-471 -476;-471 -476" keySplines="0 0 1 1" calcMode="spline"/><animateMotion repeatCount="indefinite" dur="1.2916667s" begin="0" xlink:href="#_R_G_L_2_G_N_9_T_0" fill="freeze" keyTimes="0;0.3870968;0.9677419;1" path="M471 475.95 C469,477.62 459,485.95 459,485.95 C459,485.95 469,477.62 471,475.95 C471,475.95 471,475.95 471,475.95" keyPoints="0;0.5;1;1" keySplines="0.333 0 0.667 1;0.333 0 0.667 1;0 0 0 0" calcMode="spline"/><animateTransform repeatCount="indefinite" dur="1.2916667s" begin="0" xlink:href="#_R_G_L_2_G_N_9_T_0" fill="freeze" attributeName="transform" from=".094" to=".094" type="rotate" additive="sum" keyTimes="0;1" values="0.094;0.094" keySplines="0 0 1 1" calcMode="spline"/><animateTransform repeatCount="indefinite" dur="1.2916667s" begin="0" xlink:href="#_R_G_L_2_G_N_9_T_0" fill="freeze" attributeName="transform" from="-471 -476" to="-471 -476" type="translate" additive="sum" keyTimes="0;1" values="-471 -476;-471 -476" keySplines="0 0 1 1" calcMode="spline"/><animateMotion repeatCount="indefinite" dur="1.2916667s" begin="0" xlink:href="#_R_G_L_1_G" fill="freeze" keyTimes="0;0.4516129;0.9677419;1" path="M240 969.5 C247,969.5 282,969.5 282,969.5 C282,969.5 247,969.5 240,969.5 C240,969.5 240,969.5 240,969.5" keyPoints="0;0.5;1;1" keySplines="0.333 0 0.667 1;0.333 0 0.667 1;0 0 0 0" calcMode="spline"/><animateTransform repeatCount="indefinite" dur="1.2916667s" begin="0" xlink:href="#_R_G_L_1_G" fill="freeze" attributeName="transform" from="706.001 -424.833" to="706.001 -424.833" type="translate" additive="sum" keyTimes="0;1" values="706.001 -424.833;706.001 -424.833" keySplines="0 0 1 1" calcMode="spline"/><animateMotion repeatCount="indefinite" dur="1.2916667s" begin="0" xlink:href="#_R_G_L_0_G" fill="freeze" keyTimes="0;0.4516129;0.9677419;1" path="M680 1024 C676.67,1024 660,1024 660,1024 C660,1024 676.67,1024 680,1024 C680,1024 680,1024 680,1024" keyPoints="0;0.5;1;1" keySplines="0.333 0 0.667 1;0.333 0 0.667 1;0 0 0 0" calcMode="spline"/><animateTransform repeatCount="indefinite" dur="1.2916667s" begin="0" xlink:href="#_R_G_L_0_G" fill="freeze" attributeName="transform" from="0.51 0.51" to="0.51 0.51" type="scale" additive="sum" keyTimes="0;1" values="0.51 0.51;0.51 0.51" keySplines="0 0 1 1" calcMode="spline"/><animateTransform repeatCount="indefinite" dur="1.2916667s" begin="0" xlink:href="#_R_G_L_0_G" fill="freeze" attributeName="transform" from="706.001 -424.833" to="706.001 -424.833" type="translate" additive="sum" keyTimes="0;1" values="706.001 -424.833;706.001 -424.833" keySplines="0 0 1 1" calcMode="spline"/><animate attributeType="XML" attributeName="opacity" dur="1s" from="0" to="1" xlink:href="#time_group"/></defs><g id="_R_G"><g id="_R_G_L_13_G"><rect id="_R_G_L_13_G_S" fill="#f2f2f2" width="1920" height="1080"/></g><g id="_R_G_L_12_G_N_1_T_0"><g id="_R_G_L_12_G" transform="translate(-156.981, -524.186) scale(1.96078, 1.96078) translate(-960, -540)"><path id="_R_G_L_12_G_D_0_P_0" fill="#855338" fill-opacity="1" fill-rule="nonzero" d="M739.89 779.54C733.12 789.44 722.33 795.86 710.48 797.7 685.31 801.58 665.32 794 646.3 779.28 646.02 779.07 645.73 778.85 645.45 778.63c-23.71-18.64-56.75-61.05-56.75-61.05C587.96 716.45 587.29 715.3 586.7 714.14c-20.34-39.46 41.55-90.29 80.76-62.85 87.65 81.1 83.86 111.54 72.43 128.25z"/><path id="_R_G_L_12_G_D_1_P_0" fill="#855338" fill-opacity="1" fill-rule="nonzero" d="M727.3 741.26C741.01 749.03 746.75 765.91 740.83 780.51 732.36 801.37 714.91 824.75 703.34 852.04 700.97 857.61 697.91 865.72 694.41 875.47 679.8 916.12 657.58 985.45 646.75 1019.59 642.87 1031.83 631.99 1040.51 619.2 1041.61L617.15 1041.78C615.01 1041.97 612.87 1041.93 610.74 1041.68 594.75 1039.8 582.7 1026.25 582.7 1010.15V1000.26C582.7 997.64 583.02 995.03 583.66 992.49 587.59 976.95 602.68 917.44 614 875.47 617.52 862.37 620.69 850.99 623.03 843.18 623.29 842.31 623.52 841.41 623.71 840.52 631.25 804.43 638.87 784.72 642.69 776.31 643.69 774.08 644.43 772.64 644.83 771.9 645.12 771.35 645.39 770.79 645.65 770.23 646.9 767.57 648.19 765.07 649.53 762.74 671.83 723.79 706.15 729.27 727.3 741.26z"/><path id="_R_G_L_12_G_D_2_P_0" fill="#e8d8c1" fill-opacity="1" fill-rule="nonzero" d="M694.41 875.47c-19.93 55.47-54.04 164.33-54.04 164.33S613.94 1042.06 613.94 1042.06 582.7 1038.39 582.7 1038.39 582.7 996.32 582.7 996.32s18.18-72.21 31.3-120.85h80.41z"/><path id="_R_G_L_12_G_D_3_P_0" stroke="#161616" stroke-linecap="round" stroke-linejoin="round" fill="none" stroke-width="2" stroke-opacity="1" d="M609.97 890.54S616.36 890.77 616.36 890.77 617.77 890.82 617.77 890.82 627.68 891.18 627.68 891.18 641.21 891.67 641.21 891.67 655.9 892.21 655.9 892.21 688.11 893.38 688.11 893.38"/><path id="_R_G_L_12_G_D_4_P_0" stroke="#161616" stroke-linecap="round" stroke-linejoin="round" fill="none" stroke-width="2" stroke-opacity="1" d="M641.21 891.67C645.36 892.34 622.41 985.6 610.44 1020.04"/><path id="_R_G_L_12_G_D_5_P_0" stroke="#161616" stroke-linecap="round" stroke-linejoin="round" fill="none" stroke-width="2" stroke-opacity="1" d="M658.33 892.33l-35.58 134.89"/></g></g><g id="_R_G_L_11_G" transform="translate(448, 472)"><path id="_R_G_L_11_G_D_0_P_0" fill="#fff" fill-opacity="1" fill-rule="nonzero" d="M566.45 466S562.87 484.38 580.23 506.85C597.6 529.32 698.7 674.08 698.7 674.08S702.53 679.45 699.72 681.49C696.92 683.53 646.11 702.17 627.72 728.47c-17.87 17.61-21.95 20.68-21.95 20.68S536.83 671.02 536.83 671.02 413.18 531 450.5 475.01C483.21 431.28 563.89 464.47 566.45 466z"/><path id="_R_G_L_11_G_D_1_P_0" stroke="#000" stroke-linecap="round" stroke-linejoin="round" fill="none" stroke-width="3" stroke-opacity="1" d="M566.45 466S562.87 484.38 580.23 506.85C597.6 529.32 698.7 674.08 698.7 674.08S702.53 679.45 699.72 681.49C696.92 683.53 646.11 702.17 627.72 728.47c-17.87 17.61-21.95 20.68-21.95 20.68S536.83 671.02 536.83 671.02 413.18 531 450.5 475.01C483.21 431.28 563.89 464.47 566.45 466z"/><path id="_R_G_L_11_G_D_2_P_0" fill="#24487c" fill-opacity="1" fill-rule="nonzero" d="M657.85 618.34S575.81 673.79 557.43 693.72C564.24 703.79 566.96 706.51 566.96 706.51s100.08-73.87 100.08-73.87S667.04 622.42 657.85 618.34z"/><path id="_R_G_L_11_G_D_3_P_0" fill="#25467b" fill-opacity="1" fill-rule="nonzero" d="M676.92 645.23S593.17 698.68 575.13 716.38C582.28 724.55 601.34 747.36 603.04 748.72 604.75 750.08 621.77 736.13 621.77 736.13S630.96 720.47 642.87 714C654.11 704.81 671.47 695.28 671.47 695.28s30.98-16 30.98-16S676.92 645.23 676.92 645.23z"/></g><g id="_R_G_L_10_G_N_2_T_0"><g id="_R_G_L_10_G" transform="translate(13.999, -4.667) translate(-960, -540)"><path id="_R_G_L_10_G_D_0_P_0" fill="#2b2726" fill-opacity="1" fill-rule="nonzero" d="M382.11 716.72S369.45 714.4 374.82 699.66C391.75 653.25 480.25 667.26 520.85 699.18 542.04 716.54 533.6 742.6 533.6 742.6S524.32 746.85 491.38 746.09C458.45 745.32 382.11 716.72 382.11 716.72z"/><path id="_R_G_L_10_G_D_1_P_0" fill="#845237" fill-opacity="1" fill-rule="nonzero" d="M407.98 703.79S330.02 732.72 282.36 766.77C234.7 800.81 174.79 856.3 174.79 856.3S138.7 898.85 138.7 898.85s28.94 105.87 101.11 73.53c55.83-62.98 88.51-102.12 101.45-110.98C354.19 852.55 442.36 786.17 442.36 786.17S490.02 756.55 495.13 737.83C500.23 719.11 500.57 711.62 500.57 711.62S451.55 678.94 407.98 703.79z"/><path id="_R_G_L_10_G_D_2_P_0" fill="#e8d8c8" fill-opacity="1" fill-rule="nonzero" d="M281.7 767.24C285.23 765.14 352.83 835.53 358.96 847.79 344.32 859.02 324.57 875.7 324.57 875.7s-84.76 96.68-84.76 96.68-106.89-22.12-101.11-55.14C144.49 884.21 138.47 900.72 170.04 861.9c17.82-21.93 109.28-93.25 111.66-94.66z"/><path id="_R_G_L_10_G_D_3_P_0" fill="#26291e" fill-opacity="1" fill-rule="nonzero" d="M262.64 781.48s63.81 60.01 78.62 79.93L337.51 864.81S258.66 784.58 258.66 784.58 262.64 781.48 262.64 781.48z"/><path id="_R_G_L_10_G_D_4_P_0" fill="#26291e" fill-opacity="1" fill-rule="nonzero" d="M296.68 821.25S225.84 884.82 200.12 923.55C198.55 925.92 201.88 928.44 203.75 926.3 224.84 902.14 285.96 835.72 297.61 826.08 298.77 825.12 299.06 823.46 297.92 822.47 296.32 821.08 295.36 822.45 295.36 822.45"/><path id="_R_G_L_10_G_D_5_P_0" fill="#26291e" fill-opacity="1" fill-rule="nonzero" d="M280.34 804.92S209.5 868.49 183.78 907.21C182.21 909.58 185.54 912.1 187.41 909.96 208.5 885.8 269.62 819.38 281.27 809.74 282.43 808.78 282.72 807.12 281.58 806.13 279.98 804.74 279.01 806.11 279.01 806.11"/></g></g><g id="_R_G_L_9_G" transform="translate(400, 468)"><path id="_R_G_L_9_G_D_0_P_0" fill="#fff" fill-opacity="1" fill-rule="nonzero" d="M401.51 468.04S387.21 518.6 410.02 561.15C407.64 569.66 373.94 705.83 373.94 705.83S451.21 704.47 459.04 705.83C466.87 707.19 471.64 712.64 471.64 712.64S533.6 742.6 533.6 742.6 536.66 740.21 536.66 735.11C536.66 730 539.72 580.89 550.28 509.74 558.79 477.87 562.87 468.04 562.87 468.04s-108.59-20.59-161.36.0z"/><path id="_R_G_L_9_G_D_1_P_0" stroke="#000" stroke-linecap="round" stroke-linejoin="round" fill="none" stroke-width="3" stroke-opacity="1" d="M401.51 468.04S387.21 518.6 410.02 561.15C407.64 569.66 373.94 705.83 373.94 705.83S451.21 704.47 459.04 705.83C466.87 707.19 471.64 712.64 471.64 712.64S533.6 742.6 533.6 742.6 536.66 740.21 536.66 735.11C536.66 730 539.72 580.89 550.28 509.74 558.79 477.87 562.87 468.04 562.87 468.04s-108.59-20.59-161.36.0z"/><path id="_R_G_L_9_G_D_2_P_0" fill="#254880" fill-opacity="1" fill-rule="nonzero" d="M393.85 624.3s111.08 10.21 144.39 22.98L538.87 668.72S411.72 642.68 388.75 644.21C391.81 629.4 393.85 624.3 393.85 624.3z"/><path id="_R_G_L_9_G_D_3_P_0" fill="#254880" fill-opacity="1" fill-rule="nonzero" d="M538.87 689.92S494.11 666 385.51 657.49C384.15 666 373.6 701.4 373.6 701.4S372.23 707.53 377 707.87s81.02.0 81.02.0S475.72 715.36 475.72 715.36 531.55 742.26 531.55 742.26 536.32 741.23 535.98 736.47C535.64 731.7 538.87 689.92 538.87 689.92z"/></g><g id="_R_G_L_8_G"><path id="_R_G_L_8_G_D_0_P_0" fill="#fff" fill-opacity="1" fill-rule="nonzero" d="M532.77 189.09s-38.32 19.72-38.32 19.72-62.81 96.85-66.9 178.55c0 0-22.21 22.3-26.21 33.19C399.64 425.41 398.11 434.09 403.55 439.62 407.03 443.15 404.52 450.17 402.25 454.78 400.68 457.99 400.24 461.63 400.93 465.13L401.51 468.04s99.32 18.13 138.89 6.13C579.98 462.17 585.34 337.83 585.34 337.83S591.98 307.19 591.98 307.19 594.53 300.38 593.51 286.94C592.49 273.49 588.4 240.81 588.4 240.81S584.66 206.6 568.83 196.21C555.38 187.36 534.37 188.26 532.77 189.09z"/><path id="_R_G_L_8_G_D_1_P_0" stroke="#000" stroke-linecap="round" stroke-linejoin="round" fill="none" stroke-width="3" stroke-opacity="1" d="M532.77 189.09s-38.32 19.72-38.32 19.72-62.81 96.85-66.9 178.55c0 0-22.21 22.3-26.21 33.19C399.64 425.41 398.11 434.09 403.55 439.62 407.03 443.15 404.52 450.17 402.25 454.78 400.68 457.99 400.24 461.63 400.93 465.13L401.51 468.04s99.32 18.13 138.89 6.13C579.98 462.17 585.34 337.83 585.34 337.83S591.98 307.19 591.98 307.19 594.53 300.38 593.51 286.94C592.49 273.49 588.4 240.81 588.4 240.81S584.66 206.6 568.83 196.21C555.38 187.36 534.37 188.26 532.77 189.09z"/><path id="_R_G_L_8_G_D_2_P_0" fill="#244673" fill-opacity="1" fill-rule="nonzero" d="M462.53 267.23S481.55 276.68 468.02 296.21C460.74 306.81 453.34 305.91 443.51 319.06 441.47 321.11 441.34 326.08 441.34 326.08S457.11 328 457.11 328s-2.37 11.23-2.37 11.23S437.64 337.7 437.64 337.7 445.3 309.49 450.66 295.83C451.94 295.7 463.17 290.98 459.47 284.47 457.98 282.28 456.55 281.81 455.65 281.78 455.27 281.77 455.05 281.35 455.22 281.01L462.53 267.23z"/></g><g id="_R_G_L_7_G_N_9_T_0"><g id="_R_G_L_7_G"><path id="_R_G_L_7_G_D_0_P_0" fill="#845237" fill-opacity="1" fill-rule="nonzero" d="M546.87 195.53S507.38 195.19 501.94 243.53C501.94 255.79 508.39 275.87 508.39 275.87s-13.26 29.96-15.65 42.56C490.36 331.02 491.38 333.4 492.74 340.89 494.11 348.38 500.2 389.23 508.39 413.06 509.09 424.98 513.34 446.6 513.34 446.6S517.05 450.85 522.7 455.28C528.35 459.7 587.13 457.83 567.98 400.89 568.23 396.3 583.55 355.7 583.55 355.7S585.6 340.13 585.09 335.28C584.57 330.42 576.4 296.72 569.26 282.68 567.72 279.62 571.55 275.28 571.55 275.28S581.51 254.85 581.51 254.85 582.18 223.81 569.77 206.85c-13.79-13.28-22.9-11.32-22.9-11.32z"/><path id="_R_G_L_7_G_D_1_P_0" fill="#0a0a0a" fill-opacity="1" fill-rule="nonzero" d="M512.93 288.25C504.37 295.9 497.22 309.79 493 319.31 495.19 305.55 500.03 291.19 508.8 276.81 508.8 276.81 507.37 272.25 506.04 265.29 508.14 265.84 519.6 295.24 519.6 295.24 520.02 299.68 514.41 289.09 512.93 288.25z"/></g></g><g id="_R_G_L_6_G"><path id="_R_G_L_6_G_D_0_P_0" fill="#dc5c43" fill-opacity="1" fill-rule="nonzero" d="M965.21 668.72c0 78.81-63.89 142.7-142.69 142.7-78.81.0-142.7-63.89-142.7-142.7C679.82 589.92 743.71 526.03 822.52 526.03 901.32 526.03 965.21 589.92 965.21 668.72z"/><path id="_R_G_L_6_G_D_1_P_0" fill="#000" fill-opacity="1" fill-rule="nonzero" d="M941.1 602.85S811.4 683.53 748.08 711.11c-45.45 22.98-53.26 26.55-53.26 26.55S693.44 741.41 698.72 738.68C703.99 735.96 749.78 713.83 749.78 713.83S878.29 648.81 943.31 605.92C943.65 605.58 943.82 603.02 941.1 602.85z"/><path id="_R_G_L_6_G_D_2_P_0" fill="#000" fill-opacity="1" fill-rule="nonzero" d="M963.82 679.96S942.63 717.53 889.53 728.23C860.67 733.83 837.7 728.23 805.78 730.26 790.47 731.23 767.84 740.08 762.89 743.28 757.93 746.47 734.61 759.94 739.72 784.19 739.69 785.28 742.01 786.49 742.01 786.49S739.71 761.44 762.63 748.64C783.44 737.02 795.57 731.28 837.44 734.34 879.31 737.41 907.14 731.79 930.63 715.96c23.49-15.83 33.83-30.13 33.83-30.13S966.12 679.96 963.82 679.96z"/><path id="_R_G_L_6_G_D_3_P_0" fill="#000" fill-opacity="1" fill-rule="nonzero" d="M889.91 543.41S794.8 651.51 739.7 689.49C739.65 689.53 739.61 689.56 739.55 689.59 732.06 693.62 688.88 686.93 682.06 685.79 681.61 685.72 680.89 685.38 680.89 685.83L681.21 689.16C681.21 689.5 681.45 689.8 681.78 689.87 687.07 691.03 724.89 698.88 739.23 693.58 765.44 683.88 871.14 578.6 890.93 544.77 890.93 544.77 891.59 542.47 889.91 543.41z"/><path id="_R_G_L_6_G_D_4_P_0" fill="#000" fill-opacity="1" fill-rule="nonzero" d="M708.46 582.89s21.24 109.52 47.79 151.68C768.76 755.53 795.23 795.19 828.42 811.02H831.99s-30.46-11.49-63.1-65.09C742.4 702.43 728.04 648.72 728.04 648.72S710.12 580.79 710.12 580.79 708.46 582.89 708.46 582.89z"/></g><g id="_R_G_L_5_G" transform="translate(982, 596) translate(-960, -540)"><path id="_R_G_L_5_G_D_0_P_0" fill="#c9e71d" fill-opacity="1" fill-rule="nonzero" d="M1093.71 680.46C1093.71 641.5 1125.3 609.91 1164.26 609.91h366.83C1570.05 609.91 1601.63 641.5 1601.63 680.46 1601.63 719.42 1570.05 751 1531.09 751H1164.26c-38.96.0-70.55-31.58-70.55-70.54z"/><path id="_R_G_L_5_G_D_1_P_0" fill="#000" fill-opacity="1" fill-rule="nonzero" d="M1485.09 702.84s10.77-29.77 10.77-29.77 10.98 29.77 10.98 29.77S1512.78 702.84 1512.78 702.84s13.29-39.72 13.29-39.72S1518.65 663.12 1518.65 663.12 1509.59 692.96 1509.59 692.96s-11.28-29.84-11.28-29.84S1493.33 663.12 1493.33 663.12 1482.49 692.96 1482.49 692.96 1473.07 663.12 1473.07 663.12s-7.5.0-7.5.0S1479.23 702.84 1479.23 702.84 1485.09 702.84 1485.09 702.84zM1455.49 682.94C1455.49 686.88 1454.15 690.29 1451.48 693.11 1448.81 695.93 1445.54 697.34 1441.75 697.34 1437.97 697.34 1434.7 695.93 1432.03 693.11 1429.36 690.29 1428.02 686.88 1428.02 682.94 1428.02 679.01 1429.36 675.67 1432.03 672.92 1434.7 670.1 1437.97 668.69 1441.75 668.69 1445.54 668.69 1448.81 670.1 1451.48 672.92 1454.15 675.67 1455.49 679.01 1455.49 682.94zM1441.75 703.88C1447.77 703.88 1452.74 701.87 1456.68 697.86 1460.61 693.78 1462.61 688.81 1462.61 682.94 1462.61 677.15 1460.61 672.25 1456.68 668.17 1452.74 664.09 1447.77 662.08 1441.75 662.08 1435.67 662.08 1430.62 664.09 1426.69 668.17 1422.75 672.18 1420.82 677.08 1420.82 682.94 1420.82 688.81 1422.75 693.78 1426.69 697.86 1430.62 701.87 1435.67 703.88 1441.75 703.88zM1384.51 702.91s0-22.05.0-22.05C1384.51 677.3 1385.55 674.41 1387.55 672.1 1389.63 669.8 1392.3 668.69 1395.5 668.69 1401.51 668.69 1405.67 673.07 1405.67 680.79v22.12S1412.72 702.91 1412.72 702.91s0-24.12.0-24.12C1412.72 673.37 1411.23 669.28 1408.19 666.39 1405.15 663.49 1401.43 662.08 1396.98 662.08 1391.12 662.08 1386.88 664.31 1384.36 668.76V663.12S1377.38 663.12 1377.38 663.12s0 39.79.0 39.79S1384.51 702.91 1384.51 702.91zM1343.38 682.94C1343.38 687.03 1342.12 690.44 1339.6 693.19 1337.07 695.93 1333.81 697.34 1329.73 697.34 1325.64 697.34 1322.38 695.93 1319.85 693.19 1317.4 690.44 1316.14 687.03 1316.14 682.94 1316.14 679.01 1317.4 675.59 1319.85 672.85 1322.38 670.1 1325.64 668.69 1329.73 668.69 1333.81 668.69 1337.07 670.1 1339.6 672.85 1342.12 675.59 1343.38 678.93 1343.38 682.94zM1330.62 662.16C1324.9 662.16 1320.15 664.46 1316.44 669.14V663.12S1309.31 663.12 1309.31 663.12s0 56.2.0 56.2S1316.44 719.32 1316.44 719.32s0-22.2.0-22.2C1320.07 701.65 1324.75 703.88 1330.54 703.88 1336.26 703.88 1341.01 701.87 1344.79 697.86 1348.58 693.78 1350.51 688.88 1350.51 683.02 1350.51 677.23 1348.58 672.33 1344.79 668.24 1341.01 664.16 1336.26 662.16 1330.62 662.16zM1293.68 682.94C1293.68 686.88 1292.35 690.29 1289.67 693.11 1287 695.93 1283.74 697.34 1279.95 697.34S1272.9 695.93 1270.22 693.11C1267.55 690.29 1266.22 686.88 1266.22 682.94 1266.22 679.01 1267.55 675.67 1270.22 672.92 1272.9 670.1 1276.16 668.69 1279.95 668.69S1287 670.1 1289.67 672.92C1292.35 675.67 1293.68 679.01 1293.68 682.94zM1279.95 703.88C1285.96 703.88 1290.94 701.87 1294.87 697.86 1298.8 693.78 1300.81 688.81 1300.81 682.94 1300.81 677.15 1298.8 672.25 1294.87 668.17 1290.94 664.09 1285.96 662.08 1279.95 662.08 1273.86 662.08 1268.81 664.09 1264.88 668.17 1260.95 672.18 1259.02 677.08 1259.02 682.94 1259.02 688.81 1260.95 693.78 1264.88 697.86 1268.81 701.87 1273.86 703.88 1279.95 703.88zM1222.85 702.91s0-22.12.0-22.12C1222.85 673.66 1227.3 668.69 1233.76 668.69 1239.77 668.69 1243.86 673 1243.86 680.79v22.12S1250.91 702.91 1250.91 702.91s0-24.12.0-24.12C1250.91 673.37 1249.42 669.28 1246.38 666.39 1243.34 663.49 1239.63 662.08 1235.25 662.08 1229.83 662.08 1225.08 664.46 1222.63 668.02v-21.3S1215.72 646.72 1215.72 646.72 1215.72 702.91 1215.72 702.91 1222.85 702.91 1222.85 702.91zM1189.04 703.8C1194.23 703.8 1198.54 702.32 1201.96 699.42 1205.44 696.53 1207.15 692.74 1207.15 688.07 1207.15 682.72 1204.48 678.49 1199.21 675.3 1197.95 674.55 1195.65 673.37 1192.3 671.81 1188.96 670.25 1186.89 669.14 1185.92 668.54 1182.8 666.69 1181.24 664.38 1181.24 661.49 1181.24 657.04 1184.96 654.07 1189.93 654.07 1194.31 654.07 1198.02 656 1200.99 659.93L1205.96 655.18C1202.03 649.76 1196.61 647.09 1189.86 647.09 1184.88 647.09 1180.87 648.5 1177.83 651.39 1174.79 654.21 1173.3 657.7 1173.3 661.93 1173.3 667.13 1176.05 671.51 1181.54 675 1182.95 675.82 1184.96 676.86 1187.7 678.12 1190.45 679.38 1192.38 680.27 1193.34 680.79 1197.13 682.94 1199.06 685.47 1199.06 688.44 1199.06 693.11 1195.2 696.75 1188.96 696.75 1183.62 696.75 1178.79 693.86 1175.82 687.99L1170.33 692.52C1173.89 699.87 1181.1 703.8 1189.04 703.8z"/><path id="_R_G_L_5_G_D_2_P_0" fill="#000" fill-opacity="1" fill-rule="nonzero" d="M1732.44 527.73s-27.25.0-27.25.0.0-42.73.0-42.73-25.02-58.15-25.02-58.15S1708.59 426.85 1708.59 426.85 1713.49 441.81 1713.49 441.81C1714.45 444.73 1715.3 447.54 1716.04 450.24 1716.82 452.94 1717.52 455.53 1718.13 458.02 1719.13 454.31 1720 451.13 1720.74 448.48 1721.48 445.78 1722.14 443.6 1722.7 441.94L1727.67 426.85s28.22.0 28.22.0S1732.44 485 1732.44 485s0 42.73.0 42.73zM1645.87 493.3S1644.1 481.54 1644.1 481.54C1644.06 481.49 1643.97 480.91 1643.84 479.77 1643.75 478.81 1643.3 475.03 1642.47 468.41 1642.38 467.66 1642.27 466.66 1642.14 465.4 1642.01 464.09 1641.84 462.46 1641.62 460.5L1640.77 450.96C1640.68 451.88 1640.55 452.9 1640.38 454.03 1640.25 455.16 1640.1 456.4 1639.92 457.75 1639.62 460.45 1639.4 462.33 1639.27 463.37 1639.14 464.42 1639.05 465.05 1639.01 465.27L1637.11 477.49S1634.37 493.3 1634.37 493.3s11.5.0 11.5.0zM1679.25 527.73S1651.09 527.73 1651.09 527.73 1649.07 514.92 1649.07 514.92 1630.71 514.92 1630.71 514.92 1628.49 527.73 1628.49 527.73 1600.33 527.73 1600.33 527.73s24.24-100.88 24.24-100.88S1657.89 426.85 1657.89 426.85 1679.25 527.73 1679.25 527.73zm-124.2-24.37C1564.81 502.88 1569.68 494.47 1569.68 478.14 1569.68 470.08 1568.44 463.72 1565.96 459.06 1563.48 454.36 1560.12 452 1555.9 452H1555.05s0 51.36.0 51.36zm-27.25 24.37s0-100.88.0-100.88 23.53.0 23.53.0C1564.78 426.85 1575.26 430.47 1582.75 437.7 1592.6 447.15 1597.52 460.37 1597.52 477.36 1597.52 494.08 1593.36 507 1585.04 516.1 1577.94 523.85 1567.35 527.73 1553.29 527.73H1527.8zm-102.57.0s0-100.88.0-100.88S1475.86 426.85 1475.86 426.85s0 23.72.0 23.72S1452.47 450.57 1452.47 450.57s0 14.7.0 14.7 20.98.0 20.98.0.0 22.8.0 22.8-20.98.0-20.98.0.0 15.42.0 15.42S1475.86 503.49 1475.86 503.49s0 24.24.0 24.24S1425.23 527.73 1425.23 527.73zM1411.05 527.73s-27.25.0-27.25.0.0-40.57.0-40.57-13 0-13 0 0 40.57.0 40.57-27.24.0-27.24.0.0-100.88.0-100.88 27.24.0 27.24.0.0 35.67.0 35.67 13 0 13 0 0-35.67.0-35.67 27.25.0 27.25.0.0 100.88.0 100.88zM1320.89 527.73s-27.25.0-27.25.0S1293.64 451.03 1293.64 451.03 1278.61 451.03 1278.61 451.03s0-24.18.0-24.18S1336.5 426.85 1336.5 426.85s0 24.18.0 24.18S1320.89 451.03 1320.89 451.03 1320.89 527.73 1320.89 527.73zm-107.02.0s-27.25.0-27.25.0.0-100.88.0-100.88S1234.77 426.85 1234.77 426.85s0 23.72.0 23.72S1213.87 450.57 1213.87 450.57s0 14.7.0 14.7 19.47.0 19.47.0.0 22.8.0 22.8-19.47.0-19.47.0.0 39.66.0 39.66zM1146.63 477.81C1146.63 459.56 1143.41 450.44 1136.96 450.44 1133.74 450.44 1131.17 452.83 1129.26 457.62 1127.38 462.07 1126.45 468.6 1126.45 477.22 1126.45 485.72 1127.32 492.32 1129.06 497.02 1130.84 501.68 1133.31 504.01 1136.44 504.01 1139.67 504.01 1142.15 501.7 1143.89 497.09 1145.72 492.47 1146.63 486.04 1146.63 477.81zM1174.92 477.62c0 15.37-3.5 27.87-10.51 37.5C1157.44 524.7 1148.35 529.49 1137.16 529.49 1127.23 529.49 1118.71 525.81 1111.61 518.45 1102.69 509.13 1098.22 495.15 1098.22 476.51c0-17.86 4.66000000000008-31.52 13.98-40.97C1119.13 428.53 1127.34 425.02 1136.83 425.02 1148.46 425.02 1157.72 429.77 1164.6 439.26 1171.48 448.76 1174.92 461.54 1174.92 477.62zm500.32-120.67s0-35.49.0-35.49c6 8.19 12.49 12.29 19.47 12.29C1697.34 333.75 1699.49 333.07 1701.15 331.7 1702.81 330.29 1703.64 328.53 1703.64 326.43 1703.64 323.41 1701.83 320.46 1698.22 317.58L1693.25 313.7C1689.93 311.21 1687.1 308.75 1684.76 306.31 1682.42 303.82 1680.51 301.29 1679.05 298.7 1677.59 296.07 1676.51 293.36 1675.83 290.58 1675.15 287.8 1674.81 284.87 1674.81 281.8 1674.81 276.53 1676.02 271.02 1678.46 265.26 1679.68 262.58 1681.1 260.14 1682.71 257.94 1684.32 255.7 1686.17 253.72 1688.27 252.01 1694.03 247.14 1700.98 244.7 1709.12 244.7 1716.39 244.7 1723.71 246.62 1731.08 250.48v34.54C1728.59 281.16 1725.76 278.14 1722.59 275.94 1719.42 273.7 1716.3 272.58 1713.22 272.58 1710.88 272.58 1708.95 273.26 1707.44 274.63 1705.88 275.94 1705.1 277.53 1705.1 279.38 1705.1 282.41 1707.17 285.41 1711.32 288.38L1716.15 291.97C1722.59 296.6 1727.2 301.36 1729.98 306.24 1732.81 311.12 1734.22 316.82 1734.22 323.36 1734.22 334.48 1730.83 343.65 1724.05 350.87 1717.27 358.09 1708.69 361.7 1698.29 361.7 1691.12 361.7 1683.44 360.12 1675.24 356.95zm-57.51-57.88S1619.78 299.07 1619.78 299.07C1623.29 299.07 1626.22 297.72 1628.56 295.04 1630.9 292.36 1632.07 288.94 1632.07 284.8c0-8.44-4.40999999999985-12.66-13.24-12.66H1617.73s0 26.93.0 26.93zM1667.56 359.73s-33 0-33 0S1619.48 319.48 1619.48 319.48C1619.34 318.8 1619.07 317.9 1618.68 316.78 1618.34 315.65 1617.9 314.31 1617.36 312.75L1617.58 320.22s0 39.51.0 39.51S1587.21 359.73 1587.21 359.73s0-112.98.0-112.98 31.25.0 31.25.0C1632.22 246.75 1642.51 249.45 1649.34 254.87 1658.02 261.79 1662.37 271.65 1662.37 284.43 1662.37 298.09 1656.54 307.53 1644.88 312.75L1667.56 359.73zm-150.16.0s0-112.98.0-112.98S1574.11 246.75 1574.11 246.75s0 26.56.0 26.56S1547.92 273.31 1547.92 273.31s0 16.46.0 16.46 23.49.0 23.49.0.0 25.54.0 25.54-23.49.0-23.49.0.0 17.27.0 17.27S1574.11 332.58 1574.11 332.58s0 27.15.0 27.15S1517.4 359.73 1517.4 359.73zM1508.55 359.73S1475.62 359.73 1475.62 359.73s-20.27-52.1-20.27-52.1S1456.15 359.73 1456.15 359.73s-30.51.0-30.51.0.0-112.98.0-112.98 30.51.0 30.51.0S1455.35 295.19 1455.35 295.19s18-48.44 18-48.44 32.2.0 32.2.0S1481.18 301.26 1481.18 301.26 1508.55 359.73 1508.55 359.73zm-129.23-38.56S1377.34 307.99 1377.34 307.99C1377.29 307.94 1377.2 307.29 1377.05 306.02 1376.95 304.94 1376.44 300.7 1375.51 293.29 1375.42 292.46 1375.29 291.33 1375.15 289.92 1375 288.46 1374.81 286.63 1374.56 284.43L1373.61 273.75C1373.51 274.77 1373.37 275.92 1373.17 277.19 1373.03 278.45 1372.86 279.85 1372.66 281.36 1372.32 284.38 1372.07 286.48 1371.93 287.65 1371.78 288.82 1371.68 289.53 1371.64 289.77L1369.51 303.46S1366.44 321.17 1366.44 321.17 1379.32 321.17 1379.32 321.17zM1416.71 359.73s-31.54.0-31.54.0S1382.91 345.39 1382.91 345.39 1362.34 345.39 1362.34 345.39 1359.85 359.73 1359.85 359.73s-31.53.0-31.53.0S1355.46 246.75 1355.46 246.75 1392.78 246.75 1392.78 246.75 1416.71 359.73 1416.71 359.73zm-151.18.0s0-112.98.0-112.98 56.71.0 56.71.0.0 26.56.0 26.56-26.2.0-26.2.0.0 16.46.0 16.46 23.49.0 23.49.0.0 25.54.0 25.54-23.49.0-23.49.0.0 17.27.0 17.27 26.2.0 26.2.0.0 27.15.0 27.15-56.71.0-56.71.0zM1170.11 359.73s0-112.98.0-112.98S1199.23 246.75 1199.23 246.75s15.3 39.66 15.3 39.66C1215.36 288.75 1216.28 291.43 1217.31 294.46 1218.38 297.48 1219.55 300.97 1220.82 304.92L1223.97 314.87C1222.84 305.07 1221.99 296.68 1221.4 289.7 1220.82 282.72 1220.53 276.87 1220.53 272.14V246.75S1249.65 246.75 1249.65 246.75s0 112.98.0 112.98S1220.53 359.73 1220.53 359.73 1205.16 318.17 1205.16 318.17C1203.55 313.73 1202.09 309.58 1200.77 305.73 1199.5 301.82 1198.38 298.12 1197.4 294.6 1198.04 302.56 1198.5 309.48 1198.79 315.38 1199.09 321.29 1199.23 326.46 1199.23 330.9v28.83S1170.11 359.73 1170.11 359.73zM1099.2 356.95s0-35.49.0-35.49c6 8.19 12.49 12.29 19.47 12.29C1121.3 333.75 1123.45 333.07 1125.1 331.7 1126.76 330.29 1127.59 328.53 1127.59 326.43 1127.59 323.41 1125.79 320.46 1122.18 317.58L1117.2 313.7C1113.88 311.21 1111.06 308.75 1108.71 306.31 1106.37 303.82 1104.47 301.29 1103.01 298.7 1101.54 296.07 1100.47 293.36 1099.79 290.58 1099.1 287.8 1098.76 284.87 1098.76 281.8 1098.76 276.53 1099.98 271.02 1102.42 265.26 1103.64 262.58 1105.05 260.14 1106.66 257.94 1108.27 255.7 1110.13 253.72 1112.22 252.01 1117.98 247.14 1124.93 244.7 1133.08 244.7 1140.35 244.7 1147.67 246.62 1155.03 250.48v34.54C1152.55 281.16 1149.72 278.14 1146.55 275.94 1143.37 273.7 1140.25 272.58 1137.18 272.58 1134.84 272.58 1132.91 273.26 1131.4 274.63 1129.84 275.94 1129.06 277.53 1129.06 279.38 1129.06 282.41 1131.13 285.41 1135.28 288.38L1140.11 291.97C1146.55 296.6 1151.16 301.36 1153.94 306.24 1156.77 311.12 1158.18 316.82 1158.18 323.36 1158.18 334.48 1154.79 343.65 1148.01 350.87 1141.23 358.09 1132.64 361.7 1122.25 361.7 1115.08 361.7 1107.4 360.12 1099.2 356.95z"/></g><g id="_R_G_L_4_G_N_8_N_9_T_0"><g id="_R_G_L_4_G_N_8_T_0"><g id="_R_G_L_4_G" transform="translate(531.797, 416.704)"><path id="_R_G_L_4_G_D_0_P_0" fill="#845237" fill-opacity="1" fill-rule="nonzero" d="M510.79 413.06S551.3 399.45 572.74 400.81C594.19 402.17 612.92 405.23 612.92 405.23S725.6 503.96 725.6 503.96 676.92 554 676.92 555.02s-100.43-53.79-100.43-53.79-65.02-35.12-66.36-58.23C508.79 419.89 508.49 414.78 508.49 414.78S510.79 413.06 510.79 413.06z"/><path id="_R_G_L_4_G_D_1_P_0" fill="#0a0a0a" fill-opacity="1" fill-rule="nonzero" d="M685.35 546.44S677.26 555.55 677.26 555.55C664.28 548.83 632.88 532.56 599.24 513.62L685.35 546.44z"/><path id="_R_G_L_4_G_D_2_P_0" fill="#0a0a0a" fill-opacity="1" fill-rule="nonzero" d="M611.72 410.02S588.92 400.38 564.58 404.81C556.92 403.79 563.87 400.95 563.87 400.95S599.64 402.43 612.92 405.23C615.28 407.31 619.03 410.59 620.2 411.61 620.43 411.81 620.56 411.93 620.56 411.93S611.72 410.02 611.72 410.02z"/><path id="_R_G_L_4_G_D_3_P_0" fill="#fff" fill-opacity="1" fill-rule="nonzero" d="M708.57 583.86S750.98 522.17 750.98 522.17s-14.15-18.21-25.38-18.21C719.73 510 676.92 555.02 676.92 555.02S681.17 578.7 708.57 583.86z"/><path id="_R_G_L_4_G_D_4_P_0" stroke="#0a0a0a" stroke-linecap="round" stroke-linejoin="round" fill="none" stroke-width="1" stroke-opacity="1" d="M708.57 583.86S750.98 522.17 750.98 522.17s-14.15-18.21-25.38-18.21C719.73 510 676.92 555.02 676.92 555.02S681.17 578.7 708.57 583.86z"/></g></g></g><g id="_R_G_L_3_G_N_5_N_8_N_9_T_0"><g id="_R_G_L_3_G_N_5_N_8_T_0"><g id="_R_G_L_3_G_N_5_T_0" transform="translate(531.797, 416.704)"><g id="_R_G_L_3_G" transform="translate(722.007, 544.391)"><path id="_R_G_L_3_G_D_0_P_0" fill="#845237" fill-opacity="1" fill-rule="nonzero" d="M743.98 522.68s74.55.0 74.55.0S839.3 521.32 856.32 529.83C873.34 538.34 901.6 555.04 901.6 555.04S916.92 563.19 910.11 575.45C902.96 584.3 880.49 587.7 856.66 575.45 867.21 585.32 892.06 602.68 892.06 602.68s33.71 44.6 33.71 44.6S943.47 668.38 923.38 675.53C911.81 677.57 900.23 673.49 894.79 662.94 889.68 655.11 863.13 620.04 863.13 620.04s46.98 64.34 46.98 64.34S919.98 699.02 919.3 709.23C918.62 719.45 913.85 729.66 902.96 729.66 892.06 729.66 875.04 699.7 875.04 699.7S867.89 686.08 859.38 680.64C852.92 673.49 823.3 637.74 823.3 637.74S818.87 636.04 819.89 640.47C820.92 644.89 846.11 685.06 846.11 685.06S854.96 701.74 854.96 701.74 874.02 726.25 868.23 738.51C862.45 750.77 857.34 752.81 847.13 748.04 841.34 743.96 806.28 700.38 798.45 685.06 790.96 675.19 784.49 664.64 784.49 664.64S779.04 663.28 780.41 668.04C781.77 672.81 798.79 706.17 798.79 706.17S800.15 711.62 800.15 711.62s17.02 16.68 12.6 33.02C810.36 752.81 796.06 755.87 786.53 743.62 778.7 735.11 752.83 705.15 743.98 675.53 738.53 654.77 737.85 648.98 737.85 648.98S694.28 593.83 691.55 572.38L743.98 522.68z"/><path id="_R_G_L_3_G_D_1_P_0" fill="#302221" fill-opacity="1" fill-rule="nonzero" d="M884.49 545.23S881.34 555.28 889.77 561.41C898.19 567.53 911.89 566.34 911.89 566.34S911.89 570.42 911.89 570.42 892.15 571.45 885.34 562.26C878.53 553.07 881.77 544.64 881.77 544.64S884.49 545.23 884.49 545.23z"/><path id="_R_G_L_3_G_D_2_P_0" fill="#302221" fill-opacity="1" fill-rule="nonzero" d="M909.85 572.3S904.57 584.3 879.81 581.15C863.38 579.11 852.49 571.7 852.49 571.7S825.94 548.38 825.94 548.38 820.23 546.09 823.55 549.4C826.87 552.72 866.89 586.77 866.89 586.77S870.62 587.33 868.23 584.64C865.63 581.71 861.72 578.85 861.72 578.85S880.59 587.73 895.72 583.96C910.92 580.17 911.43 572.13 911.43 572.13S911.56 571.06 909.85 572.3z"/><path id="_R_G_L_3_G_D_3_P_0" fill="#302221" fill-opacity="1" fill-rule="nonzero" d="M922.28 643.36S911.89 641.83 911.38 651.87C910.87 661.92 920.66 674.77 920.92 675.02 921.17 675.28 924.75 675.53 923.38 673.15 922.02 670.77 915.89 662.6 914.62 652.72 913.66 645.9 923.3 646.34 923.3 646.34S925.09 644.3 922.28 643.36z"/><path id="_R_G_L_3_G_D_4_P_0" fill="#302221" fill-opacity="1" fill-rule="nonzero" d="M851.64 612.72s50.98 61.37 50.98 61.37-12.51-22.22-27.66-39.15C859.81 618 854.19 611.36 854.19 611.36S852.58 610.09 851.64 610.77C850.7 611.45 851.64 612.72 851.64 612.72z"/><path id="_R_G_L_3_G_D_5_P_0" fill="#302221" fill-opacity="1" fill-rule="nonzero" d="M918.36 702.34S910.79 689.57 900.66 694.17C890.53 698.77 897.43 718.08 897.43 718.08S901.6 728.47 901.94 728.55C902.28 728.64 905.34 730.17 904.49 726.85 903.64 723.53 892.41 702.77 901.6 696.64 906.75 693.17 916.15 703.7 916.15 703.7S918.36 705.91 918.36 705.91 919.44 703.91 918.36 702.34z"/><path id="_R_G_L_3_G_D_6_P_0" fill="#302221" fill-opacity="1" fill-rule="nonzero" d="M783.3 665.32S781.43 667.36 783.3 672.47C785.17 677.57 799.47 707.02 799.47 707.02S800.83 710.09 800.83 710.09 817.68 728.13 813.77 744.64C812.4 746.51 810.36 745.66 811.38 741.75 812.4 737.83 812.58 726.77 801.51 715.53 799.13 713.66 798.41 710.26 798.41 710.26S780.58 671.62 780.58 671.62 776.15 658 783.3 665.32z"/><path id="_R_G_L_3_G_D_7_P_0" fill="#302221" fill-opacity="1" fill-rule="nonzero" d="M810.53 739.58S799.43 722.09 791 725.53C782.58 728.98 784.75 735.24 788.06 741.75 791.38 748.26 795.09 750.81 795.09 750.81S797 751.32 795.85 749.02C794.7 746.72 785.1 737.72 787.68 731.79 789.69 725.98 794.71 727.56 797.29 728.34 799.86 729.13 807.98 739.83 807.98 739.83S810.92 741.75 810.53 739.58z"/><path id="_R_G_L_3_G_D_8_P_0" stroke="#000" stroke-linecap="round" stroke-linejoin="round" fill="none" stroke-width="3" stroke-opacity="1" d="M865.02 735.74S854.09 725.07 849 729.96 845.85 741.12 849.42 744.83"/></g></g></g></g><g id="_R_G_L_2_G_N_9_T_0"><g id="_R_G_L_2_G" transform="translate(960.206, 539.156) rotate(-0.094) translate(-960, -540)"><path id="_R_G_L_2_G_D_0_P_0" fill="#845237" fill-opacity="1" fill-rule="nonzero" d="M532.77 188.13s27.74-28.77 27.74-28.77 19.24-49.7 19.24-49.7S635.58 107.79 635.58 107.79 658.38 113.58 658.38 113.58 661.55 127.87 658.38 133.66C655.22 139.45 652.81 143.23 652.62 147.11 652.43 150.98 659.92 166.68 659.92 166.68S664.94 174.2 657.62 176.5C655.92 179.01 657.11 181.19 657.11 181.19S657.92 182.89 655.92 183.23C653.92 183.58 651.66 189.96 651.83 191.66 652.09 193.87 642.6 219.23 607.36 204.81 605.58 206.98 587.83 238 587.83 238S584.18 216.87 577.39 205.55C572.32 197.08 565.36 186.43 532.77 188.13z"/><path id="_R_G_L_2_G_D_1_P_0" fill="#2c2c2e" fill-opacity="1" fill-rule="nonzero" d="M560.4 159.7S570.02 160.98 570.96 161.4C570.96 158.77 573.43 144.81 588.23 138 591.64 130.51 601 114 613.09 117.92 619.21 120.13 621.26 124.72 621.26 124.72S626.02 127.62 628.74 123.19C631.47 118.77 632.83 116.55 633.85 110.43 634.36 106.68 638.62 108.55 638.62 108.55S658.19 113.49 658.19 113.49 666.36 112.13 662.45 106.34C660.4 102.77 665.85 99.02 665.85 99.02S669.26 94.26 664.83 91.19C665.17 88.3 665.38 81.36 657.85 80.72 655.81 78.17 655.55 72.43 647.26 73.96 645.72 70.26 645.47 66.04 636.66 66.81 635.13 64.64 635.89 62.47 627.98 63.49 626.19 61.58 619.94 57.61 617 63.23 614.32 63.49 605.89 59.53 603.09 65.28 602.45 65.92 592.62 61.32 586.62 69.24 584.83 69.49 578.45 68.6 577.17 73.19 575.38 73.06 570.66 71.91 570.28 76.77 567.98 76.38 560.57 75.24 557.64 86.09 556.74 86.34 545.77 85.58 541.43 98.85 541.04 100.38 540.92 103.45 542.57 106.13 544.23 108.81 543.09 117.24 548.57 121.83 548.96 127.83 547.04 131.66 552.15 134.85 551.64 137.15 548.19 143.4 555.85 144.04 556.36 147.49 555.47 150.3 558.28 151.83 559.3 156.04 560.4 159.7 560.4 159.7z"/><path id="_R_G_L_2_G_D_2_P_0" fill="#2c2c2e" fill-opacity="1" fill-rule="nonzero" d="M608.57 153.36S617.64 156.55 617.64 156.55 617.64 163.7 617.64 163.7 624.28 162.55 625.81 164.98C627.21 166.64 626.45 171.36 626.45 171.36S631.55 172.38 633.34 174.81C635.13 177.23 635.13 181.19 635.89 183.36 638.19 180.55 638.53 179.45 642.15 178.51 645.77 177.58 656.96 178.26 656.96 178.26S659.38 182.7 654.91 183.41C648.4 183.75 646.29 183.2 643.74 184.33 641.18 185.47 644.45 191.28 651.59 194.85 651.59 196.38 651.21 197.41 652.23 197.41 653.26 197.41 656.57 201.49 654.28 204.94 654.15 207.49 655.68 214.38 651.08 214.64 650.7 216.75 651.28 223.83 645.47 224.6 639.66 225.36 638.77 223.89 638.77 223.89S634.55 226.58 631.68 222.49C630.91 222.3 626 227.47 621.79 220.26 620.64 218.08 613.42 219.81 614.45 213.23 614.83 210.75 608.74 213.06 610.02 205.49 610.53 204.13 601.84 207.62 604.14 196.38 604.57 195.36 601.07 194.6 604.14 191.53 604.49 188.55 597.77 186.77 601.77 181.75 603.72 180.21 603.89 178.34 602.45 176.55 601.34 174.34 599.98 173.06 603.47 170.34 603.55 168.38 602.09 164.89 604.14 162.34 606.19 159.79 608.57 153.36 608.57 153.36z"/><path id="_R_G_L_2_G_D_3_P_0" fill="#2c2c2e" fill-opacity="1" fill-rule="nonzero" d="M606.02 141.87S603.47 141.87 603.47 141.87 604.62 133.58 597.98 130.38C591.34 127.19 589.3 138.43 588.79 144.04 588.28 149.66 587.38 161.28 595.3 160.13 600.31 159.19 601.85 157.06 601.85 157.06S602.32 155.15 600.31 156.2C598.3 157.26 592.01 161.05 591.02 155.66 590.03 150.27 588.92 139.33 594.34 131.7 595.3 130.58 601.94 132.14 602 141.99L601.94 143.66S606.02 143.66 606.02 143.66 606.02 141.87 606.02 141.87z"/><path id="_R_G_L_2_G_D_4_P_0" fill="#2c2c2e" fill-opacity="1" fill-rule="nonzero" d="M598.55 139.27S591.26 145.15 597.55 152.09C597.55 152.09 593.89 144.73 598.55 139.27z"/><path id="_R_G_L_2_G_D_5_P_0" stroke="#2b2b2b" stroke-linecap="round" stroke-linejoin="round" fill="none" stroke-width="1" stroke-opacity="1" d="M647.64 167.32S638.15 166.17 639.51 175.15C640.28 178.38 643.51 179.06 643.51 179.06s13.45.0 13.45.0"/><path id="_R_G_L_2_G_D_6_P_0" fill="#2c2c2e" fill-opacity="1" fill-rule="nonzero" d="M650.67 174.04C650.67 175.29 649.55 176.3 648.17 176.3S645.67 175.29 645.67 174.04c0-1.23999999999998 1.12-2.25 2.5-2.25S650.67 172.8 650.67 174.04z"/><path id="_R_G_L_2_G_D_7_P_0" fill="#2c2c2e" fill-opacity="1" fill-rule="nonzero" d="M611.23 127.99C611.23 128.89 610.45 129.61 609.49 129.61 608.52 129.61 607.74 128.89 607.74 127.99 607.74 127.1 608.52 126.38 609.49 126.38 610.45 126.38 611.23 127.1 611.23 127.99z"/><path id="_R_G_L_2_G_D_8_P_0" fill="#2c2c2e" fill-opacity="1" fill-rule="nonzero" d="M616.99 123.48C616.99 124.73 615.87 125.74 614.49 125.74S611.99 124.73 611.99 123.48c0-1.24000000000001 1.12-2.25 2.5-2.25S616.99 122.24 616.99 123.48z"/><path id="_R_G_L_2_G_D_9_P_0" fill="#2c2c2e" fill-opacity="1" fill-rule="nonzero" d="M607.15 123.48C607.15 124.31 606.32 124.99 605.3 124.99 604.27 124.99 603.44 124.31 603.44 123.48S604.27 121.97 605.3 121.97C606.32 121.97 607.15 122.65 607.15 123.48z"/><path id="_R_G_L_2_G_D_10_P_0" fill="#2c2c2e" fill-opacity="1" fill-rule="nonzero" d="M606.83 132.97C606.83 133.73 606.14 134.35 605.3 134.35 604.45 134.35 603.77 133.73 603.77 132.97S604.45 131.59 605.3 131.59C606.14 131.59 606.83 132.21 606.83 132.97z"/><path id="_R_G_L_2_G_D_11_P_0" fill="#2c2c2e" fill-opacity="1" fill-rule="nonzero" d="M629.05 138.04S634.63 130.13 639.38 131.98c4.75 1.85000000000002 13.75 7 13.75 7S653.96 140.66 652.87 141.87C651.79 143.09 649.36 141.49 649.36 141.49S639.68 134.75 639.68 134.75 637.4 133.5 636.06 134.34C630.03 138.01 629.05 138.04 629.05 138.04z"/><path id="_R_G_L_2_G_D_12_P_0" fill="#fff" fill-opacity="1" fill-rule="nonzero" d="M645.4 143.69S646.84 151.22 638.92 151.26C631.01 151.29 631.04 142.33 631.04 142.33S634.39 139.84 638.51 140.21C642.63 140.59 645.4 143.69 645.4 143.69z"/><path id="_R_G_L_2_G_D_13_P_0" fill="#2c2c2e" fill-opacity="1" fill-rule="nonzero" d="M637.68 140.55C635.7 142.33 635.33 149.48 641.14 151.01 646.44 150.74 645.51 143.13 645.51 143.13S639.66 138.78 637.68 140.55z"/></g></g><g id="_R_G_L_1_G"><path id="_R_G_L_1_G_D_0_P_0" fill="#8bc056" fill-opacity="1" fill-rule="nonzero" d="M-776 315.5c-7-3-17 0-17 0s-23 31-29.5 39C-824.68 357.19-829.91 363.2-835.88 370c-11.84 13.45-26.62 30-26.62 30s-2 3.5-2.5 7-90 114-89.5 127c29.5.5 274 1 274 1s211 .5 211 .5 12-4.5 12-6.5C-457.5 528-463.27 511.2-472.1 494.3c-8.81-16.85-20.67-33.8-32.9-35.3-24.5-3-164.5-39-175-52 9-4.5 44.5-32.5 43-55-1-10.5-10.5 1-12 1.5s-43 42.5-55 40c-9-5-15-9-22.5-9s-44-19-41-32c1-13-1.5-34-8.5-37z"/><path id="_R_G_L_1_G_D_1_P_0" stroke="#000" stroke-linecap="round" stroke-linejoin="round" fill="none" stroke-width="0" stroke-opacity="1" d="M-776 315.5c-7-3-17 0-17 0s-23 31-29.5 39C-824.68 357.19-829.91 363.2-835.88 370c-11.84 13.45-26.62 30-26.62 30s-2 3.5-2.5 7-90 114-89.5 127c29.5.5 274 1 274 1s211 .5 211 .5 12-4.5 12-6.5C-457.5 528-463.27 511.2-472.1 494.3c-8.81-16.85-20.67-33.8-32.9-35.3-24.5-3-164.5-39-175-52 9-4.5 44.5-32.5 43-55-1-10.5-10.5 1-12 1.5s-43 42.5-55 40c-9-5-15-9-22.5-9s-44-19-41-32c1-13-1.5-34-8.5-37z"/><path id="_R_G_L_1_G_D_2_P_0" stroke="#000" stroke-linecap="round" stroke-linejoin="round" fill="none" stroke-width="5" stroke-opacity="1" d="M-688.5 397.5s26 24 64.5 14.5 23.5-27 20.5-28.5-45 1-65.5 19c5.5-4 43.5-32.5 31.5-59s-43 29.5-40 57 4 39.5 4 39.5 3.5 12 22.5 16 51 6 51 6 32.5 3.5 40.5 6.5C-553.72 469.18-541.16 469.4-531.8 465.14-527.4 463.14-523.71 460.15-521.75 455.75c-4-.870000000000005-16-4-16-4S-531.44 466.13-531.44 466.13-538.56 452.56-538.56 452.56-564 465.75-564 465.75-575.94 446.19-575.94 446.19-566.37 448.13-566.37 448.13-596.06 461.63-596.06 461.63-620.19 433.69-620.19 433.69s25.25 7.81 25.25 7.81S-634 459.88-634 459.88-658.31 419-658.31 419-623.19 431.81-623.19 431.81s-47.75 15-47.75 15"/><path id="_R_G_L_1_G_D_3_P_0" stroke="#000" stroke-linecap="round" stroke-linejoin="round" fill="none" stroke-width="5" stroke-opacity="1" d="M-927.75 494.25c8.5 1.5 169.75 2.5 169.75 2.5s77.25 2.75 94 4.25 144.25 7.75 165.75.75c21-5.25 26.88-7.87 26.88-7.87"/><path id="_R_G_L_1_G_D_4_P_0" stroke="#000" stroke-linecap="round" stroke-linejoin="round" fill="none" stroke-width="5" stroke-opacity="1" d="M-762 533.5s41.5-28.75 53.25-14 10.5 14.88 10.5 14.88"/><path id="_R_G_L_1_G_D_5_P_0" stroke="#000" stroke-linecap="round" stroke-linejoin="round" fill="none" stroke-width="5" stroke-opacity="1" d="M-562.25 534.25S-542.5 503.19-534.69 509C-526.88 514.81-520.25 531.25-519.19 534.44"/><path id="_R_G_L_1_G_D_6_P_0" fill="#e7dac7" fill-opacity="1" fill-rule="nonzero" d="M-792.5 421s34.5 43.75 57.25 56 36.5 5.25 39.75.0 6.5-16.5-3.75-26.5S-703 447-703 447s3 24.5-9 22c-10.5-.5-27.25-10.5-33.25-14.5S-792.5 421-792.5 421z"/><path id="_R_G_L_1_G_D_7_P_0" stroke="#000" stroke-linecap="round" stroke-linejoin="round" fill="none" stroke-width="0" stroke-opacity="1" d="M-792.5 421s34.5 43.75 57.25 56 36.5 5.25 39.75.0 6.5-16.5-3.75-26.5S-703 447-703 447s3 24.5-9 22c-10.5-.5-27.25-10.5-33.25-14.5S-792.5 421-792.5 421z"/></g><g id="_R_G_L_0_G"><path id="_R_G_L_0_G_D_0_P_0" fill="#8bc056" fill-opacity="1" fill-rule="nonzero" d="M-846.59 335.11C-853.59 332.11-853.78 294.91-853.78 294.91S-871.88 284.74-878.38 292.74-902.7 373.53-902.7 373.53-906.17 385.85-906.67 389.35-955 521-954.5 534c29.5.5 274 1 274 1s211 .5 211 .5 12-4.5 12-6.5C-457.5 528-464.1 500.11-472.59 483.03c-16.25-32.71-45.67-51.94-57.9-53.44-24.5-3-182.15-41.45-192.65-54.45C-720.71 325.81-720.22 316.99-728.18 309.84-729.18 299.34-733.77 313.78-735.27 314.28s-16.04 32.7-28.04 30.2C-772.31 339.48-780.76 344.79-788.26 344.79S-827.36 351.77-824.36 338.77C-823.36 325.77-839.59 338.11-846.59 335.11z"/><path id="_R_G_L_0_G_D_1_P_0" stroke="#000" stroke-linecap="round" stroke-linejoin="round" fill="none" stroke-width="0" stroke-opacity="1" d="M-846.59 335.11C-853.59 332.11-853.78 294.91-853.78 294.91S-871.88 284.74-878.38 292.74-902.7 373.53-902.7 373.53-906.17 385.85-906.67 389.35-955 521-954.5 534c29.5.5 274 1 274 1s211 .5 211 .5 12-4.5 12-6.5C-457.5 528-464.1 500.11-472.59 483.03c-16.25-32.71-45.67-51.94-57.9-53.44-24.5-3-182.15-41.45-192.65-54.45C-720.71 325.81-720.22 316.99-728.18 309.84-729.18 299.34-733.77 313.78-735.27 314.28s-16.04 32.7-28.04 30.2C-772.31 339.48-780.76 344.79-788.26 344.79S-827.36 351.77-824.36 338.77C-823.36 325.77-839.59 338.11-846.59 335.11z"/><path id="_R_G_L_0_G_D_2_P_0" stroke="#000" stroke-linecap="round" stroke-linejoin="round" fill="none" stroke-width="5" stroke-opacity="1" d="M-741 362s26 24 64.5 14.5 23.5-27 20.5-28.5-45 1-65.5 19c5.5-4 43.5-32.5 31.5-59s-43 29.5-40 57 4 39.5 4 39.5 3.5 12 22.5 16 51 6 51 6S-620 430-612 433C-606.22 433.68-593.66 433.9-584.3 429.64-579.9 427.64-576.21 424.65-574.25 420.25c-4-.870000000000005-16-4-16-4S-583.94 430.63-583.94 430.63-591.06 417.06-591.06 417.06-616.5 430.25-616.5 430.25-628.44 410.69-628.44 410.69-618.87 412.63-618.87 412.63-648.56 426.13-648.56 426.13-672.69 398.19-672.69 398.19-647.44 406-647.44 406-686.5 424.38-686.5 424.38-710.81 383.5-710.81 383.5-675.69 396.31-675.69 396.31s-47.75 15-47.75 15"/><path id="_R_G_L_0_G_D_3_P_0" stroke="#000" stroke-linecap="round" stroke-linejoin="round" fill="none" stroke-width="5" stroke-opacity="1" d="M-937.75 494.25c8.5 1.5 169.75 2.5 169.75 2.5s77.25 2.75 94 4.25 144.25 7.75 165.75.75c21-5.25 38.64-12.29 38.64-12.29"/><path id="_R_G_L_0_G_D_4_P_0" stroke="#000" stroke-linecap="round" stroke-linejoin="round" fill="none" stroke-width="5" stroke-opacity="1" d="M-762 533.5s41.5-28.75 53.25-14 10.5 14.88 10.5 14.88"/><path id="_R_G_L_0_G_D_5_P_0" stroke="#000" stroke-linecap="round" stroke-linejoin="round" fill="none" stroke-width="5" stroke-opacity="1" d="M-569.75 534.25S-550 503.19-542.19 509C-534.38 514.81-527.75 531.25-526.69 534.44"/><path id="_R_G_L_0_G_D_6_P_0" fill="#e7dac7" fill-opacity="1" fill-rule="nonzero" d="M-792.5 421s34.5 43.75 57.25 56 36.5 5.25 39.75.0 6.5-16.5-3.75-26.5S-703 447-703 447s3 24.5-9 22c-10.5-.5-27.25-10.5-33.25-14.5S-792.5 421-792.5 421z"/><path id="_R_G_L_0_G_D_7_P_0" stroke="#000" stroke-linecap="round" stroke-linejoin="round" fill="none" stroke-width="0" stroke-opacity="1" d="M-792.5 421s34.5 43.75 57.25 56 36.5 5.25 39.75.0 6.5-16.5-3.75-26.5S-703 447-703 447s3 24.5-9 22c-10.5-.5-27.25-10.5-33.25-14.5S-792.5 421-792.5 421z"/></g></g><g id="time_group"/></svg>