<svg xmlns:xlink="http://www.w3.org/1999/xlink" xmlns="http://www.w3.org/2000/svg" width="16" height="16" viewBox="0 0 16 16" fill="none">
<path d="M8.10131 15.1244C8.99423 15.1244 9.71793 14.4007 9.71793 13.5078H6.48438C6.48438 14.4007 7.20807 15.1244 8.10131 15.1244Z" fill="black"/>
<path d="M8.91132 1.11105C8.91132 0.66489 8.54947 0.302734 8.10301 0.302734C7.65624 0.302734 7.29439 0.66489 7.29439 1.11105C5.21099 1.11105 3.52206 2.80028 3.52206 4.88368V9.96524C3.52206 10.1102 3.48083 10.2779 3.41406 10.4391L11.6064 2.24644C10.9218 1.54643 9.96794 1.11105 8.91132 1.11105Z" fill="black"/>
<path d="M15.8197 0.180232C15.5794 -0.0600772 15.1898 -0.0600772 14.9495 0.180232L0.180232 14.9495C-0.0600772 15.1898 -0.0600772 15.5794 0.180232 15.8197C0.300232 15.94 0.457771 16 0.615311 16C0.77285 16 0.930389 15.94 1.05039 15.8197L4.17225 12.6978H11.8975H14.3003C14.3003 12.6978 14.3003 12.336 14.3003 11.8895C14.3003 11.4434 13.9385 11.0809 13.492 11.0809C13.0455 11.0809 12.6837 10.4114 12.6837 9.96489V4.88333C12.6837 4.66487 12.6628 4.45133 12.6268 4.24333L15.8197 1.05039C16.06 0.810081 16.06 0.420541 15.8197 0.180232Z" fill="black"/>
</svg>