<svg xmlns:xlink="http://www.w3.org/1999/xlink" xmlns="http://www.w3.org/2000/svg" width="16" height="16" viewBox="0 0 20 24" aria-labelledby="box" stroked="false" unstroked="false" role="presentation"><title id="box" lang="en">box icon</title><g><g fill="black" stroke="#000000"><g stroke="#000000"><path d="M18.8158 2.09983H17.7705V1.04992C17.7705 0.419967 17.3523 0 16.7251 0C16.098 0 15.6798 0.419967 15.6798 1.04992V2.09983H5.22661V1.04992C5.22661 0.419967 4.80848 0 4.18129 0C3.55409 0 3.13597 0.419967 3.13597 1.04992V2.09983H1.04532C0.522661 2.09983 0 2.5198 0 3.14975V17.8486C0 18.4785 0.522661 18.8985 1.04532 18.8985H7.42178C6.69006 17.6386 6.27193 16.1687 6.27193 14.6988C6.27193 10.0792 10.0351 6.2995 14.6345 6.2995C16.6206 6.2995 18.3977 7.03444 19.8611 8.18935V3.14975C19.8611 2.62479 19.3385 2.09983 18.8158 2.09983Z" stroke="#000000"></path><path d="M14.634 8.40221C11.1845 8.40221 8.3621 11.237 8.3621 14.7017C8.3621 18.1664 11.1845 21.0012 14.634 21.0012C18.0836 21.0012 20.906 18.1664 20.906 14.7017C20.906 11.237 18.0836 8.40221 14.634 8.40221ZM16.7247 15.7516H14.634C14.0068 15.7516 13.5887 15.3317 13.5887 14.7017V11.552C13.5887 10.922 14.0068 10.502 14.634 10.502C15.2612 10.502 15.6794 10.922 15.6794 11.552V13.6518H16.7247C17.3519 13.6518 17.77 14.0718 17.77 14.7017C17.77 15.3317 17.3519 15.7516 16.7247 15.7516Z" stroke="#000000"></path></g></g></g></svg>