<svg xmlns:xlink="http://www.w3.org/1999/xlink" xmlns="http://www.w3.org/2000/svg" width="16" height="12" viewBox="0 0 16 12" fill="none">
<path d="M0 11.4905H13.0251V4.03516H0V11.4905ZM1.19827 6.13395C1.33565 6.13395 1.47168 6.10689 1.5986 6.0543C1.72552 6.00172 1.84084 5.92465 1.93797 5.82749C2.03509 5.73033 2.11213 5.61498 2.16467 5.48805C2.21721 5.36111 2.24423 5.22507 2.24419 5.08768H10.7806C10.7806 5.36517 10.8908 5.63129 11.087 5.82751C11.2832 6.02372 11.5494 6.13395 11.8269 6.13395V9.38893C11.5494 9.38893 11.2832 9.49916 11.087 9.69537C10.8908 9.89158 10.7806 10.1577 10.7806 10.4352H2.24419C2.24423 10.2978 2.21721 10.1618 2.16467 10.0348C2.11213 9.90789 2.03509 9.79255 1.93797 9.69539C1.84084 9.59823 1.72552 9.52116 1.5986 9.46858C1.47168 9.41599 1.33565 9.38893 1.19827 9.38893V6.13395Z" fill="black"/>
<path d="M0.683594 3.51391H13.5473V9.53134L14.5978 9.42003L13.8186 2.00781L0.683594 3.51391Z" fill="black"/>
<path d="M14.5956 0L1.39062 2.78749L14.2825 1.43305L14.9295 7.58265L16.0008 7.32526L14.5956 0Z" fill="black"/>
<path fill-rule="evenodd" clip-rule="evenodd" d="M12 5H1V11H12V5ZM8.1388 7.5694C8.1388 8.43616 7.43616 9.1388 6.5694 9.1388C5.70264 9.1388 5 8.43616 5 7.5694C5 6.70264 5.70264 6 6.5694 6C7.43616 6 8.1388 6.70264 8.1388 7.5694Z" fill="black"/>
</svg>