<svg xmlns:xlink="http://www.w3.org/1999/xlink" xmlns="http://www.w3.org/2000/svg" width="20" height="21" viewBox="0 0 20 21" fill="none">
<path d="M18.2655 10.5522C18.185 10.3829 18.185 10.1887 18.2655 10.0193L19.0114 8.44978C19.4267 7.57586 19.0977 6.53424 18.2623 6.07833L16.7619 5.2595C16.6 5.17119 16.489 5.01401 16.4574 4.82843L16.1639 3.10763C16.0005 2.14954 15.1389 1.50572 14.2027 1.64196L12.5209 1.88665C12.3394 1.91301 12.1599 1.85298 12.0283 1.72196L10.8075 0.507287C10.1278 -0.169075 9.06296 -0.169116 8.38327 0.507287L7.1625 1.72208C7.03078 1.85314 6.85129 1.91305 6.66981 1.88677L4.98806 1.64208C4.05154 1.50576 3.19022 2.14966 3.02682 3.10775L2.73338 4.82847C2.7017 5.01409 2.59073 5.17123 2.42889 5.25958L0.928511 6.07841C0.0931248 6.53428 -0.235936 7.57598 0.179374 8.4499L0.925268 10.0194C1.00574 10.1888 1.00574 10.383 0.925268 10.5523L0.179335 12.1218C-0.235975 12.9958 0.0930856 14.0374 0.928471 14.4933L2.42885 15.3121C2.59073 15.4004 2.7017 15.5576 2.73338 15.7432L3.02682 17.464C3.17557 18.3362 3.90267 18.9479 4.73833 18.9478C4.82064 18.9478 4.90415 18.9418 4.9881 18.9296L6.66985 18.6849C6.85121 18.6585 7.03082 18.7186 7.16254 18.8496L8.38327 20.0643C8.72319 20.4025 9.15921 20.5716 9.59538 20.5715C10.0314 20.5715 10.4677 20.4024 10.8075 20.0643L12.0283 18.8496C12.16 18.7186 12.3395 18.6587 12.5209 18.6849L14.2027 18.9296C15.1393 19.0659 16.0005 18.422 16.1639 17.4639L16.4574 15.7432C16.4891 15.5576 16.6001 15.4005 16.7619 15.3121L18.2623 14.4933C19.0977 14.0374 19.4267 12.9957 19.0114 12.1218L18.2655 10.5522ZM7.28832 4.94667C8.4544 4.94667 9.40311 5.92248 9.40311 7.12189C9.40311 8.32129 8.4544 9.2971 7.28832 9.2971C6.12223 9.2971 5.17353 8.32129 5.17353 7.12189C5.17353 5.92248 6.12223 4.94667 7.28832 4.94667ZM6.19676 14.6204C6.08415 14.7362 5.93653 14.7942 5.78895 14.7942C5.64137 14.7942 5.49372 14.7363 5.38114 14.6204C5.15591 14.3887 5.15591 14.0131 5.38114 13.7814L12.9939 5.95113C13.2191 5.71946 13.5844 5.71946 13.8096 5.95113C14.0348 6.1828 14.0348 6.55842 13.8096 6.79009L6.19676 14.6204ZM11.9024 15.6249C10.7363 15.6249 9.78756 14.6491 9.78756 13.4497C9.78756 12.2503 10.7363 11.2745 11.9024 11.2745C13.0684 11.2745 14.0171 12.2503 14.0171 13.4497C14.0171 14.6491 13.0684 15.6249 11.9024 15.6249Z" fill="#1CA37D"/>
</svg>