<svg xmlns:xlink="http://www.w3.org/1999/xlink" xmlns="http://www.w3.org/2000/svg" width="22" height="20" viewBox="0 0 22 20" fill="none">
<path d="M20.9744 15.0404C21.0312 14.7486 21.0126 14.4165 20.9166 14.0708C20.2874 11.8043 18.4046 7.16387 16.8401 5.25265C16.4295 4.75113 15.6386 4.79446 15.18 5.25265C14.9783 5.45449 14.8662 5.71156 14.8423 5.97516C14.7195 5.86155 14.5637 5.78311 14.3918 5.76066C14.3918 5.76066 10.4236 5.26618 10.3754 5.27247H8.57089C7.98287 5.27247 7.81078 5.61345 7.81078 6.03258V11.8256H6.48637V5.6133C6.48637 5.30596 6.23629 5.05589 5.92895 5.05589H0.557413C0.250076 5.05589 0 5.30596 0 5.6133C0 5.6133 0.00192561 14.3366 0.00192561 14.9008C0.00192561 15.549 0.527364 16.0744 1.17548 16.0744H2.3271C2.26761 16.3167 2.23543 16.5696 2.23543 16.8299C2.23543 18.5784 3.65815 20.0008 5.40686 20.0008C7.15546 20.0008 8.57808 18.5784 8.57808 16.8299C8.57808 16.5696 8.54586 16.3167 8.48642 16.0744H12.0357V16.8519C12.0357 17.4666 12.5358 17.9667 13.1505 17.9667H13.1719C13.4692 17.9667 13.7483 17.8502 13.9578 17.6386C14.1673 17.4269 14.2809 17.1467 14.2779 16.8494L14.27 16.0744H15.2785C15.2191 16.3167 15.1869 16.5696 15.1869 16.8299C15.1869 18.5784 16.6096 20.0008 18.3583 20.0008C20.1069 20.0008 21.5295 18.5784 21.5295 16.8299C21.5294 16.1665 21.3242 15.5502 20.9744 15.0404ZM18.3582 15.6332C19.0181 15.6332 19.5549 16.1701 19.5549 16.8299C19.5549 17.4898 19.0181 18.0267 18.3582 18.0267C17.6981 18.0267 17.161 17.4898 17.161 16.8299C17.161 16.1701 17.698 15.6332 18.3582 15.6332ZM6.60352 16.8299C6.60352 17.4898 6.06668 18.0267 5.40681 18.0267C4.74668 18.0267 4.20964 17.4898 4.20964 16.8299C4.20964 16.1701 4.74668 15.6332 5.40681 15.6332C6.06668 15.6332 6.60352 16.1701 6.60352 16.8299ZM14.2282 11.9964C14.222 11.3831 13.7179 10.8842 13.1046 10.8842H11.2496V7.09617L12.1567 7.2076C12.2305 7.54687 12.5321 7.80105 12.8934 7.80105H16.0686L16.3147 9.85152L14.2342 12.5754L14.2282 11.9964Z" fill="black"/>
<path d="M9.25324 4.45941C10.4827 4.45941 11.483 3.45916 11.483 2.2296C11.483 2.07327 11.4666 1.92069 11.4359 1.77333L11.9251 1.76371C12.2165 1.75793 12.5307 1.55503 12.6558 1.29168L12.8199 0.946387C12.8978 0.782355 12.8938 0.611077 12.8086 0.476436C12.7236 0.341897 12.5709 0.264721 12.3879 0.264721L10.3152 0.269535C9.99927 0.0976487 9.63745 0 9.25319 0C8.02369 0 7.02344 1.0002 7.02344 2.2297C7.02349 3.45916 8.02374 4.45941 9.25324 4.45941Z" fill="black"/>
</svg>