<svg xmlns:xlink="http://www.w3.org/1999/xlink" xmlns="http://www.w3.org/2000/svg" width="16" height="16" viewBox="0 0 16 16" fill="none">
<path d="M15.8281 15.2031L0.765625 0.140625C0.5875 -0.046875 0.31875 -0.046875 0.140625 0.140625C-0.046875 0.31875 -0.046875 0.61875 0.140625 0.796875L3.75 4.4375V13.625C3.75 14.4031 4.37813 15.0312 5.15625 15.0312H10.7812C11.5594 15.0312 12.1875 14.4031 12.1875 13.625V12.875L15.1719 15.8594C15.35 16.0469 15.65 16.0469 15.8281 15.8594C16.0156 15.6813 16.0156 15.3812 15.8281 15.2031ZM8.4375 13.1562H7.5C7.23747 13.1562 7.03125 12.95 7.03125 12.6875C7.03125 12.425 7.23747 12.2188 7.5 12.2188H8.4375C8.70003 12.2188 8.90625 12.425 8.90625 12.6875C8.90625 12.95 8.70003 13.1562 8.4375 13.1562Z" fill="black"/>
<path d="M12.1866 2.375C12.1866 1.59688 11.5584 0.96875 10.7803 0.96875H5.15531C4.54938 0.96875 4.03437 1.34969 3.83594 1.88594L12.1866 10.2366V2.375ZM7.96781 3.78125C7.70531 3.78125 7.49906 3.575 7.49906 3.3125C7.49906 3.05 7.70531 2.84375 7.96781 2.84375C8.23031 2.84375 8.43656 3.05 8.43656 3.3125C8.43656 3.575 8.23031 3.78125 7.96781 3.78125Z" fill="black"/>
</svg>