<svg width="876" height="633" viewBox="0 0 876 633" fill="none" xmlns="http://www.w3.org/2000/svg">
<path d="M312.773 31.6952C328.342 24.9605 344.047 18.5529 359.862 12.418C366.433 17.2714 372.868 22.2338 379.412 27.1418C375.158 43.8015 366.569 58.7707 359.998 74.5306L356.89 75.3758C340.884 69.0773 325.315 61.5791 309.773 54.2172C310.837 46.719 311.737 39.1935 312.773 31.6952Z" fill="white"/>
<path d="M626.555 58.6285C627.782 57.8923 630.236 56.4745 631.463 55.7383C641.47 58.4104 651.804 59.8828 661.647 63.2092C666.446 70.3257 670.236 79.1328 678.688 82.7319C686.105 87.2581 694.884 85.5676 703.091 85.3222C710.453 93.2022 719.124 99.9097 725.695 108.526C726.131 116.897 716.288 121.723 711.653 127.939C705.764 126.031 696.575 119.132 692.13 126.849C682.533 142.881 673.698 159.405 664.619 175.737C643.896 167.885 625.437 155.042 606.023 144.49C613.413 126.14 625.437 110.08 633.535 92.1115C635.444 84.2861 626.391 81.4777 621.102 78.6965C622.71 71.9345 624.837 65.336 626.555 58.6285Z" fill="white"/>
<path d="M425.109 178.227C436.616 165.848 454.993 160.341 471.08 166.176C484.414 171.302 493.057 183.544 499.601 195.65C507.235 210.592 512.171 226.761 515.961 243.039C502.3 245.63 488.449 246.966 474.679 248.902C466.472 221.172 453.684 190.279 425.109 178.227Z" fill="white"/>
<path d="M376.875 197.198C386.691 185.01 402.669 179.993 417.883 180.484C404.741 204.069 401.469 231.69 403.76 258.275C388.272 262.964 371.803 261.928 356.234 266.318C358.088 242.351 360.788 216.366 376.875 197.198Z" fill="white"/>
<path d="M422.376 181.74C450.897 191.992 463.085 223.076 470.992 249.824C449.506 251.842 428.293 256.15 406.834 258.249C405.717 232.183 407.652 204.153 422.376 181.74Z" fill="white"/>
<path d="M144.676 216.177C152.283 213.75 157.709 220.239 161.853 225.583C161.962 235.454 149.72 243.634 154.382 253.613C168.697 268.582 184.866 281.752 199.317 296.612C213.632 311.363 204.88 337.348 187.893 346.073C175.786 354.144 156.346 350.927 150.429 336.748C143.83 324.587 150.183 310.245 158.69 300.838C162.671 297.239 165.043 290.504 160.817 286.169C149.556 274.526 136.986 264.247 125.344 252.986C131.751 240.689 138.786 228.719 144.676 216.177Z" fill="white"/>
<path d="M269.748 221.607C276.237 215.226 285.508 225.097 279.591 231.804C273.156 238.485 262.413 227.687 269.748 221.607Z" fill="white"/>
<path d="M476.031 252.334C492.391 251.025 508.424 247.317 524.811 246.09C520.53 252.825 516.222 260.023 516.767 268.366C504.77 268.83 492.746 269.293 480.966 271.911C479.194 265.422 477.449 258.905 476.031 252.334Z" fill="white"/>
<path d="M607.699 257.293C627.276 251.84 649.744 245.623 668.912 255.739C671.748 270.872 660.814 283.36 652.552 294.702C636.029 314.552 617.379 332.739 597.174 348.799C592.021 334.893 586.759 321.069 581.251 307.299C576.616 295.902 573.998 283.142 565.055 274.089C578.197 266.073 593.166 261.983 607.699 257.293Z" fill="white"/>
<path d="M852.946 251.216C857.309 246.935 865.053 249.716 862.953 256.533C859.545 263.267 848.775 257.841 852.946 251.216Z" fill="white"/>
<path d="M452.029 255.743C458.764 254.871 465.526 254.135 472.261 253.371C473.924 259.479 475.696 265.586 477.142 271.776C436.951 277.502 396.87 284.346 356.461 288.19C356.515 282.219 356.325 276.247 356.87 270.303C388.226 263.405 420.455 261.469 452.029 255.743Z" fill="white"/>
<path d="M546.199 257.541C549.716 256.723 553.561 256.232 552.825 261.195C550.125 266.184 544.181 262.394 546.199 257.541Z" fill="white"/>
<path d="M321.919 292.633C331.925 285.189 341.087 276.437 352.702 271.447C352.948 277.528 353.139 283.608 353.329 289.688C346.404 290.615 339.451 291.297 332.498 291.543C334.625 292.879 336.752 294.187 338.906 295.523C392.184 287.316 445.708 280.772 498.959 272.511C514.909 270.357 531.324 281.454 535.523 296.969C543.485 323.662 551.474 350.329 559.544 376.995C556.327 381.985 550.165 384.221 545.557 387.793C481.29 432.155 409.144 463.893 335.034 487.778C322.846 491.459 310.521 494.731 298.142 497.758C298.088 441.725 297.761 385.72 297.761 329.715C297.488 310.029 316.547 294.76 335.661 296.669C331.353 294.515 326.663 293.397 321.919 292.633ZM343.023 305.012C342.368 310.111 341.25 315.81 344.741 320.199C345.668 315.019 346.131 309.538 343.023 305.012ZM342.968 348.066C342.477 355.046 342.559 362.053 343.159 369.006C348.858 364.18 348.122 353.055 342.968 348.066ZM342.914 398.808C342.886 404.234 342.941 409.687 342.914 415.113C343.868 416.068 345.749 417.976 346.676 418.931C347.113 412.305 347.031 405.652 346.949 398.999C345.94 398.972 343.923 398.863 342.914 398.808ZM344.741 445.597C343.241 453.368 342.914 461.466 345.095 469.155C348.83 462.066 349.13 452.468 344.741 445.597Z" fill="white"/>
<path d="M531.234 284.478C532.161 281.534 531.18 276.735 535.324 276.217C536.47 277.853 537.533 279.571 538.514 281.343C536.688 282.134 533.061 283.688 531.234 284.478Z" fill="white"/>
<path d="M551.745 291.539C555.535 292.057 557.88 294.32 558.725 298.028C556.871 298.192 553.19 298.574 551.336 298.737C551.445 296.938 551.663 293.339 551.745 291.539Z" fill="white"/>
<path d="M571.307 308.446C573.897 304.22 580.932 308.773 577.769 312.781C575.097 316.708 568.062 312.481 571.307 308.446Z" fill="white"/>
<path d="M556.465 327.637C558.019 327.773 561.127 328.073 562.682 328.209C562.682 329.654 562.627 332.517 562.627 333.963C561.073 333.99 557.964 334.072 556.438 334.126C556.438 332.49 556.465 329.273 556.465 327.637Z" fill="white"/>
<path d="M576.625 349.343C571.908 344.135 582.106 338.682 583.824 345.526C584.669 349.289 579.243 352.07 576.625 349.343Z" fill="white"/>
<path d="M561.341 363.583C564.831 359.957 571.539 365.246 567.667 369.091C564.204 372.69 557.006 367.455 561.341 363.583Z" fill="white"/>
<path d="M11.1094 366.029C14.5449 368.32 17.9532 370.665 21.3342 373.064C19.1802 376.227 17.0261 379.39 14.9266 382.58C11.791 380.426 8.65539 378.299 5.60156 376.036C7.40114 372.682 9.22798 369.329 11.1094 366.029Z" fill="white"/>
<path d="M580.782 378.168C582.5 378.14 585.908 378.113 587.626 378.086C587.435 380.758 587.217 383.43 586.971 386.102C583.045 384.93 580.428 382.503 580.782 378.168Z" fill="white"/>
<path d="M332.356 492.436C413.527 467.16 491.7 431.141 561.174 381.871C563.437 389.669 565.646 397.522 567.091 405.538C569 402.403 570.881 399.24 572.899 396.186C571.781 402.021 570.254 407.774 568.973 413.582C545.878 422.007 526.819 441.23 520.084 465.033C514.467 486.137 516.785 510.295 530.064 528.155C466.724 536.089 403.63 545.987 340.345 554.467C328.211 556.73 314.578 553.621 306.534 543.724C295.737 532.245 298.246 515.503 298.218 501.107C309.806 499.034 321.122 495.844 332.356 492.436ZM489.655 486.737C494.945 487.583 501.734 489.164 504.924 483.465C499.607 483.411 494.317 484.011 489.655 486.737ZM439.376 494.863C445.865 494.944 452.327 494.099 458.762 493.499C458.98 492.327 459.389 490.009 459.607 488.837C453.336 490.909 442.839 488.346 439.376 494.863ZM343.917 498.871C344.08 502.225 344.271 505.606 344.489 508.987C348.034 508.523 351.606 508.06 355.178 507.569C355.368 506.587 355.75 504.597 355.941 503.588C354.005 503.615 350.079 503.642 348.116 503.642C347.952 502.034 347.625 498.789 347.461 497.153C346.589 497.589 344.816 498.435 343.917 498.871ZM386.07 500.779C393.896 503.751 402.921 501.625 409.737 497.071C401.694 496.853 393.732 498.489 386.07 500.779ZM337.073 513.949C336.337 517.194 335.655 520.438 335.001 523.738C337.945 520.575 340.754 517.33 343.535 514.031C341.926 514.004 338.709 513.949 337.073 513.949ZM318.532 546.26C322.104 543.233 326.93 540.043 326.03 534.617C321.258 536.498 319.486 541.597 318.532 546.26Z" fill="white"/>
<path d="M238.201 415.111C255.761 403.468 274.847 394.334 294.479 386.836C294.452 424.109 294.67 461.382 294.615 498.628C285.372 499.773 276.265 501.818 267.049 503.208C274.084 489.112 282.154 473.815 279.701 457.51C278.446 448.458 271.139 440.36 261.705 439.923C243.491 438.015 226.858 450.475 217.806 465.445C212.189 474.933 208.808 488.13 216.116 497.673C227.24 509.016 244.527 507.162 259.06 507.762C243.709 526.603 221.187 541.463 196.211 541.599C188.958 541.518 180.588 541.49 175.08 536.037C163.437 526.494 165.537 509.316 168.836 496.365C180.615 461.655 208.399 435.043 238.201 415.111Z" fill="white"/>
<path d="M603.197 393.734C607.805 390.326 611.132 401.151 604.506 399.569C599.789 401.396 600.171 394.961 603.197 393.734Z" fill="white"/>
<path d="M835.247 418.767C841.519 413.395 848.881 415.495 853.816 421.357C859.678 421.057 867.885 417.676 870.721 425.093C873.366 430.9 868.076 434.8 864.886 438.808C865.486 443.552 865.922 448.324 866.004 453.122C861.478 454.758 855.997 457.949 852.071 453.368C846.999 448.269 839.556 451.132 833.23 450.723C831.866 446.279 828.049 441.071 832.793 437.281C837.974 432.291 835.247 425.011 835.247 418.767Z" fill="white"/>
<path d="M218.411 472.342C225.228 457.509 239.325 444.967 255.984 443.331C262.31 442.404 267.927 445.54 273.026 448.839C276.107 456.119 276.461 463.999 275.971 471.797C272.589 482.84 268.581 493.774 261.983 503.371C248.513 503.371 233.98 505.089 221.82 498.027C213.749 492.083 214.758 480.495 218.411 472.342Z" fill="white"/>
<path d="M346.135 13.8055C351.806 12.0332 358.596 6.71624 364.267 11.2152C370.757 16.3958 380.027 20.0495 382.917 28.3384C380.736 42.217 372.011 54.1596 367.376 67.3292C365.794 72.6734 362.522 77.1451 357.723 80.0081C340.355 71.6918 321.514 65.9114 305.672 54.814C306.926 46.416 307.39 37.7453 310.389 29.7563C321.105 22.3671 334.356 19.3405 346.135 13.8055ZM312.788 31.6922C311.752 39.1904 310.852 46.7159 309.789 54.2141C325.331 61.576 340.9 69.0743 356.905 75.3728L360.014 74.5275C366.585 58.7676 375.174 43.7984 379.427 27.1387C372.883 22.2308 366.448 17.2683 359.877 12.4149C344.063 18.5498 328.357 24.9574 312.788 31.6922Z" fill="#010101"/>
<path d="M624.415 55.1097C638.13 53.6918 653.699 54.2917 665.505 61.9808C669.95 71.0877 676.548 78.7768 686.337 82.2942C692.499 82.2669 698.77 81.5307 704.932 82.5396C713.085 88.9744 720.201 96.6908 727.345 104.244C730.808 107.325 730.344 113.132 727.4 116.432C722.928 122.185 717.938 127.665 711.858 131.728C706.841 130.419 702.151 128.129 697.216 126.602C686.309 142.035 678.811 159.594 668.586 175.49C666.16 179.989 660.052 179.58 656.289 177.126C640.038 168.128 623.733 159.185 607.755 149.778C603.42 147.951 601.866 142.335 604.129 138.354C612.854 121.939 622.479 105.961 631.068 89.4652C626.596 86.0842 621.497 83.3848 617.844 79.0495C619.098 70.8969 621.061 62.6625 624.415 55.1097ZM626.569 58.627C624.851 65.3345 622.724 71.933 621.116 78.695C626.405 81.4762 635.458 84.2846 633.549 92.11C625.451 110.079 613.427 126.138 606.037 144.489C625.451 155.041 643.91 167.883 664.633 175.736C673.712 159.403 682.547 142.88 692.144 126.847C696.589 119.131 705.778 126.029 711.667 127.938C716.302 121.721 726.145 116.895 725.709 108.524C719.138 99.9082 710.467 93.2007 703.105 85.3207C694.898 85.5661 686.119 87.2567 678.702 82.7305C670.25 79.1313 666.46 70.3243 661.661 63.2078C651.818 59.8813 641.484 58.4089 631.477 55.7368C630.25 56.473 627.796 57.8908 626.569 58.627Z" fill="#010101"/>
<path d="M420.467 177.679C431.1 165.709 447.079 157.638 463.357 160.256C477.699 162.001 488.905 172.635 496.921 183.923C508.564 201.401 514.89 221.823 519.471 242.164C521.516 241.973 525.578 241.564 527.623 241.373C533.649 240.863 527.623 241.317 533.649 240.861C538.5 241.95 533.24 244.918 533.649 240.691C548.891 243.145 561.87 253.561 566.832 268.258C588.727 258.66 611.631 250.943 635.298 247.235C647.758 246.145 663.627 244.809 672.162 256.015C675.979 268.803 667.227 280.227 660.601 290.261C643.314 313.356 621.828 332.933 600.07 351.774C598.925 355.455 600 352.951 601.5 361.951C605.741 370.397 601.5 361.951 605.741 370.397C611.167 385.23 617.166 399.817 622.455 414.705C605.223 408.924 586.382 408.215 568.959 413.587C570.24 407.779 569.897 400.713 572.885 396.191C570.868 399.245 570.868 410.451 568.959 413.587C567.514 405.571 563.424 389.674 561.161 381.876C491.686 431.146 413.514 467.165 332.342 492.441C321.108 495.849 309.793 499.04 298.205 501.112C298.232 515.508 295.723 532.25 306.521 543.729C314.564 553.627 328.198 556.735 340.331 554.472C403.616 545.992 466.71 536.094 530.05 528.16C531.141 529.769 532.231 531.377 533.322 533.041C532.286 533.068 530.186 533.15 529.15 533.177L526.233 533.122C504.065 533.831 482.307 539.257 460.221 541.139C421.339 547.41 382.267 552.045 343.303 557.853C334.96 559.38 326.48 558.753 318.218 557.035C311.511 552.836 304.094 548.828 300.222 541.602C291.906 530.15 295.314 515.317 294.605 502.175C292.37 502.693 287.871 503.702 285.635 504.193C278.518 505.529 271.293 506.156 264.067 506.81C249.807 526.878 228.076 541.03 203.809 545.474C189.576 547.982 171.689 543.92 165.445 529.469C158.001 514.281 164.027 497.022 170.271 482.516C189.221 444.452 223.958 416.75 261.095 397.5C271.729 391.447 284.081 388.12 294.278 381.767C295.151 362.49 293.46 343.158 294.714 323.881C295.342 314.419 301.967 306.649 308.702 300.541C322.553 288.516 335.205 274.229 352.819 267.603C353.419 240.473 358.054 210.126 378.449 190.358C389.274 179.206 405.525 176.207 420.467 177.679ZM425.102 178.224C453.677 190.276 466.465 221.169 474.672 248.898C488.441 246.963 502.293 245.627 515.953 243.036C512.163 226.758 507.228 210.589 499.593 195.647C493.05 183.541 484.406 171.299 471.073 166.173C454.986 160.338 436.608 165.845 425.102 178.224ZM376.868 197.202C360.781 216.37 358.081 242.355 356.227 266.322C371.796 261.932 388.265 262.968 403.752 258.278C401.462 231.693 404.734 204.073 417.876 180.487C402.662 179.997 386.684 185.014 376.868 197.202ZM422.348 181.742C407.624 204.154 405.688 232.184 406.806 258.251C428.265 256.151 449.478 251.843 470.964 249.826C463.057 223.077 450.869 191.994 422.348 181.742ZM476.035 252.334C477.453 258.905 479.198 265.422 480.971 271.911C492.75 269.294 504.774 268.83 516.771 268.367C516.226 260.023 520.534 252.825 524.815 246.09C508.428 247.317 492.395 251.025 476.035 252.334ZM607.677 257.297C593.144 261.986 578.175 266.076 565.033 274.093C573.976 283.145 576.593 295.906 581.229 307.303C586.737 321.072 591.999 334.896 597.152 348.802C617.357 332.742 636.007 314.556 652.53 294.706C660.792 283.363 671.726 270.875 668.89 255.742C649.722 245.627 627.254 251.843 607.677 257.297ZM452.014 255.742C420.439 261.468 388.211 263.404 356.854 270.303C356.309 276.247 356.5 282.218 356.445 288.189C396.854 284.345 436.935 277.501 477.126 271.775C475.681 265.585 473.909 259.478 472.245 253.37C465.511 254.134 458.749 254.87 452.014 255.742ZM546.192 257.542C544.174 262.395 550.118 266.185 552.817 261.196C553.553 256.233 549.709 256.724 546.192 257.542ZM321.899 292.634C326.643 293.397 331.333 294.515 335.641 296.669C316.528 294.76 297.468 310.03 297.741 329.716C297.741 385.721 298.068 441.726 298.123 497.758C310.502 494.731 322.826 491.459 335.014 487.779C409.124 463.893 481.271 432.155 545.537 387.793C550.145 384.221 556.307 381.985 559.525 376.996C551.454 350.329 543.465 323.663 535.503 296.969C531.304 281.454 514.89 270.357 498.939 272.511C445.688 280.773 392.164 287.317 338.886 295.524C336.732 294.188 334.605 292.879 332.478 291.543C339.431 291.298 346.384 290.616 353.31 289.689C353.119 283.608 352.928 277.528 352.683 271.448C341.067 276.437 331.906 285.19 321.899 292.634ZM531.222 284.481C533.049 283.69 536.676 282.136 538.502 281.345C537.521 279.573 536.457 277.855 535.312 276.219C531.168 276.737 532.149 281.536 531.222 284.481ZM551.754 291.543C551.672 293.343 551.454 296.942 551.345 298.741C553.199 298.578 556.88 298.196 558.734 298.032C557.889 294.324 555.544 292.061 551.754 291.543ZM571.304 308.448C568.059 312.483 575.094 316.71 577.766 312.783C580.929 308.775 573.894 304.222 571.304 308.448ZM556.444 327.644C556.444 329.279 556.416 332.497 556.416 334.133C557.943 334.078 561.052 333.997 562.606 333.969C562.606 332.524 562.66 329.661 562.66 328.216C561.106 328.08 557.998 327.78 556.444 327.644ZM576.621 349.348C579.238 352.074 584.664 349.293 583.819 345.53C582.101 338.686 571.904 344.14 576.621 349.348ZM561.324 363.581C556.989 367.452 564.187 372.687 567.65 369.088C571.522 365.244 564.814 359.954 561.324 363.581ZM580.792 378.168C580.438 382.503 583.056 384.93 586.982 386.102C587.227 383.43 587.445 380.758 587.636 378.086C585.918 378.113 582.51 378.141 580.792 378.168ZM238.191 415.114C208.389 435.045 180.605 461.657 168.826 496.367C165.527 509.319 163.427 526.497 175.07 536.04C180.578 541.493 188.949 541.52 196.201 541.602C221.177 541.466 243.699 526.606 259.05 507.765C244.517 507.165 227.23 509.019 216.106 497.676C208.798 488.133 212.179 474.936 217.796 465.447C226.849 450.478 243.481 438.018 261.695 439.926C271.129 440.362 278.437 448.46 279.691 457.513C282.145 473.818 274.074 489.115 267.039 503.211C276.255 501.821 285.362 499.776 294.605 498.63C294.66 461.385 294.442 424.112 294.469 386.839C274.837 394.337 255.751 403.471 238.191 415.114ZM603.178 393.737C600.152 394.964 599.77 401.399 604.487 399.572C611.113 401.153 607.786 390.329 603.178 393.737ZM218.396 472.346C214.742 480.498 213.734 492.087 221.804 498.031C233.965 505.093 248.498 503.375 261.968 503.375C268.566 493.777 272.574 482.843 275.955 471.8C276.446 464.002 276.092 456.122 273.011 448.842C267.912 445.543 262.295 442.407 255.969 443.334C239.309 444.97 225.213 457.513 218.396 472.346Z" fill="#010101"/>
<path d="M138.956 219.473C140.729 215.956 143.128 212.63 146.754 210.803C151.771 210.203 155.425 213.911 158.833 216.965C162.078 220.182 166.604 223.454 165.732 228.662C163.087 236.16 158.615 242.868 155.861 250.339C171.894 266.071 189.208 280.495 204.586 296.828C217.865 315.642 205.977 343.644 185.418 351.497C169.385 360.249 146.073 349.016 144.846 330.311C142.446 315.832 150.626 302.881 160.524 293.174C149.999 277.687 133.612 267.217 120.797 253.665C126.686 242.186 133.067 230.952 138.956 219.473ZM144.682 216.174C138.793 228.717 131.758 240.687 125.35 252.984C136.993 264.245 149.563 274.524 160.824 286.167C165.05 290.502 162.678 297.237 158.697 300.836C150.19 310.243 143.837 324.585 150.435 336.746C156.352 350.924 175.793 354.142 187.899 346.071C204.886 337.346 213.639 311.361 199.324 296.61C184.873 281.75 168.704 268.58 154.389 253.611C149.726 243.631 161.969 235.451 161.86 225.581C157.715 220.237 152.289 213.747 144.682 216.174Z" fill="#010101"/>
<path d="M267.3 218.684C272.808 213.067 280.715 217.266 285.159 222.01C284.532 226.427 285.814 232.099 281.315 234.852C277.279 239.733 271.063 236.161 266.073 235.207C264.219 229.781 261.847 222.937 267.3 218.684ZM269.754 221.601C262.419 227.681 273.162 238.479 279.597 231.799C285.514 225.091 276.243 215.221 269.754 221.601Z" fill="#010101"/>
<path d="M848.953 250.639C850.507 248.976 852.034 247.313 853.588 245.65C860.187 244.968 868.585 247.667 866.294 256.065C865.695 264.927 854.488 263.809 849.199 259.855C849.062 256.774 848.98 253.72 848.953 250.639ZM852.961 251.212C848.79 257.838 859.56 263.264 862.968 256.529C865.067 249.712 857.324 246.931 852.961 251.212Z" fill="#010101"/>
<path d="M343.032 305.012C346.14 309.538 345.677 315.018 344.75 320.199C341.26 315.809 342.377 310.111 343.032 305.012Z" fill="#010101"/>
<path d="M342.953 348.062C348.106 353.052 348.842 364.177 343.144 369.003C342.544 362.05 342.462 355.043 342.953 348.062Z" fill="#010101"/>
<path d="M11.1792 361.043C16.278 364.669 21.5404 368.078 26.2029 372.249C23.1218 377.839 18.9501 382.747 15.2419 387.9C10.1431 384.083 4.96247 380.348 0 376.339C3.57188 371.131 7.2801 366.033 11.1792 361.043ZM11.0974 366.033C9.21601 369.332 7.38916 372.686 5.58959 376.039C8.64341 378.303 11.779 380.429 14.9147 382.583C17.0142 379.393 19.1682 376.23 21.3222 373.067C17.9412 370.668 14.5329 368.323 11.0974 366.033Z" fill="#010101"/>
<path d="M724.102 372.029C725.71 372.166 728.9 372.438 730.509 372.602C733.863 375.765 737.38 378.764 740.925 381.763C739.316 382.036 737.707 382.309 736.099 382.581C732.227 378.928 728.11 375.547 724.102 372.029Z" fill="#010101"/>
<path d="M342.922 398.809C343.931 398.863 345.948 398.972 346.957 398.999C347.039 405.652 347.121 412.305 346.685 418.931C345.758 417.977 343.876 416.068 342.922 415.114C342.949 409.688 342.895 404.235 342.922 398.809Z" fill="#010101"/>
<path d="M835.913 412.711C840.821 412.329 845.757 412.275 850.664 412.547C851.728 413.829 853.8 416.365 854.836 417.646C861.544 415.547 870.841 415.438 873.786 423.263C877.304 429.589 873.105 435.996 868.551 440.304C869.233 444.64 871.387 449.52 868.333 453.474C864.243 461.954 851.891 461.109 846.684 454.183C841.421 454.21 836.186 454.047 830.978 453.447C825.089 446.548 825.061 436.814 832.587 431.061C830.733 424.545 832.096 418.164 835.913 412.711ZM835.259 418.764C835.259 425.008 837.986 432.288 832.805 437.278C828.061 441.068 831.878 446.276 833.241 450.72C839.567 451.129 847.011 448.266 852.082 453.365C856.009 457.946 861.489 454.756 866.015 453.12C865.934 448.321 865.497 443.549 864.897 438.805C868.088 434.797 873.377 430.898 870.732 425.09C867.897 417.673 859.69 421.054 853.827 421.354C848.892 415.492 841.53 413.393 835.259 418.764Z" fill="#010101"/>
<path d="M344.727 445.592C349.116 452.463 348.817 462.061 345.081 469.15C342.9 461.461 343.227 453.363 344.727 445.592Z" fill="#010101"/>
<path d="M586.99 464.679C589.799 464.27 592.607 463.97 595.47 463.779C596.479 468.987 597.461 474.195 598.415 479.43C606.295 478.994 616.002 476.104 618.756 486.274C613.057 488.892 606.867 489.982 600.733 490.909C600.296 496.881 603.077 503.779 599.587 509.15C589.635 512.095 590.535 499.825 589.39 493.5C582.955 493.2 575.075 496.717 570.194 490.964C569.594 481.175 581.155 483.956 587.372 482.13C587.018 476.322 586.309 470.487 586.99 464.679Z" fill="#010101"/>
<path d="M489.656 486.738C494.319 484.012 499.608 483.412 504.925 483.466C501.735 489.165 494.946 487.583 489.656 486.738Z" fill="#010101"/>
<path d="M439.383 494.86C442.846 488.343 453.343 490.906 459.614 488.834C459.396 490.006 458.987 492.324 458.769 493.496C452.334 494.096 445.872 494.942 439.383 494.86Z" fill="#010101"/>
<path d="M343.922 498.874C344.822 498.438 346.594 497.593 347.467 497.156C347.63 498.792 347.957 502.037 348.121 503.646C350.084 503.646 354.01 503.618 355.946 503.591C355.755 504.6 355.374 506.59 355.183 507.572C351.611 508.063 348.039 508.526 344.494 508.99C344.276 505.609 344.085 502.228 343.922 498.874Z" fill="#010101"/>
<path d="M386.094 500.778C393.756 498.488 401.717 496.852 409.761 497.07C402.944 501.624 393.919 503.751 386.094 500.778Z" fill="#010101"/>
<path d="M337.064 513.955C338.7 513.955 341.918 514.01 343.527 514.037C340.745 517.336 337.937 520.581 334.992 523.744C335.647 520.444 336.328 517.2 337.064 513.955Z" fill="#010101"/>
<path d="M79.0078 531.616C83.9975 526.463 90.9232 524.336 97.3853 521.719C97.9852 522.4 99.1849 523.736 99.7575 524.418C93.2408 527.826 86.3697 530.717 79.0078 531.616Z" fill="#010101"/>
<path d="M318.539 546.258C319.493 541.595 321.266 536.497 326.037 534.615C326.937 540.041 322.111 543.231 318.539 546.258Z" fill="#010101"/>
<path d="M311.645 614.126C322.742 610.827 327.078 629.722 316.144 632.094C305.019 635.748 300.684 616.743 311.645 614.126ZM310.718 618.243L308.946 621.569C309.218 623.124 309.791 626.259 310.064 627.813C320.97 633.73 321.515 612.926 310.718 618.243Z" fill="#010101"/>
<path d="M568.998 413.585C586.422 408.213 605.263 408.922 622.495 414.703C640.272 422.664 655.951 436.652 663.803 454.729C676.7 482.677 670.865 518.26 648.916 540.073C618.705 573.065 558.964 570.175 533.361 533.038C532.271 531.375 531.18 529.766 530.089 528.158C516.811 510.298 514.493 486.14 520.11 465.036C526.845 441.233 545.904 422.01 568.998 413.585ZM586.994 464.682C586.312 470.489 587.021 476.324 587.376 482.132C581.159 483.959 569.598 481.178 570.198 490.966C575.079 496.72 582.959 493.202 589.394 493.502C590.539 499.828 589.639 512.098 599.591 509.153C603.081 503.781 600.3 496.883 600.736 490.912C606.871 489.985 613.061 488.894 618.759 486.277C616.006 476.106 606.299 478.996 598.419 479.433C597.464 474.198 596.483 468.99 595.474 463.782C592.611 463.973 589.803 464.273 586.994 464.682Z" fill="#A5F797"/>
<g clip-path="url(#clip0_2887_400)">
<path d="M193.046 34.8346L193.07 34.8881L193.103 34.9362C193.187 35.0557 193.261 35.187 193.319 35.3246C193.768 36.3776 193.284 37.5957 192.239 38.055C192.233 38.0572 192.227 38.0594 192.222 38.0614C192.199 38.0702 192.181 38.0786 192.171 38.0833L192.159 38.0892L127.137 65.7958C126.077 66.2476 124.849 65.7535 124.397 64.6932C117.793 49.1937 127.25 31.6548 147.357 23.0869C167.241 14.6143 186.243 19.7329 193.046 34.8346ZM187.871 35.3763L188.53 35.0954L188.167 34.4773C181.431 22.9966 165.402 19.9377 148.994 26.9293C132.586 33.9209 123.69 47.6007 127.305 60.4117L127.499 61.1014L128.158 60.8205L187.871 35.3763Z" fill="black" stroke="white" stroke-width="1.26087"/>
<path d="M129.061 69.3045L193.376 41.8993C197.416 40.1778 201.992 41.9287 203.607 45.7202C205.223 49.5116 203.316 54.0248 199.276 55.7462L134.962 83.1514C130.922 84.8729 126.346 83.122 124.73 79.3305C123.115 75.5391 125.021 71.0259 129.061 69.3045ZM133.324 79.3091L197.639 51.9039C199.46 51.128 200.519 49.1262 199.765 47.3574C199.011 45.5887 196.834 44.9657 195.013 45.7416L130.699 73.1468C128.878 73.9227 127.819 75.9245 128.573 77.6933C129.326 79.462 131.504 80.085 133.324 79.3091Z" fill="black" stroke="white" stroke-width="1.26087"/>
<path d="M140.301 89.74L139.721 89.9871L139.968 90.5671L141.958 95.2368C143.348 98.4984 147.131 100.021 150.393 98.6313L199.696 77.6228C202.987 76.2202 204.524 72.4007 203.122 69.109L201.155 64.4944L200.908 63.9144L200.328 64.1615L140.301 89.74ZM136.162 86.9634L201.192 59.2534C202.253 58.8016 203.48 59.2956 203.932 60.356L206.964 67.4717C209.269 72.8814 206.743 79.1599 201.33 81.4662L152.03 102.474C146.651 104.766 140.408 102.254 138.115 96.874L135.06 89.7032C134.608 88.6429 135.102 87.4152 136.162 86.9634Z" fill="black" stroke="white" stroke-width="1.26087"/>
</g>
<defs>
<clipPath id="clip0_2887_400">
<rect width="87" height="87" fill="white" transform="translate(105 34.5586) rotate(-23.0794)"/>
</clipPath>
</defs>
</svg>
