<svg xmlns="http://www.w3.org/2000/svg" xmlns:xlink="http://www.w3.org/1999/xlink" version="1.1" x="0px" y="0px" viewBox="0 0 1500 1500" style="enable-background:new 0 0 1500 1500;" xml:space="preserve" width="1500"  height="1500" >
<style type="text/css">
	.st0{fill:#CBEDFE;}
	.st1{fill:#E84C4F;}
	.st2{fill:#FFFFFF;}
	.st3{fill:#F37E4E;}
	.st4{fill:#FFA171;}
	.st5{fill:#5E2D1E;}
	.st6{fill:#FF8533;}
	.st7{fill:#ED701B;}
	.st8{fill:#D8460E;}
	.st9{fill:#2D63D9;}
	.st10{fill:#FFAA00;}
	.st11{fill:#FFC648;}
	.st12{fill:#1949B7;}
	.st13{fill:#C82C2F;}
	.st14{fill:#FFC263;}
	.st15{fill:#FBA647;}
	.st16{fill:#FCA647;}
	.st17{fill:#EF851B;}
	.st18{fill:#FFF498;}
	.st19{fill:#FBE17B;}
	.st20{fill:#C14423;}
	.st21{fill:#D85A41;}
	.st22{fill:#FFF177;}
	.st23{fill:#B77500;}
	.st24{fill:#BA2028;}
	.st25{fill:#C1E5F2;}
	.st26{fill:none;stroke:#C82C2F;stroke-width:5px;stroke-linecap:round;stroke-linejoin:round;stroke-miterlimit:10;}
	.st27{clip-path:url(#SVGID_2_);}
	.st126{fill:url(#SVGID_101_);}
	.st127{fill:url(#SVGID_102_);}
	.st128{fill:url(#SVGID_103_);}
	.st129{fill:url(#SVGID_104_);}
	.st226{fill:url(#SVGID_201_);}
	.st227{fill:url(#SVGID_202_);}
	.st228{fill:url(#SVGID_203_);}
	.st229{fill:url(#SVGID_204_);}

	@keyframes rotate_one {

		100% {

			transform: rotateX(360deg);
		}
	}

	.sub_one {

	    transform-origin: 1240.9px 886.5px;
	    animation: rotate_one .25s linear infinite;
	}

    @keyframes rotate_two {

    	25% {

            transform: rotate(3deg);
    	}

    	75% {

            transform: rotate(-3deg);
    	}
    }

	.sub_two {

		transform-origin: 803.5px 678.2px;
		animation: rotate_two 2.4s linear infinite;
	}

    @keyframes rotate_three {

    	50% {

            transform: rotate(-20deg);
    	}
    }

	.sub_three {

		transform-origin: 496.2px 538.3px;
		animation: rotate_three .3s linear infinite;
	}

    @keyframes rotate_four {

    	50% {

    		transform: rotate(-15deg);
    	}
    }

	.sub_four {

		transform-origin: 496.2px 538.3px;
		animation: rotate_four .3s .15s linear infinite;
	}

    @keyframes rotate_five {

    	50% {
            
            opacity: .75;
    		transform: rotate(-20deg) scale(.85);
    	}
    }

	.sub_five {

		transform-origin: 496.2px 538.3px;
		transform: rotate(0deg) scale(.85);
		animation: rotate_five .7s ease infinite;
	}

    @keyframes rotate_six {

    	50% {

            opacity: .75;
    		transform: rotate(5deg) scale(.75);
    	}
    }

	.sub_six {

		transform-origin: 496.2px 538.3px;
		transform: rotate(0deg) scale(.75);
		animation: rotate_six .7s .2s ease infinite;
	}

	.sub_seven {

		transform-origin: 496.2px 538.3px;
		transform: rotateX(180deg) rotate(-10deg) scale(.85);
	}

    @keyframes rotate_seven {

    	50% {

            transform: rotate(-2deg);
    	}
    }

	.plane {

		transform-origin: 729px 876px;
		transform: rotate(1deg);
		animation: rotate_seven 4s ease-out infinite; 
	}

	@keyframes mov_right {

    	50% {

            transform: translateX(60px);
    	}
	}

	.overlay {

		animation: mov_right 7s ease-out infinite;
	}

	@keyframes mov_top {

    	50% {

            transform: translate(0px, 25px);
    	}
	}

	.main {

		animation: mov_top 3s ease infinite;
	}

	.sub_eight {

		transform-origin: 508.1px 762.8px;
		animation: shake_six 6s linear infinite;
	}

	@keyframes mov_left {

		32.5%, 100% {

			transform: translateX(-2000px);
		}
	}

	.cloud_one {

		animation: mov_left 20s linear infinite;
	}

	.cloud_two {

		animation: mov_left 20s 5s linear infinite;
	}

	@keyframes mov_left_three {

		40%, 100% {

			transform: translateX(-2000px);
		}
	}

	.cloud_four {

		animation: mov_left_three 20s 10s linear infinite;
	}

	@keyframes mov_left_two {

		25%, 100% {

			transform: translateX(-2000px);
		}
	}

	.cloud_three {

		animation: mov_left_two 20s 12s linear infinite;
	}

    @keyframes rotate_eight {

    	50% {

            transform: rotate(-30deg);
    	}
    }

	.bird_one path:nth-of-type(1) {

		transform-origin: -81px 472px;
		animation: rotate_eight .25s linear infinite;
	}

    @keyframes rotate_nine {

    	25% {

            transform: rotate(20deg);
    	}

    	75% {

            transform: rotate(-10deg);
    	}
    }

	.bird_one path:nth-of-type(5) {

		transform-origin: -42.3px 467.1px;
		animation: rotate_nine .15s linear infinite;
	}

	.bird_two path:nth-of-type(1) {

		transform-origin: -80px 688px;
		animation: rotate_eight .25s linear infinite;
	}

	.bird_two path:nth-of-type(5) {

		transform-origin: -42.3px 682.8px;
		animation: rotate_nine .15s linear infinite;
	}

	.bird_three path:nth-of-type(1) {

		transform-origin: -80px 1200px;
		animation: rotate_eight .25s linear infinite;
	}

	.bird_three path:nth-of-type(5) {

		transform-origin: -42.3px 1194px;
		animation: rotate_nine .15s linear infinite;
	}

    @keyframes rt_one {

    	50% {

    		transform: translateY(10px) rotate(-5deg);
    	}
    }

    @keyframes rt_two {

    	50% {

    		transform: translateY(10px) rotate(3deg);
    	}
    }

	.overlay_four {

		transform-origin: 1693px 1068.5px;
		transform: translateY(0px) rotate(3deg);
		animation: rt_one 2s ease-out infinite;
	}

	.overlay_five {

		transform-origin: 1778.5px 553px;
		transform: translateY(0px) rotate(3deg);
		animation: rt_one 2s ease-out infinite;
	}

	.overlay_seven {

		transform-origin: 1778.5px 559.6px;
		transform: translateY(0px) rotate(-3deg);
		animation: rt_two 2s ease-out infinite;
	}

	.wr_one {

		transform: translateY(-400px);
	}

	.wr_two {

		transform: translateY(-600px);
	}

	.wr_three {

		transform: translateY(-600px);
	}
</style>
<g>
    <g>
        <defs>
            <rect id="SVGID_1_" width="1500" height="1500"/>
        </defs>
        <clipPath id="SVGID_2_">
            <use xlink:href="#SVGID_1_" style="overflow:visible;"/>
        </clipPath>
    </g>
    <g class="st27">
	    <rect class="st0" width="1500" height="1500"/>
        <g class="cloud_one">
            <g class="overlay_four">
	            <linearGradient id="SVGID_101_" gradientUnits="userSpaceOnUse" x1="1735.8422" y1="553.8052" x2="1749.5328" y2="189.9439" gradientTransform="matrix(1 0 0 -1 0 1500)">
		            <stop offset="0.2354" style="stop-color:#FFFFFF"/>
		            <stop offset="0.4518" style="stop-color:#EDE7F8"/>
		            <stop offset="0.978" style="stop-color:#D6D5F5;stop-opacity:0.5"/>
	            </linearGradient>
	            <path filter="url(#blurMe)" class="st126" d="M1718.7,949.1c70.4-15.6,134.2,27.7,147.6,46.3c13.3,18.5,22.5,42.3,22.5,42.3           s5.5-5.2,22.1-0.2c16.7,5,16.1,17.3,16.1,17.3s30.4-6.7,43.2,21.5c12.8,28.1-10.7,54.3-22.7,60.5c-12.1,6.2-30-0.2-30-0.2           s-22.9,63.2-113.3,69.4c-90.4,6.2-120.7-36.7-120.7-36.7s-26.1,24.7-78.3,26c-52.2,1.4-75.9-20.5-87.9-38.9           c-12.1-18.4-13.1-72,28.6-97.2c46.8-28.3,96.1-15.5,96.1-15.5S1623.6,970.1,1718.7,949.1z"/>
            </g>
        </g>
        <g class="cloud_two">
	        <g class="overlay_five">
	    <linearGradient id="SVGID_103_" gradientUnits="userSpaceOnUse" x1="1677.7235" y1="1070.7406" x2="1673.0259" y2="877.2376" gradientTransform="matrix(1 0 0 -1 0 1500)">
		    <stop offset="0.3605" style="stop-color:#FFFFFF"/>
		    <stop offset="1" style="stop-color:#E1E3F8"/>
	    </linearGradient>
	    <path class="st128" filter="url(#blurMe)" d="M1570.4,489.2c0,0-59.5-4.8-54.6,43.1c3.8,36.8,60.9,26.7,60.9,26.7s4.2,26.6,26.7,43.1   c24.1,17.8,72.4,22.8,95.2,13.9c21.8-8.4,31.7-21.5,31.7-21.5s28.1,14.2,69.8,3.8c35.6-8.9,35.3-35.5,34.3-49.5   c-1.3-17.8-21.6-33.5-39.3-32.9c-16.5,0.4-22.8,3.8-22.8,3.8s-2.5-31.7-25.4-43.1c-22.8-11.4-45.7-1.3-45.7-1.3   s-17.5-42.6-53.3-45.7C1604.8,425.9,1576.7,451.2,1570.4,489.2z"/>
            </g>
        </g>
        <g class="wr_one">
          <g class="bird_one">
		   <g class="overlay_one">
		    <path class="st11" d="M-84.6,465.6c0,0-8.1-8.8-13.3-9.6c-5.2-0.7-4.4,5.9-4.4,5.9s-3.7,1.1-4.1,4.8c-0.4,3.7,1.5,6.3,7,6.6    c5.5,0.4,19.2-1.1,19.2-1.1L-84.6,465.6z"/>
		    <path class="st11" d="M-40.8,448.3c8.1-1,15.9,0,19.5,10c3.7,10,1.5,23.6-19.9,30.2s-34.3-5.2-38-8.5s-10-11.8-10-11.8    S-64,451.3-40.8,448.3z"/>
		    <path class="st11" d="M-21.6,467.1c0,0,4.8-3,6.7-5c2-2,1.9-2.9-1.3-4.1s-9.1-2.4-9.1-2.4L-21.6,467.1z"/>
		    <path class="st10" d="M-42.6,466.7c0,0-2.5,3.3-22.3,6.9c-16.3,2.9-18.4-1.9-20.3-10c-1.9-8.1,15.1-5.1,23.4-3.1    C-53.6,462.4-44.1,459.5-42.6,466.7z"/>
		    <path class="st22" d="M-42.6,466.7c1.4-2.3-3.3-14.7-10.3-23.6c-7-8.8-14-13.3-19.9-12.5c-5.9,0.7-10.3,2.6-10.3,8.8    c0,6.3,1.8,10,1.8,10s-7.4,1.1-7,9.2s7.4,10.3,14.4,11.8s17.7,1.1,21.8,0C-48.1,469.3-43.7,468.6-42.6,466.7z"/>
		    <path class="st23" d="M-34.7,459.4c1.8,0,3.3-1.5,3.3-3.3s-1.5-3.3-3.3-3.3s-3.3,1.5-3.3,3.3S-36.5,459.4-34.7,459.4z"/>
		    <path class="st10" d="M-13.9,459.5l-8.3,1.5c0,0-1.9,9.9-7.8,14.8c-5.3,4.4-9.2,6.4-17.7,7.9c-8.4,1.5-15.9,0.7-21.1-1.2    c-5.3-1.8-7.1-2.8-10.6-4.8c-1.8-1-6.2-5.1-6.2-5.1s5.3,7.4,10.4,10.7c5.1,3.3,10.7,6.3,17.5,6.9c6.8,0.7,14.5-0.2,22.1-3.5    s11.1-7.4,12.7-10.2c1.7-2.8,2.8-5.8,3-7.3s0-3.6,0-3.6s3.6-2.6,5-3.7C-13.4,461-13.7,460.8-13.9,459.5z"/>
	      </g>
	    </g>
	<animateTransform begin="myanim.end" id="pause" dur="2s" type="translate" attributeType="XML" attributeName="transform"/>
        <animateMotion id="myanim" dur="3s" begin="0; pause.end" path="M-15.5,478.1l288.3-157.8c198.9-108.8,444.1-84.7,618,60.6c0.1,0.1,0.2,0.1,0.2,0.2c0.2,0.2,0.4,0.4,0.7,0.6      c0.4,0.3,0.7,0.6,1.1,0.9c0.5,0.4,1,0.8,1.5,1.2c0.6,0.5,1.2,1,1.8,1.5c0.7,0.6,1.4,1.2,2.1,1.8c0.8,0.7,1.6,1.4,2.4,2      c0.9,0.8,1.8,1.5,2.7,2.3c1,0.8,2,1.6,2.9,2.5c1,0.9,2.1,1.8,3.1,2.6c1.1,0.9,2.2,1.8,3.3,2.8c1.2,1,2.3,1.9,3.5,2.9      c1.2,1,2.4,2,3.6,3c1.2,1,2.4,2,3.7,3.1c1.2,1,2.5,2.1,3.7,3.1c1.3,1,2.5,2.1,3.8,3.1c1.3,1,2.5,2.1,3.8,3.1c1.2,1,2.5,2.1,3.7,3.1      c1.2,1,2.4,2,3.7,3.1c1.2,1,2.4,2,3.6,3c1.2,1,2.3,1.9,3.5,2.9c1.1,0.9,2.2,1.8,3.3,2.8c1,0.9,2.1,1.7,3.1,2.6c1,0.8,2,1.6,2.9,2.4      c1.7,1.4,3.4,2.9,5.1,4.3c9.1,7.6,18,15.6,27.4,22.9c8.4,6.6,17.1,12.8,26.1,18.7c8.9,5.8,18,11.2,27.3,16.1      c9.2,4.9,18.7,9.5,28.3,13.6c9.6,4.1,19.3,7.8,29.2,11c9.8,3.2,19.8,6.1,29.9,8.5c10,2.4,20.2,4.4,30.4,5.9      c10.2,1.5,20.4,2.6,30.7,3.3c10.3,0.7,20.6,0.9,30.9,0.7c10.3-0.2,20.6-0.8,30.9-1.9c10.3-1.1,20.5-2.6,30.7-4.5      c10.2-2,20.4-4.4,30.4-7.2c10.1-2.8,20-6.1,29.8-9.8c9.9-3.7,19.6-7.9,29.2-12.5c9.6-4.6,19.1-9.7,28.3-15.1      c6.1-3.6,12.1-7.4,18-11.4l68.3-46l41.8-26.6">
    </animateMotion>
</g>
<g class="wr_two">
    <g class="bird_two">
	    <g class="overlay_two">
		    <path class="st11" d="M-84.6,681.3c0,0-8.1-8.8-13.3-9.6c-5.2-0.7-4.4,5.9-4.4,5.9s-3.7,1.1-4.1,4.8c-0.4,3.7,1.5,6.3,7,6.6    c5.5,0.4,19.2-1.1,19.2-1.1L-84.6,681.3z"/>
		    <path class="st11" d="M-40.8,664c8.1-1,15.9,0,19.5,10c3.7,10,1.5,23.6-19.9,30.2c-21.4,6.6-34.3-5.2-38-8.5s-10-11.8-10-11.8    S-64,667-40.8,664z"/>
		    <path class="st11" d="M-21.6,682.8c0,0,4.8-3,6.7-5c2-2,1.9-2.9-1.3-4.1c-3.2-1.2-9.1-2.4-9.1-2.4L-21.6,682.8z"/>
		    <path class="st10" d="M-42.6,682.5c0,0-2.5,3.3-22.3,6.9c-16.3,2.9-18.4-1.9-20.3-10s15.1-5.1,23.4-3.1    C-53.6,678.1-44.2,675.2-42.6,682.5z"/>
		    <path class="st22" d="M-42.6,682.5c1.4-2.3-3.3-14.7-10.3-23.6c-7-8.8-14-13.3-19.9-12.5c-5.9,0.7-10.3,2.6-10.3,8.8    c0,6.3,1.8,10,1.8,10s-7.4,1.1-7,9.2s7.4,10.3,14.4,11.8s17.7,1.1,21.8,0C-48,685.1-43.7,684.3-42.6,682.5z"/>
		    <path class="st23" d="M-34.7,675.1c1.8,0,3.3-1.5,3.3-3.3s-1.5-3.3-3.3-3.3s-3.3,1.5-3.3,3.3S-36.5,675.1-34.7,675.1z"/>
		    <path class="st10" d="M-13.9,675.2l-8.3,1.5c0,0-1.9,9.9-7.8,14.8c-5.3,4.4-9.2,6.4-17.7,7.9c-8.4,1.5-15.9,0.7-21.1-1.2    c-5.3-1.8-7.1-2.8-10.6-4.8c-1.8-1-6.2-5.1-6.2-5.1s5.3,7.4,10.4,10.7s10.7,6.3,17.5,6.9c6.8,0.7,14.5-0.2,22.1-3.5    s11.1-7.4,12.7-10.2s2.8-5.8,3-7.3s0-3.6,0-3.6s3.6-2.6,5-3.7C-13.4,676.7-13.7,676.5-13.9,675.2z"/>
	    </g>
	</g>
	<animateTransform begin="myanim1.end" id="pause" dur="2s" type="translate" attributeType="XML" attributeName="transform"/>
        <animateMotion id="myanim1" dur="1.2s" begin="1; pause.end" path="M-14.9,677.6l352.8-245.3c278.9-193.9,641.6-219.5,945-66.7L1531,490.5">
    </animateMotion>
</g>
            <g class="main">
                <g class="overlay">
                    <g class="plane">
  	                    <path class="st1" d="M1015.2,1060.9c-53.6,0-73.2-69.3-74-72.4l20.3-5.5l-10.2,2.8l10.2-2.8c0.2,0.6,17.5,61.8,59.2,56.6                      c17.3-2.2,29.8-12.3,37.2-30c5.8-14,6.3-27.7,6.3-27.8l21.1,0.4c-0.5,24.5-14.1,72.4-61.9,78.3                      C1020.6,1060.7,1017.9,1060.9,1015.2,1060.9z"/>
                        <path class="st1" d="M1032.2,1046.7l-20.1,6.6l27,82.2l20.1-6.6L1032.2,1046.7z"/>
                        <g class="sub_two">
                            <path class="st3" d="M882.1,612.4c3.1,7,4.4,10.8,5.4,12.1s0,4.1-2.3,4.9c-2.3,0.8-10.3,3.3-10.3,3.3L871,605l2.3-4.6l3.1-3.9                          C876.4,596.5,880.3,608.3,882.1,612.4z"/>
                            <path class="st4" d="M784.5,662.7c0,0,10.8-10,13.1-15.1c2.3-5.1,0.8-10.5-0.5-15.7c-1.3-5.1,6.4-6.4,9.2-5.4s49.8,33.9,49.8,33.9                          s-9.8,5.9-16.7,12.3c-6.9,6.4-11.6,19.8-11.6,19.8L784.5,662.7z"/>
                            <path class="st3" d="M811.2,656.9c5.4,11.6,18.3,29.9,18.3,29.9s4.2-8.4,7-11.6s14.8-12,14.8-12l-20-37.6l-33.4,3.2l1.1,9.8                          C798.9,638.6,806.6,647,811.2,656.9z"/>
                            <path class="st4" d="M876.9,574.9c0,0,1.5,4.1,2.1,16.2c0.5,12.1-2.3,17.5-1.3,26.2s2.1,14.9,1.8,23.1c-0.3,8.2-0.5,15.7-4.4,20.3                          c-3.9,4.6-7.7,5.4-15.4,5.6c-7.7,0.3-15.4-0.5-26.4-6.7c-11-6.2-22.8-10.8-25.2-21.8s-1-21.6-1-21.6l39.8-37.2L876.9,574.9z"/>
                            <path class="st5" d="M778.1,612.9c-2.1,1.1,0.8,5.4,3.3,11c2.6,5.6,2.8,11,10.8,10.8s9.5,0.8,13.1,3.1c3.6,2.3,10.5,2.1,16.2,2.3                          c5.6,0.3,13.1,1.5,13.1,1.5s-5.4-16.2-14.1-20.3c-8.7-4.1-30.8-6.2-30.8-6.2S779.7,612.1,778.1,612.9z"/>
                        </g>
                        <path class="st6" d="M235,697.1c25.2-14.9,58.8,10.1,103.5,38.5c44.6,28.4,69.5,42.2,79.8,46.8c10.3,4.6,18.2,5.7,26.2,6.8                      c8,1.1,27.4,0,27.4,0L274.7,861c0,0-36.5-79.8-46.7-103.7C217.7,733.4,219.4,706.3,235,697.1z"/>
                        <path class="st7" d="M235,697.1c0,0,76.5,85.1,90.8,97.2c14.3,12.1,85-14.3,85-14.3l33.6,9.3L274.7,861c0,0-38.7-86.6-46.7-103.7                      C219.9,740.2,217.1,710.2,235,697.1z"/>
                        <path class="st8" d="M259.2,825.3l12,27.7c0,0,59.8-25.6,77.7-39.7c17.9-14.1,25.6-26.1,25.6-29.9                      C374.5,779.6,259.2,825.3,259.2,825.3z"/>
                        <g class="sub_two">
                            <path class="st5" d="M855.4,595.7c0,0,1.8-9.8,11.3-13.3c9.5-3.6,16.7-4.4,21-9.5c4.4-5.1,6.2-12.6,6.4-17.2                          c0.3-4.6-0.5-2.3-3.3-0.5s-12.8,5.1-12.8,5.1l-23.9,12.1l-5.4,14.4L855.4,595.7z"/>
                        </g>
                        <path class="st10" d="M203.2,807.8c13.1-8.8,33.9-33.5,60.7-29.5c41,6.2,81.3-9.7,96.4-8.7c15,1,24.8,10.6,4.4,23.2                      c-20.4,12.5-70.2,28.3-99.2,35c-28.9,6.7-65.9,5.4-71.3,1.6C188.9,825.5,194.7,813.5,203.2,807.8z"/>
                        <path class="st11" d="M211.9,799.6c13.1-8.8,26.3-25.2,53.4-25.5c12.8-0.2,18.7,1.2,32.1,0.5c22.3-1.1,47.8-6.5,57.1-5.9                      c15,1,30,5.8,9.6,18.3s-70.2,28.3-99.2,35c-28.9,6.7-65.9,5.4-71.3,1.6C188.2,819.8,203.3,805.4,211.9,799.6z"/>
                        <g class="sub_eight">
                            <path class="st9" d="M778.2,651.9c0,0-45.1,32.1-72.6,58.1s-42,55.8-51.2,74.1c-9.2,18.3-8.4,58.9,6.1,80.3                          c14.5,21.4,73.4,28.3,110.8,22.2c37.5-6.1,89.4-58.1,89.4-58.1s-20.6-23.7-25.2-59.6c-4.6-35.9,1.5-74.9-1.5-78.7                          c-3.1-3.8-27.5-17.6-35.9-23.7C789.7,660.3,778.2,651.9,778.2,651.9z"/>
                            <path class="st12" d="M798,859.2c0,0-37.7-10.5-50.3-57.8c-7.3-27.4-8.2-44.8-8.2-44.8s-3.7,46.6-3.7,74.9c0,28.3-28.3,25.6-32,22.8                          c-3.7-2.7,6.4,29.2,6.4,29.2l93.3-5.2L798,859.2z"/>
                            <path class="st12" d="M846.3,835.5c0,0-15.9-18.4-19.3-49.1c-4.8-43.3,7.8-91.2,7.8-91.2s-3.8,45.5,0.8,73.7c3.6,22,7.1,29,11,37.3                          c6,12.8,14.2,22.4,14.2,22.4L846.3,835.5z"/>
                            <path class="st14" d="M610.1,623.7l-234.5,9l1,25.9l234.5-9L610.1,623.7z"/>
                            <path class="st15" d="M610.6,635.4l-234.5,9l0.4,9.6l234.5-9L610.6,635.4z"/>
                            <path class="st14" d="M614.3,613.4l-243.7,9.4l1,25.9l243.7-9.4L614.3,613.4z"/>
                            <path class="st14" d="M612.9,695.7l-234.5,9l1,25.9l234.5-9L612.9,695.7z"/>
                            <path class="st15" d="M613.4,707.5l-234.5,9l0.4,9.6l234.5-9L613.4,707.5z"/>
                            <path class="st14" d="M617.1,685.5l-243.7,9.4l1,25.9l243.7-9.4L617.1,685.5z"/>
                            <path class="st16" d="M610.5,587.7l-234.5,9l1,25.9l234.5-9L610.5,587.7z"/>
                            <path class="st17" d="M611.1,601.2l-234.5,9l0.3,7.9l234.5-9L611.1,601.2z"/>
                            <path class="st15" d="M614.8,577.5l-243.7,9.4l1,25.9l243.7-9.4L614.8,577.5z"/>
                            <path class="st16" d="M607.9,660l-234.5,9l1,25.9l234.5-9L607.9,660z"/>
                            <path class="st17" d="M608.5,673.6l-234.5,9l0.3,7.9l234.5-9L608.5,673.6z"/>
                            <path class="st15" d="M612.1,649.8l-243.7,9.4l1,25.9l243.7-9.4L612.1,649.8z"/>
                            <path class="st16" d="M610.7,732.2l-234.5,9l1,25.9l234.5-9L610.7,732.2z"/>
                            <path class="st17" d="M611.2,745.8l-234.5,9l0.3,7.9l234.5-9L611.2,745.8z"/>
                            <path class="st15" d="M614.9,722l-243.7,9.4l1,25.9l243.7-9.4L614.9,722z"/>
                            <path class="st14" d="M599.1,552.2l-234.5,9l1,25.9l234.5-9L599.1,552.2z"/>
                            <path class="st15" d="M600,563.6l-234.5,9l0.4,9.6l234.5-9L600,563.6z"/>
                            <path class="st14" d="M603.4,541.9l-243.7,9.4l1,25.9l243.7-9.4L603.4,541.9z"/>
                            <path class="st17" d="M386.9,685l1.9,10.1l1.8-0.1c0,0,0.5,7.1,3.9,14.6c3.3,7.5,9.4,11.4,13.3,13.8c3.9,2.4,12.5,6.4,27.2,5.6                          s27.6-3.4,35.1-9.3c7.5-5.9,30.5-29,30.5-29l3.6-0.1l4.1-10.4L386.9,685z"/>
                            <path class="st18" d="M389.7,684.4c0,0,2.7,19.6,12.9,29.1c10.7,9.9,24.3,15.9,43.4,10.4c19.1-5.4,25.2-12.6,35.7-21                          c10.5-8.4,26.4-22.7,26.4-22.7L389.7,684.4z"/>
                            <path class="st19" d="M412.5,710.5c6.6,4.6,15.6,8.1,24.1,7c8.4-1.1,20.4-5,29.9-13s30-23.6,30-23.6l-100,3.3                          C396.5,684.2,399,701,412.5,710.5z"/>
                            <path class="st20" d="M421.3,697c9.2,0.4,13.7-6.1,14.9-8.1c1.3-2.2,2-6.1,2-6.1l-31.9,1.2C406.2,684.1,408.3,696.4,421.3,697z"/>
                            <path class="st20" d="M458.5,682.3c0,0,3,9.7,15.1,9.2c10.6-0.4,14.1-10.6,14.1-10.6S459,682.2,458.5,682.3z"/>
                            <path class="st20" d="M450.9,710.3c6.4-0.2,11.4-5.6,11.1-12c-0.2-6.4-5.6-11.4-12-11.1c-6.4,0.2-11.4,5.6-11.1,12                          C439.1,705.6,444.5,710.6,450.9,710.3z"/>
                            <path class="st21" d="M424.5,692.8c1.4-0.1,2.6-1.3,2.5-2.7c-0.1-1.4-1.3-2.6-2.7-2.5c-1.4,0.1-2.6,1.3-2.5,2.7                          S423.1,692.9,424.5,692.8z"/>
                            <path class="st21" d="M450.1,707.1c1.9-0.1,3.3-1.7,3.3-3.5c-0.1-1.9-1.7-3.3-3.5-3.3c-1.9,0.1-3.3,1.7-3.3,3.5                          C446.6,705.7,448.2,707.2,450.1,707.1z"/>
                            <path class="st21" d="M447.7,698c1.2,0,2.2-1.1,2.1-2.3c0-1.2-1.1-2.2-2.3-2.1c-1.2,0-2.2,1.1-2.1,2.3                          C445.5,697.1,446.5,698.1,447.7,698z"/>
                            <path class="st21" d="M470.3,688.8c1.2,0,2.2-1.1,2.1-2.3c0-1.2-1.1-2.2-2.3-2.1c-1.2,0-2.2,1.1-2.1,2.3S469.1,688.9,470.3,688.8z"/>
                            <path class="st21" d="M477,686.5c1.2,0,2.2-1.1,2.1-2.3c0-1.2-1.1-2.2-2.3-2.1c-1.2,0-2.2,1.1-2.1,2.3                          C474.8,685.6,475.8,686.6,477,686.5z"/>
                            <path class="st13" d="M472.4,785.9c-1.1,0-2-0.9-2-1.9l-4.9-239.3c0-1.1,0.9-2,1.9-2c1.1,0,2,0.9,2,1.9l4.9,239.3                          C474.4,785,473.5,785.9,472.4,785.9z"/>
                            <path class="st13" d="M536.7,774.6c-1.1,0-2-0.9-2-1.9l-6.1-229.1c0-1.1,0.8-2,1.9-2c0,0,0,0,0.1,0c1.1,0,2,0.9,2,1.9l6.1,229.1                          C538.7,773.7,537.9,774.6,536.7,774.6C536.8,774.6,536.7,774.6,536.7,774.6z"/>
	                    </g>
                        <g class="sub_three">
                            <path class="st13" d="M496.8,544.9c-0.1,0-0.2,0-0.4,0c-1.3-0.2-31.9-5.9-38.3-20.8c-2.2-5-1.4-10.4,2.2-16.1                          c4-6.2,9.1-7.3,12.6-7.1c6.8,0.3,14.2,5.8,18.3,13.7c6.2,11.8,7.4,27.5,7.4,28.2c0,0.6-0.2,1.2-0.7,1.6                          C497.8,544.7,497.3,544.9,496.8,544.9z M472.4,504.8c-3.4,0-6.4,1.8-8.7,5.3c-2.9,4.5-3.6,8.5-1.9,12.3                          c4.6,10.7,25.4,16.2,32.7,17.9c-0.6-4.9-2.3-15.7-6.7-24c-3.5-6.7-9.5-11.4-15-11.6C472.7,504.8,472.5,504.8,472.4,504.8z"/>
                        </g>
                        <g class="sub_four">
                            <path class="st13" d="M496.8,545.8c-0.6,0-1.1-0.2-1.5-0.7c-0.4-0.5-0.6-1.1-0.5-1.8c4.6-21,14.1-35.9,24.9-38.9                          c5.6-1.5,10.9,0.2,15.4,5c2.5,2.7,3.5,6.6,2.7,10.9c-1.2,7-6.6,13.8-13.8,17.5c-11.6,5.9-26.5,7.7-27.1,7.8                          C496.9,545.8,496.8,545.8,496.8,545.8z M523.6,508c-0.9,0-1.9,0.1-2.8,0.4c-8.7,2.4-17,15.2-21.4,33.1c4.8-0.8,14.9-2.9,22.9-7                          c6.1-3.1,10.7-8.9,11.7-14.6c0.5-3.1-0.1-5.7-1.7-7.5C529.6,509.4,526.7,508,523.6,508z"/>
                        </g>
                        <path class="st13" d="M1032.6,1083c6.4-1.7,8.9-6.8,8.9-6.8l9.7,28.8l-20.1,5.8l-3.9-10.2l-5.8-18.6                      C1021.5,1082,1026.1,1084.7,1032.6,1083z"/>
                        <path class="st1" d="M1054.6,1210.6c32.3,0,58.5-26.2,58.5-58.5c0-32.3-26.2-58.5-58.5-58.5c-32.3,0-58.5,26.2-58.5,58.5                      C996.1,1184.4,1022.3,1210.6,1054.6,1210.6z"/>
                        <path class="st1" d="M469.3,1046.8l77.4-99l17,6.2l-78.9,102.1L469.3,1046.8z"/>
                        <path class="st24" d="M623.8,745.9c0,0,37.9,88.8,43.4,97.1s17.2,12.4,26.9,13.1c9.6,0.7,13.5-5.9,13.5-5.9l13.1,23.8                      c0,0-80.4-8.7-93.1-21.8c-12.7-13.1-22.4-85.1-22.4-85.1s-1.4-9.1,0.6-15.1c2-5.9,5.1-8.7,8.7-10.3C618,740,622.5,742.7,623.8,745.9                      z"/>
                        <path class="st13" d="M1054.6,1184c17.6,0,31.9-14.3,31.9-31.9s-14.3-31.9-31.9-31.9s-31.9,14.3-31.9,31.9S1037,1184,1054.6,1184z"/>
                        <path class="st11" d="M1054.6,1168.1c8.8,0,16-7.2,16-16s-7.2-16-16-16s-16,7.2-16,16S1045.8,1168.1,1054.6,1168.1z"/>
                        <path class="st11" d="M1257.5,921.4c17.1,0,30.9-13.8,30.9-30.9c0-17.1-13.8-30.9-30.9-30.9s-30.9,13.8-30.9,30.9                      C1226.6,907.6,1240.4,921.4,1257.5,921.4z"/>
                        <path class="st10" d="M1226.8,892.3c1,16.1,14.4,28.9,30.8,28.9s29.8-12.8,30.8-28.9c-7.3,1.3-18.4,2.1-30.8,2.1                      S1234.2,893.6,1226.8,892.3z"/>
	                    <g class="sub_one">
                            <path class="st9" d="M1241,633.5c-2.6,0-4.8,1.8-4.9,4l-12.5,249h34.7l-12.5-249C1245.8,635.3,1243.6,633.5,1241,633.5z"/>
                            <path class="st9" d="M1241,1139.3c-2.6,0-4.8-1.8-4.9-4l-12.5-249h34.7l-12.5,249C1245.8,1137.5,1243.6,1139.3,1241,1139.3z"/>
                        </g>
                        <g class="sub_two">
                            <path class="st5" d="M875,583c-5.8,0-10.7,6.2-12.3,14.6c-0.7,0.9-1.4,1.8-2.3,2.7c-3,3.3-7.2,3.9-7.2,3.9l0.9,13.9                          c0,0,3.7-0.9,7.4-1.3c1.5-0.2,2.9,0.2,4,0.6c2.3,4.1,6.3,6.6,10,6.6c7.1,0,11.5-9.4,11.5-20.7C887.1,592,882.1,583,875,583z"/>
                            <path class="st25" d="M877.2,617.6c4.4-0.2,7.6-6.6,7.2-14.4c-0.4-7.7-4.2-13.8-8.5-13.6c-4.4,0.2-7.6,6.6-7.2,14.4                          C869.1,611.7,872.9,617.8,877.2,617.6z"/>
                            <path class="st1" d="M808.8,540.7c21.2-12,39.6-4.3,46.8-0.5c7.2,3.8,15.7,14.8,15.7,14.8s0.7,1.6,2.8,0.6c2.1-1,9.2-5.4,11.3-6.4                          c2.1-1,3.9-1.8,5.1,0.3c1.3,2.1,1.5,4.6-5.1,9.2c-6.7,4.6-23.1,16.2-25.7,18.7c-2.6,2.6-2.8,8-2.8,13.6c0,5.6,5.4,29.5,4.1,49.8                          s-10.8,21.3-14.1,22.3c-3.3,1-10.3-2.8-12.1-10.5c-1.8-7.7-2.8-15.7-8.5-20.5c-5.6-4.9-14.9-11-23.9-13.9                          c-8.5-2.7-12.8-3.1-12.8-3.1s-8.9-17.4-4.1-40.3C789.9,554.1,799.8,545.8,808.8,540.7z"/>
                            <path class="st13" d="M808.1,542.3c0,0-2.7-5.2,2-7.7c4.7-2.5,7.7,2.7,7.7,2.7s-0.5,2.7-4.3,4.5                          C809.7,543.6,808.1,542.3,808.1,542.3z"/>
                        </g>
                        <path class="st13" d="M501.1,1006.1c0,0,4.8,0.5,8.5,2.8c3.7,2.3,7,5.8,7,5.8l19-23.8l-20.3-2.8L501.1,1006.1z"/>
                        <path class="st13" d="M977.2,1046.7c0,0,0.2-7,6-9.9c5.8-2.9,11.9-2.7,11.9-2.7s-4.4-3.1-6.8-5.3c-2.4-2.2-6.1-6.5-6.1-6.5                      s-5.3-1.6-13.1-1.4c-7.8,0.2-11,3.3-11,3.3s1,4.1,8,11.9C973.1,1043.9,977.2,1046.7,977.2,1046.7z"/>
                        <path class="st13" d="M597.2,787.8l-205.4,19.7c-6.2,0.2-12.7-3.9-12.8-22.8l-0.3-8.3c-0.2-6.2,4.7-11.5,10.9-11.8l206.4-7.8                      c6.2-0.2,11.5,4.7,11.8,10.9l0.3,8.3C608.3,782.3,603.4,787.6,597.2,787.8z"/>
                        <path class="st13" d="M1058.6,1007.7c0,0-2.3,5.9-4.1,9c-1.8,3.1-5.1,7.4-5.1,7.4s5.1-1.3,10.2,1.6c6.2,3.6,6.7,10.2,6.7,10.2                      s5.1-4.4,9-13.4c3.9-9,7.1-18.5,7.1-18.5L1058.6,1007.7z"/>
                        <g class="sub_two">
                            <path class="st1" d="M890.5,549.5c-1.3-2.1-3.1-1.3-5.1-0.3c-2.1,1-9.2,5.4-11.3,6.4c-2.1,1-2.8-0.6-2.8-0.6s-8.6-11-15.7-14.8                          c-7.2-3.8-25.6-11.5-46.8,0.5c-9,5.1-18.9,13.4-23.2,34.2c-4.8,22.9,4.1,40.3,4.1,40.3s4.4,0.4,12.8,3.1c9,2.8,18.2,9,23.9,13.9                          c4.1,3.5,5.7,8.7,7,14.2c2.3,4.8,8.3,9.6,12,8.8c3.8-0.8,4.7-4.4,7.9-16.2c3.4-12.5,3.4-36.3,3.6-47.8c0-5.6,0.3-11,2.8-13.6                          c2.6-2.6,19-14.1,25.7-18.7C892.1,554.1,891.8,551.6,890.5,549.5z"/>
                            <path class="st13" d="M845.4,655.2c-3.7,0.7-9.6-4-12-8.8c0.5,2.1,0.9,4.2,1.4,6.4c1.8,7.7,8.7,11.6,12.1,10.5                          c3.3-1,12.8-2.1,14.1-22.3c1.3-20.3-4.1-44.1-4.1-49.8c-0.2,11.6,1.3,36.9-2.1,49.3C851.6,652.3,849.2,654.4,845.4,655.2z"/>
                            <path class="st13" d="M829,612.4c12.2,0,22.1-8.9,22.1-19.9c0-11-9.9-19.9-22.1-19.9c-12.2,0-22.1,8.9-22.1,19.9                          C806.9,603.5,816.8,612.4,829,612.4z"/>
                        </g>
                        <path class="st6" d="M953.3,902.4c-0.1-5.6-0.1-11.3-0.1-17.2c0-87.1,9-132.1,9-132.1s-8-14.5-30.2-14.8c-3.9,0-12.5,1.3-12.5,1.3                      s-60.2,128.2-185.3,128.2c-112.9,0-129-100.7-129-100.7s-7.7-0.4-14,0.3c-185.6,19.8-329.5,74.6-344,108.7                      c74.4,8.7,247.3,25.7,474.1,27.5C807.2,904.4,885.3,903.7,953.3,902.4z"/>
                        <path class="st11" d="M950.5,902.4c140.6-2.8,240.7-8.4,273.1-10.4v-31.5c0-22.1-14.3-49.8-37.1-58.4c0,0-45.4-15.6-102.2-26.6                      c-63.2-12.3-123.5-22.5-123.5-22.5s-10.6,44.3-10.6,134.6l0.1,14.7"/>
                        <path class="st10" d="M1186.1,979.5c21.9-10.6,37.4-39.4,37.4-61.7v-25.9c-32.3,2.1-132.9,7.7-273.6,10.4c1,80.4,8.5,121.6,8.9,124                      c10.3-0.8,78.2-6.4,132.2-19.6C1143,994.1,1186.1,979.5,1186.1,979.5z"/>
                        <path class="st7" d="M246,896.7c0,35.6,139.2,88.2,355.1,113.6c189.7,22.3,358,16.2,358,16.2s-7.9-41.3-8.9-124.1                      c-68,1.3-143.1,2-229,1.3c-226.7-1.9-399.7-18.9-474.1-27.5c-0.8,1.9-1.2,3.7-1.2,5.4v15.1H246z"/>
                        <path class="st13" d="M490.8,1029.9c5.4,2.9,9,6.9,9,6.9l8.7-11.6c0,0-2.5-3.3-7.9-6.6c-4.7-2.8-6.7-2.8-6.7-2.8l-8,9.9                      C485.9,1025.7,487.1,1027.9,490.8,1029.9z"/>
                        <path class="st10" d="M743.7,925.9c97.4-2.3,177.9,10.8,188.7,35.6c10.8,24.7-1.5,142.3-3.1,165.5c-1.5,23.2-57.2,34-108.3,32.5                      c-51-1.5-89.7-10.8-126.8-49.5c-37.1-38.7-108.3-137.7-108.3-137.7s-2.6-6.6,2.1-10.7C601.9,949.3,646.2,928.2,743.7,925.9z"/>
                        <path class="st11" d="M743.7,917.5c97.4-2.3,177.9,10.8,188.7,35.6c10.8,24.7-1.5,142.3-3.1,165.5c-1.5,23.2-57.2,34-108.3,32.5                      c-51-1.5-89.7-10.8-126.8-49.5c-37.1-38.7-108.3-137.7-108.3-137.7S613.7,920.6,743.7,917.5z"/>
                        <path class="st10" d="M823.8,1150.7c0,0-34.4,0.5-57-5.1c-22.6-5.6-53.6-18.1-89.1-60s-91.9-121.7-91.9-121.7s17.7-23,59.4-33.4                      c29-7.3,45.9-10.2,62.9-11.3c25.8-1.6,67.4-2.6,67.4-2.6L823.8,1150.7z"/>
                        <path class="st1" d="M467.8,1107.1c23.9,0,43.3-19.4,43.3-43.3c0-23.9-19.4-43.3-43.3-43.3s-43.3,19.4-43.3,43.3                      C424.5,1087.7,443.9,1107.1,467.8,1107.1z"/>
                        <path class="st13" d="M467.8,1089.3c14.1,0,25.5-11.4,25.5-25.5c0-14.1-11.4-25.5-25.5-25.5c-14.1,0-25.5,11.4-25.5,25.5                      C442.3,1077.9,453.7,1089.3,467.8,1089.3z"/>
                        <path class="st11" d="M467.8,1074.9c6.1,0,11.1-5,11.1-11.1s-5-11.1-11.1-11.1c-6.1,0-11.1,5-11.1,11.1S461.7,1074.9,467.8,1074.9z"/>
                        <path class="st26 sub_five">
                            <animate id="animation-to-check" repeatCount="indefinite" fill="freeze" attributeName="d" dur=".7s" values="M497.3,542.9c-11.7,22.5-39.1,37.2-64.3,31.9c-12.2-2.5-22.6-9.9-33.1-16.2c-0.4-0.2-0.7-0.4-1.1-0.7                          c-11.3-6.7-22.4-13.8-33.4-21.1c-9.5-6.3-20-12.6-31.8-12.4c-0.1,0-0.1,0-0.2,0c-11.4,0.2-21.9,6.2-27.6,16.1l-3.5,6.4;                          M497.3,542.9c-23-37-47-27-55-18c-19.4,21.8-17,42-39,43c-3.5,0.2-9,0-17-5c-11.2-7-25.1-26-28-30                          c-6.7-9.4-18.3-9.6-24-11c-0.1,0-4.9-1-5-1c-10-2,0,0-18-4l-15-3;                             M497.3,542.9c-11.7,22.5-39.1,37.2-64.3,31.9c-12.2-2.5-22.6-9.9-33.1-16.2c-0.4-0.2-0.7-0.4-1.1-0.7                          c-11.3-6.7-22.4-13.8-33.4-21.1c-9.5-6.3-20-12.6-31.8-12.4c-0.1,0-0.1,0-0.2,0c-11.4,0.2-21.9,6.2-27.6,16.1l-3.5,6.4"/>
                        </path>
                        <g class="sub_seven">
                            <path class="st26 sub_six">
                                <animate id="animation-to-check" repeatCount="indefinite" fill="freeze" attributeName="d" dur=".7s" values="M497.3,542.9c-11.7,22.5-39.1,37.2-64.3,31.9c-12.2-2.5-22.6-9.9-33.1-16.2c-0.4-0.2-0.7-0.4-1.1-0.7                              c-11.3-6.7-22.4-13.8-33.4-21.1c-9.5-6.3-20-12.6-31.8-12.4c-0.1,0-0.1,0-0.2,0c-11.4,0.2-21.9,6.2-27.6,16.1l-3.5,6.4;                              M497.3,542.9c-23-37-47-27-55-18c-19.4,21.8-17,42-39,43c-3.5,0.2-9,0-17-5c-11.2-7-25.1-26-28-30                              c-6.7-9.4-18.3-9.6-24-11c-0.1,0-4.9-1-5-1c-10-2,0,0-18-4l-15-3;                                 M497.3,542.9c-11.7,22.5-39.1,37.2-64.3,31.9c-12.2-2.5-22.6-9.9-33.1-16.2c-0.4-0.2-0.7-0.4-1.1-0.7                              c-11.3-6.7-22.4-13.8-33.4-21.1c-9.5-6.3-20-12.6-31.8-12.4c-0.1,0-0.1,0-0.2,0c-11.4,0.2-21.9,6.2-27.6,16.1l-3.5,6.4"/>
                            </path>
                        </g>
                    </g>
                </g>
            </g>
            <g class="wr_three">
    <g class="bird_two">
	    <g class="overlay_two">
		    <path class="st11" d="M-84.6,681.3c0,0-8.1-8.8-13.3-9.6c-5.2-0.7-4.4,5.9-4.4,5.9s-3.7,1.1-4.1,4.8c-0.4,3.7,1.5,6.3,7,6.6    c5.5,0.4,19.2-1.1,19.2-1.1L-84.6,681.3z"/>
		    <path class="st11" d="M-40.8,664c8.1-1,15.9,0,19.5,10c3.7,10,1.5,23.6-19.9,30.2c-21.4,6.6-34.3-5.2-38-8.5s-10-11.8-10-11.8    S-64,667-40.8,664z"/>
		    <path class="st11" d="M-21.6,682.8c0,0,4.8-3,6.7-5c2-2,1.9-2.9-1.3-4.1c-3.2-1.2-9.1-2.4-9.1-2.4L-21.6,682.8z"/>
		    <path class="st10" d="M-42.6,682.5c0,0-2.5,3.3-22.3,6.9c-16.3,2.9-18.4-1.9-20.3-10s15.1-5.1,23.4-3.1    C-53.6,678.1-44.2,675.2-42.6,682.5z"/>
		    <path class="st22" d="M-42.6,682.5c1.4-2.3-3.3-14.7-10.3-23.6c-7-8.8-14-13.3-19.9-12.5c-5.9,0.7-10.3,2.6-10.3,8.8    c0,6.3,1.8,10,1.8,10s-7.4,1.1-7,9.2s7.4,10.3,14.4,11.8s17.7,1.1,21.8,0C-48,685.1-43.7,684.3-42.6,682.5z"/>
		    <path class="st23" d="M-34.7,675.1c1.8,0,3.3-1.5,3.3-3.3s-1.5-3.3-3.3-3.3s-3.3,1.5-3.3,3.3S-36.5,675.1-34.7,675.1z"/>
		    <path class="st10" d="M-13.9,675.2l-8.3,1.5c0,0-1.9,9.9-7.8,14.8c-5.3,4.4-9.2,6.4-17.7,7.9c-8.4,1.5-15.9,0.7-21.1-1.2    c-5.3-1.8-7.1-2.8-10.6-4.8c-1.8-1-6.2-5.1-6.2-5.1s5.3,7.4,10.4,10.7s10.7,6.3,17.5,6.9c6.8,0.7,14.5-0.2,22.1-3.5    s11.1-7.4,12.7-10.2s2.8-5.8,3-7.3s0-3.6,0-3.6s3.6-2.6,5-3.7C-13.4,676.7-13.7,676.5-13.9,675.2z"/>
	    </g>
	</g>
	<animateTransform begin="myanim2.end" id="pause" dur="2s" type="translate" attributeType="XML" attributeName="transform"/>
        <animateMotion id="myanim2" dur="5s" begin="1.5; pause.end" path="M-15.5,1190.4l288.3-126.4c198.9-87.1,444.1-67.9,618,48.6c0.1,0.1,0.2,0.1,0.2,0.2c0.2,0.2,0.4,0.3,0.7,0.5      c0.4,0.2,0.7,0.5,1.1,0.7c0.5,0.3,1,0.7,1.5,1c0.6,0.4,1.2,0.8,1.8,1.2c0.7,0.5,1.4,1,2.1,1.4c0.8,0.5,1.6,1.1,2.4,1.6      c0.9,0.6,1.8,1.2,2.7,1.8c1,0.7,2,1.3,2.9,2c1,0.7,2.1,1.4,3.1,2.1c1.1,0.7,2.2,1.5,3.3,2.2c1.2,0.8,2.3,1.5,3.5,2.3      c1.2,0.8,2.4,1.6,3.6,2.4c1.2,0.8,2.4,1.6,3.7,2.5c1.2,0.8,2.5,1.7,3.7,2.5c1.3,0.8,2.5,1.7,3.8,2.5c1.3,0.8,2.5,1.7,3.8,2.5      c1.2,0.8,2.5,1.7,3.7,2.5c1.2,0.8,2.4,1.6,3.7,2.5c1.2,0.8,2.4,1.6,3.6,2.4c1.2,0.8,2.3,1.5,3.5,2.3c1.1,0.7,2.2,1.5,3.3,2.2      c1,0.7,2.1,1.4,3.1,2.1c1,0.7,2,1.3,2.9,2c1.7,1.1,3.4,2.3,5.1,3.4c9.1,6.1,18,12.5,27.4,18.4c8.4,5.3,17.1,10.3,26.1,15      c8.9,4.6,18,8.9,27.3,12.9c9.2,4,18.7,7.6,28.3,10.9c9.6,3.3,19.3,6.2,29.2,8.8c9.8,2.6,19.8,4.9,29.9,6.8c10,1.9,20.2,3.5,30.4,4.7      c10.2,1.2,20.4,2.1,30.7,2.6c10.3,0.5,20.6,0.7,30.9,0.6c10.3-0.2,20.6-0.7,30.9-1.5c10.3-0.9,20.5-2.1,30.7-3.6      c10.2-1.6,20.4-3.5,30.4-5.7c10.1-2.3,20-4.9,29.8-7.9c9.9-3,19.6-6.3,29.2-10c9.6-3.7,19.1-7.8,28.3-12.1c6.1-2.9,12.1-5.9,18-9.1      l68.3-36.8l41.8-21.3">
    </animateMotion>
</g>
<g class="cloud_four">
    <g class="overlay_six">
	    <linearGradient id="SVGID_104_" gradientUnits="userSpaceOnUse" x1="1754.2689" y1="1103.8718" x2="1746.9056" y2="800.5756" gradientTransform="matrix(1 0 0 -1 0 1500)">
		    <stop offset="0.3605" style="stop-color:#FFFFFF"/>
		    <stop offset="1" style="stop-color:#E1E3F8"/>
	    </linearGradient>
	    <path class="st129" opacity=".9" filter="url(#blurMe)" d="M1586,490.2c0,0-93.3-7.6-85.6,67.5c5.9,57.7,95.4,41.8,95.4,41.8s6.6,41.7,41.8,67.5   c37.9,27.9,113.4,35.7,149.2,21.8c34.2-13.2,49.7-33.8,49.7-33.8s44,22.2,109.3,5.9c55.7-13.9,55.3-55.6,53.8-77.5   c-2-27.9-33.9-52.5-61.6-51.6c-25.9,0.7-35.7,5.9-35.7,5.9s-3.9-49.7-39.8-67.5c-35.7-17.9-71.6-2-71.6-2s-27.4-66.7-83.6-71.6   C1639.9,390.8,1595.9,430.5,1586,490.2z"/>
    </g>
</g>
<g class="cloud_three">
	<g class="overlay_seven">
	            <linearGradient id="SVGID_102_" gradientUnits="userSpaceOnUse" x1="1653.868" y1="1430.5901" x2="1660.8314" y2="1245.5227" gradientTransform="matrix(1 0 0 -1 0 1500)">
		            <stop offset="0.2354" style="stop-color:#FFFFFF"/>
		            <stop offset="0.4518" style="stop-color:#EDE7F8"/>
		            <stop offset="0.978" style="stop-color:#D6D5F5;stop-opacity:0.5"/>
	            </linearGradient>
	            <path filter="url(#blurMe)" opacity=".9" class="st127" d="M1645.1,70.9c35.8-7.9,68.2,14.1,75.1,23.5c6.8,9.4,11.5,21.5,11.5,21.5           s2.8-2.6,11.3-0.1c8.5,2.5,8.2,8.8,8.2,8.8s15.5-3.4,22,10.9c6.5,14.3-5.4,27.6-11.6,30.8c-6.1,3.1-15.3-0.1-15.3-0.1           s-11.7,32.2-57.6,35.3c-46,3.1-61.4-18.6-61.4-18.6s-13.3,12.6-39.8,13.2c-26.6,0.7-38.6-10.4-44.7-19.8           c-6.1-9.4-6.7-36.6,14.6-49.5c23.8-14.4,48.9-7.9,48.9-7.9S1596.8,81.6,1645.1,70.9z"/>
    </g>
  </g>
</g>
</g>
  <filter id="blurMe" x="-50%" y="-50%" width="200%" height="200%"> 
    <feGaussianBlur stdDeviation="7.5"/>
  </filter>
</svg>