<svg xmlns:xlink="http://www.w3.org/1999/xlink" xmlns="http://www.w3.org/2000/svg" width="20" height="20" viewBox="-3 0 24 24" aria-labelledby="box" unstroked="true" role="presentation"><title id="box" lang="en">box icon</title><g fill="#000000" stroke="none"><g><path clip-rule="evenodd" d="M0.199219 9.31698C0.199219 4.25673 4.42006 0.199219 9.49266 0.199219C14.5776 0.199219 18.7992 4.25594 18.7992 9.31698C18.7992 11.8358 17.882 14.1541 16.4054 16.0951L16.4054 16.0952C14.8194 18.1798 12.8652 19.9958 10.6642 21.4221C10.6637 21.4224 10.6632 21.4227 10.6628 21.423L10.2278 20.7516L10.6658 21.4211C10.6652 21.4214 10.6647 21.4218 10.6642 21.4221C10.3378 21.6354 9.95995 21.7936 9.52661 21.7991C9.09114 21.8046 8.69602 21.6547 8.33789 21.4251L8.33639 21.4242C6.12224 19.9977 4.16639 18.1807 2.59213 16.094C2.59248 16.0945 2.59283 16.0949 2.59318 16.0954L3.22972 15.6108L2.59104 16.0925C2.5914 16.093 2.59177 16.0935 2.59213 16.094C1.11482 14.1529 0.199219 11.835 0.199219 9.31698ZM9.49266 1.79922C5.26614 1.79922 1.79922 5.17749 1.79922 9.31698C1.79922 11.4342 2.56715 13.4197 3.86626 15.1262L3.86841 15.129L3.8684 15.129C5.32896 17.0654 7.14575 18.7536 9.20222 20.0787C9.37701 20.1906 9.46771 20.1997 9.50637 20.1992C9.54651 20.1987 9.63048 20.1864 9.78977 20.0822L9.79275 20.0803C11.8384 18.7548 13.6569 17.0653 15.132 15.1264C16.4304 13.4196 17.1992 11.4341 17.1992 9.31698C17.1992 5.17828 13.7331 1.79922 9.49266 1.79922ZM9.49266 7.57605C8.39534 7.57605 7.49345 8.4862 7.49345 9.57597C7.49345 10.6579 8.37535 11.5289 9.49266 11.5289C10.6157 11.5289 11.505 10.6533 11.505 9.57597C11.505 8.49087 10.5957 7.57605 9.49266 7.57605ZM5.89345 9.57597C5.89345 7.60783 7.50641 5.97605 9.49266 5.97605C11.4753 5.97605 13.105 7.60316 13.105 9.57597C13.105 11.5805 11.4552 13.1289 9.49266 13.1289C7.5264 13.1289 5.89345 11.5759 5.89345 9.57597Z"></path></g></g></svg>