<svg xmlns:xlink="http://www.w3.org/1999/xlink" xmlns="http://www.w3.org/2000/svg" width="13" height="20" viewBox="0 0 13 20" fill="none">
<path d="M1.96062 0.410603C2.65333 -0.0876916 3.63595 -0.140144 4.37227 0.295437C4.46378 0.361572 4.57781 0.347889 4.68243 0.330785C5.16162 0.287455 5.64025 0.236998 6.11973 0.195949C6.29248 0.168012 6.46836 0.161741 6.64282 0.170863C6.89881 0.197659 7.09551 0.446236 7.08239 0.699374C7.06671 0.821383 7.02082 0.936549 6.97948 1.05143C6.92105 1.20423 6.87287 1.36244 6.7882 1.50383C6.67503 1.70623 6.47976 1.85532 6.26454 1.93513C6.02252 2.02265 5.76083 2.00241 5.51282 2.05914C5.52308 2.50241 5.43956 2.95994 5.19839 3.33823C4.81156 4.02324 4.03533 4.46024 3.25054 4.45312C2.64421 4.45483 2.03787 4.19713 1.62424 3.75271C1.16814 3.29119 0.950632 2.61416 1.02446 1.97276C1.09573 1.35075 1.44551 0.766365 1.96062 0.410603Z" fill="black"/>
<path d="M7.57442 4.07997C7.66279 4.07113 7.75087 4.05802 7.83981 4.05688C9.02825 4.05745 10.2167 4.05574 11.4054 4.05545C11.7133 4.06001 12.0277 4.19969 12.2033 4.4591C12.3724 4.68174 12.3812 4.97108 12.3926 5.23847C12.4274 5.4346 12.404 5.635 12.4351 5.83141C12.4707 6.23991 12.4852 6.64926 12.5232 7.05776C12.5269 7.38074 12.642 7.72738 12.4872 8.03269C12.3615 8.33343 12.0391 8.52015 11.7187 8.52214C10.54 8.52357 9.36092 8.52357 8.18218 8.52499C8.01513 8.52357 7.84266 8.53868 7.68274 8.47995C7.46723 8.41325 7.28507 8.25903 7.16677 8.06918C7.0499 7.87761 7.02623 7.64756 7.02766 7.42806C6.97777 6.86078 6.94613 6.29236 6.90366 5.72423C6.87372 5.54321 6.8951 5.35849 6.86346 5.17775C6.85263 4.9899 6.83182 4.79292 6.89938 4.61275C7.00543 4.33082 7.27253 4.11161 7.57442 4.07997Z" fill="black"/>
<path d="M3.4213 5.09337C3.66731 5.06287 3.91674 5.0948 4.16218 5.05888C4.38026 5.0375 4.60033 5.05717 4.81812 5.0318C5.05643 5.01641 5.30985 4.99987 5.53021 5.11048C5.70838 5.19115 5.84663 5.33682 5.96009 5.49304C6.04532 5.60991 6.07982 5.75444 6.10604 5.89469C6.24601 6.78267 6.38854 7.67008 6.52766 8.55835C6.55645 8.72255 6.56186 8.9104 6.68729 9.03555C6.80046 9.15299 6.97264 9.16582 7.12544 9.17608C7.74431 9.17979 8.36319 9.18179 8.98207 9.18521C9.24034 9.19518 9.50944 9.26132 9.70642 9.43749C9.87204 9.57888 9.97666 9.79753 9.96127 10.0167C9.93162 10.3061 9.69701 10.5387 9.43133 10.6313C9.17905 10.726 8.90653 10.6747 8.64569 10.7106C8.36775 10.7286 8.08896 10.714 7.81131 10.7291C7.5767 10.767 7.3381 10.7388 7.10235 10.7645C6.77481 10.7964 6.44128 10.7496 6.11688 10.8101C6.11631 11.029 6.1069 11.2491 6.12343 11.4674C6.24573 11.8218 6.39367 12.1673 6.52452 12.5188C6.76825 13.1493 7.01198 13.7796 7.256 14.4099C7.33924 14.6314 7.43445 14.8489 7.50001 15.0769C7.56444 15.3033 7.64682 15.5256 7.67989 15.76C7.8056 16.3823 7.82812 17.0188 7.90709 17.6477C7.91963 17.8925 7.9641 18.1343 7.97436 18.3794C8.01541 18.6802 8.04563 18.9841 8.02653 19.2879C7.97807 19.6525 7.64682 19.9216 7.30075 19.9912C7.10719 19.996 6.89967 20.0263 6.71979 19.937C6.3894 19.8193 6.11231 19.5368 6.04048 19.1887C5.99971 19.0308 6.00598 18.8666 5.97833 18.7067C5.9293 18.2725 5.87771 17.8387 5.8301 17.4042C5.78648 17.0981 5.77936 16.7856 5.69555 16.4863C5.61459 16.2032 5.50313 15.9267 5.34121 15.6801C4.8985 15.0082 4.45409 14.3378 4.01195 13.6653C3.94724 13.8355 3.91674 14.0156 3.87198 14.1918C3.72888 14.7802 3.58777 15.3694 3.44382 15.9578C3.34689 16.2796 3.25738 16.6055 3.11827 16.9125C2.96662 17.2979 2.76764 17.6619 2.58776 18.0345C2.41302 18.3903 2.23571 18.7452 2.06068 19.1009C1.98913 19.248 1.90332 19.39 1.79471 19.5128C1.58319 19.7158 1.29642 19.8538 0.999093 19.8461C0.753937 19.8569 0.503934 19.7868 0.306384 19.6397C0.0270193 19.4256 -0.0855816 19.0154 0.0712045 18.6953C0.42098 17.8977 0.783013 17.1052 1.13364 16.3079C1.22544 16.0442 1.32663 15.7802 1.36369 15.502C1.41557 15.2277 1.44551 14.9492 1.44608 14.6699C1.47515 14.4521 1.45605 14.2309 1.48998 14.0134C1.50708 13.8332 1.4934 13.6516 1.50851 13.4715C1.54129 13.1955 1.50765 12.9159 1.54585 12.6402C1.55583 12.5185 1.55098 12.3962 1.55155 12.2745C1.55098 10.2314 1.55126 8.18862 1.55069 6.14555C1.51079 5.71026 1.82806 5.28979 2.24255 5.17291C2.42984 5.1082 2.63024 5.1464 2.82323 5.12131C3.02163 5.09394 3.2226 5.11475 3.4213 5.09337Z" fill="black"/>
</svg>