<svg data-v-980fb842="" version="1.1" id="SearchIcon" xmlns="http://www.w3.org/2000/svg" xmlns:xlink="http://www.w3.org/1999/xlink" x="0px" y="0px" viewBox="0 0 668.8 668.9" xml:space="preserve" class="" width="668.8"  height="668.9" ><g data-v-980fb842="" class="sub_one"><path data-v-980fb842="" class="st0" d="M630.5,628.5l-147-147.9l-17-18.1c-44.8,45.3-107,73.3-175.8,73.3c-136.6,0-247.2-110.7-247.2-247.3S154.2,41.3,290.8,41.3S538,152,538,288.5c0,67.8-27.3,129.3-71.5,174" stroke="#909090" fill="none" stroke-width="50px"></path><path data-v-980fb842="" class="st1" d="M630.5,628.5l-147-147.9l-17-18.1c-44.8,45.3-107,73.3-175.8,73.3c-136.6,0-247.2-110.7-247.2-247.3S154.2,41.3,290.8,41.3S538,152,538,288.5c0,67.8-27.3,129.3-71.5,174" style="" stroke="#000000" fill="none" stroke-width="63px"></path></g></svg>