<svg xmlns:xlink="http://www.w3.org/1999/xlink" width="50" viewBox="0 0 50 50" fill="none" xmlns="http://www.w3.org/2000/svg" height="50" ><path d="M24.5692 40.2919L9.45508 32.7349V15.862L24.5692 8.42091L39.6832 15.862V32.7349L24.5692 40.2919ZM13.2433 30.3963L22.675 35.1121L24.5692 36.0592L26.4649 35.1114L35.8951 30.3963V20.8393V18.2007L34.2793 17.4065L24.5692 12.6343L14.8598 17.4062L13.2433 18.2007V20.8395V30.3963Z" fill="#0671E3"></path><path d="M26.4631 38.5891H22.675V35.1121V25.4968V25.4851L10.5566 19.5128L11.3684 17.8701L11.3491 15.918H11.8516L14.8598 17.4062L24.5699 22.2099L26.4631 23.1465V38.5891Z" fill="#0671E3"></path><path d="M26.4649 38.5891H22.6768V23.1465L24.5699 22.2099L34.2793 17.4065L37.2883 15.918H37.7329L37.7715 17.8701L38.5833 19.5128L26.4649 25.4851V25.4959V35.1114V38.5891Z" fill="#0671E3"></path><path d="M24.569 26.4321L22.675 25.4968L13.2433 20.8395L10.5566 19.5128L11.3684 17.8701L11.3491 15.918H11.7936L12.2381 16.1305L24.569 22.2187L37.2865 15.918H37.7311L37.7696 17.8701L38.5815 19.5129L35.8951 20.8393L26.4649 25.4959L24.569 26.4321Z" fill="#0671E3"></path><path d="M5.68877 14.0444H1.91992V2.69922H13.2458V6.4874H5.68877V14.0444Z" fill="#0671E3"></path><path d="M13.2458 48.0434H1.91992V36.6982H5.68877V44.2553H13.2458V48.0434Z" fill="#0671E3"></path><path d="M47.2408 48.0434H35.8955V44.2553H43.4525V36.6982H47.2408V48.0434Z" fill="#0671E3"></path><path d="M47.2408 14.0444H43.4525V6.4874H35.8955V2.69922H47.2408V14.0444Z" fill="#0671E3"></path><path fill-rule="evenodd" clip-rule="evenodd" d="M34.2793 17.4065L24.5692 12.6343L14.8598 17.4062L24.5699 22.2099L34.2793 17.4065ZM22.675 35.1121L13.2433 30.3963V20.8395L22.675 25.4968V35.1121ZM26.4649 35.1114L35.8951 30.3963V20.8393L26.4649 25.4959V35.1114ZM24.5692 40.2919L9.45508 32.7349V15.862L24.5692 8.42091L39.6832 15.862V32.7349L24.5692 40.2919ZM5.68877 14.0444H1.91992V2.69922H13.2458V6.4874H5.68877V14.0444ZM13.2458 48.0434H1.91992V36.6982H5.68877V44.2553H13.2458V48.0434ZM47.2408 48.0434H35.8955V44.2553H43.4525V36.6982H47.2408V48.0434ZM47.2408 14.0444H43.4525V6.4874H35.8955V2.69922H47.2408V14.0444Z" fill="#0671E3"></path></svg>