<svg xmlns:xlink="http://www.w3.org/1999/xlink" xmlns="http://www.w3.org/2000/svg" width="18" height="18" viewBox="0 0 22 22" aria-labelledby="box" unstroked="true" role="presentation"><title id="box" lang="en">box icon</title><g fill="black" stroke="none"><g><path fill-rule="evenodd" clip-rule="evenodd" d="M10 1C5.02944 1 1 5.02944 1 10C1 14.9706 5.02944 19 10 19C12.125 19 14.078 18.2635 15.6177 17.0319L19.2929 20.7071C19.6834 21.0977 20.3166 21.0977 20.7071 20.7071C21.0977 20.3166 21.0977 19.6834 20.7071 19.2929L17.0319 15.6177C18.2635 14.078 19 12.125 19 10C19 5.02944 14.9706 1 10 1ZM10 3C6.13401 3 3 6.13401 3 10C3 13.866 6.13401 17 10 17C13.866 17 17 13.866 17 10C17 6.13401 13.866 3 10 3Z" fill="" stroke="" stroke-linecap="round" stroke-linejoin="round"></path></g></g></svg>