<svg xmlns:xlink="http://www.w3.org/1999/xlink" xmlns="http://www.w3.org/2000/svg" width="14" height="16" viewBox="0 0 14 16" fill="none">
<path fill-rule="evenodd" clip-rule="evenodd" d="M10.7661 11.911C10.6858 11.9852 10.5805 12.0261 10.4712 12.0257C10.3642 12.0247 10.2611 11.9855 10.1805 11.9151C10.1002 11.9878 9.99589 12.028 9.88766 12.028C9.77944 12.028 9.67508 11.9878 9.59487 11.9151L9.30615 12.2039C9.36787 12.2792 9.40818 12.3697 9.42287 12.466C9.42287 12.6994 9.33687 12.6994 9.33687 12.9901C9.33687 13.717 10.1805 13.9525 10.1805 13.9525C10.1805 13.9525 11.0261 13.717 11.0261 12.9901H11.0282C11.0282 12.6994 10.9401 12.6994 10.9401 12.466C10.9558 12.37 10.996 12.2797 11.0568 12.2039L10.7661 11.911ZM6.55219 10.6763L5.73316 11.4954L5.93792 12.3144H7.16645L7.37121 11.4954L6.55219 10.6763ZM4.35106 9.78574L4.86295 11.5282C4.86806 11.5451 4.87757 11.5604 4.89051 11.5725C4.90345 11.5846 4.91936 11.593 4.93662 11.597C4.95388 11.601 4.97188 11.6003 4.98879 11.595C5.00571 11.5898 5.02092 11.5801 5.03291 11.5671L6.55218 10.0621L8.07556 11.5711C8.087 11.5843 8.10176 11.5942 8.11831 11.5998C8.13486 11.6054 8.15261 11.6065 8.16972 11.603C8.18683 11.5994 8.20268 11.5914 8.21564 11.5797C8.2286 11.5679 8.2382 11.553 8.24345 11.5363L8.82497 9.78774C8.97068 9.79258 9.11517 9.81596 9.25496 9.85733C10.4016 10.185 11.5482 10.6763 12.4492 11.4135C12.6487 11.5697 12.8109 11.7683 12.9242 11.995C13.0376 12.2216 13.0991 12.4706 13.1044 12.7239V16H7.37121L7.15212 12.7239H5.96045L5.73316 16H0V12.7239C0.00527954 12.4706 0.0668045 12.2216 0.180123 11.995C0.293442 11.7683 0.455721 11.5697 0.655219 11.4135C1.62418 10.7177 2.70426 10.1915 3.84941 9.85733C4.01316 9.81349 4.18158 9.78945 4.35106 9.78574ZM3.34161 4.89411C4.30918 5.55967 5.45562 5.91659 6.62999 5.91789C7.74555 5.91802 8.83775 5.59825 9.77709 4.99649C9.80982 5.18171 9.82694 5.36935 9.82828 5.55744C9.82667 6.0148 9.72932 6.46675 9.54249 6.88422C9.35566 7.30168 9.08349 7.6754 8.7435 7.98132C8.4035 8.28724 8.00322 8.51857 7.56842 8.66044C7.13362 8.80231 6.67392 8.85157 6.21893 8.80504C5.76394 8.75852 5.32373 8.61724 4.92664 8.3903C4.52955 8.16336 4.18438 7.85579 3.91334 7.48739C3.64231 7.11899 3.45141 6.69791 3.35294 6.25128C3.25447 5.80464 3.25061 5.34233 3.34161 4.89411ZM6.14267 1.47258L5.87444 1.72853C5.92847 1.79524 5.9638 1.8751 5.97683 1.95995C5.97683 2.1647 5.90107 2.1647 5.90107 2.42264C5.90107 3.06557 6.64638 3.27033 6.64638 3.27033C6.64638 3.27033 7.39169 3.06357 7.39169 2.42264H7.39988C7.39988 2.1647 7.32412 2.1647 7.32003 1.95995C7.33354 1.87524 7.36882 1.7955 7.42241 1.72853L7.16646 1.47258C7.09857 1.53594 7.00951 1.57173 6.91666 1.57296C6.82195 1.57258 6.73049 1.53845 6.65867 1.47671C6.58733 1.53926 6.49554 1.5735 6.40066 1.57296C6.30498 1.5738 6.21262 1.53787 6.14267 1.47258ZM6.41703 0.0596864C6.49007 0.0205046 6.57166 0 6.65455 0C6.73743 0 6.81903 0.0205046 6.89206 0.0596864C7.35688 0.305503 8.49738 0.848051 8.95807 1.02414C9.58413 1.24034 10.2236 1.41544 10.8725 1.54832L10.8643 1.55445C10.9509 1.5737 11.0308 1.61584 11.0955 1.67647C11.1603 1.7371 11.2076 1.814 11.2325 1.89914C11.2574 1.98429 11.2589 2.07455 11.237 2.16051C11.2152 2.24648 11.1706 2.32499 11.108 2.38785L10.289 3.20688V3.45056C10.2886 3.59915 10.251 3.74528 10.1794 3.87551C10.1078 4.00574 10.0047 4.1159 9.87946 4.19587L9.45562 4.4702C8.58844 5.02911 7.57522 5.3188 6.54366 5.30276C5.5121 5.28672 4.50838 4.96568 3.65899 4.38009L3.39486 4.19786C3.27684 4.1164 3.18035 4.00752 3.11366 3.88056C3.04696 3.7536 3.01207 3.61236 3.01196 3.46896V3.20075L2.19294 2.38172C2.13034 2.31886 2.08577 2.24035 2.06387 2.15439C2.04197 2.06842 2.04355 1.97815 2.06845 1.89301C2.09334 1.80786 2.14063 1.73096 2.20539 1.67033C2.27015 1.60969 2.34999 1.56756 2.43659 1.54832C3.08547 1.41543 3.72499 1.24034 4.35106 1.02414C4.81174 0.848047 5.95225 0.305503 6.41703 0.0596864Z" fill="black"/>
<circle cx="6.5" cy="2.5" r="1.5" fill="black"/>
</svg>