<svg xmlns:xlink="http://www.w3.org/1999/xlink" xmlns="http://www.w3.org/2000/svg" width="17" height="17" viewBox="0 0 24 24" aria-labelledby="box" unstroked="true" role="presentation"><title id="box" lang="en">box icon</title><g fill="#000000" stroke="none" fill-opacity="0.87"><g fill-opacity="0.87"><path clip-rule="evenodd" d="M17.5622 10.1756L16.2162 16.9057H20.2443L18.8983 10.1756H17.5622ZM19.6628 8.31055C20.1073 8.31055 20.4901 8.62451 20.5771 9.06025L23.4422 23.3855C23.5432 23.8904 23.2156 24.3818 22.7106 24.4829C22.2059 24.5839 21.7144 24.2565 21.6134 23.7513L20.6173 18.7708H15.8432L14.8471 23.7512C14.7461 24.2562 14.2548 24.5838 13.7498 24.4827C13.2448 24.3818 12.9173 23.8905 13.0183 23.3855L15.8834 9.06009C15.9704 8.62435 16.3532 8.31055 16.7977 8.31055H19.6628Z M8.09395 1.43232C8.09395 0.917442 7.67651 0.5 7.16163 0.5C6.64674 0.5 6.2293 0.917442 6.2293 1.43232V3.36465H1.43233C0.917442 3.36465 0.5 3.78209 0.5 4.29697C0.5 4.81186 0.917442 5.2293 1.43233 5.2293H2.14758L2.25659 5.58145C3.05114 8.14834 4.24542 10.1146 5.55998 11.6913L5.86579 12.0581L5.51341 12.3804C4.67133 13.1507 3.81587 13.8214 3.0284 14.4388C2.77151 14.6402 2.52186 14.8359 2.28226 15.0276C1.88019 15.3492 1.815 15.9359 2.1367 16.3379C2.45854 16.7402 3.04527 16.805 3.44709 16.4835C3.69194 16.2876 3.94583 16.0886 4.20685 15.8839C5.0275 15.2404 5.91887 14.5414 6.82355 13.7112L7.16162 13.4009L7.49969 13.7112C8.40488 14.5419 9.29751 15.2418 10.1174 15.8846C10.3783 16.0893 10.6319 16.2881 10.8761 16.4835C11.2782 16.8052 11.865 16.74 12.1865 16.338C12.5082 15.9359 12.4429 15.3491 12.041 15.0276C11.8011 14.8356 11.5506 14.6392 11.2928 14.4371C10.5069 13.8209 9.65159 13.1503 8.80985 12.3804L8.45745 12.0581L8.76327 11.6913C10.0778 10.1146 11.2721 8.14834 12.0667 5.58145L12.1757 5.2293H12.8909C13.4058 5.2293 13.8233 4.81186 13.8233 4.29697C13.8233 3.78209 13.4058 3.36465 12.8909 3.36465H8.09395V1.43232ZM7.16163 10.7089L6.77054 10.218C5.82562 9.03177 4.9758 7.61589 4.33599 5.89389L4.08551 5.21975H10.2376L9.98717 5.89387C9.34745 7.61588 8.49763 9.03177 7.55271 10.218L7.16163 10.7089Z" fill-opacity="0.87"></path></g></g></svg>